<svg id="Light" xmlns="http://www.w3.org/2000/svg" viewBox="0 0 24 24"><defs><style>.cls-1{fill:none;stroke:currentColor;stroke-linecap:round;stroke-linejoin:round;}</style></defs><title>ecology-plant-hand</title><path class="cls-1" d="M15.5,7.453c-1.2.8-1.824,2.269,0,3.5,1,2.5,2.86,1.827,3.961.667a6.889,6.889,0,0,0,.863-6.167C18.566,6.778,17,6.453,15.5,7.453Z"/><path class="cls-1" d="M12.021,3.924C13.315,5.448,14,7.453,10.913,8.8c-1.413,3.154-3.562,1.986-4.991.3S3.945,2.909,5.2.528C7.526,2.493,10.4,2.018,12.021,3.924Z"/><path class="cls-1" d="M18,8.953c-3,1.5-4.5,5.5-4.5,5.5A21.566,21.566,0,0,0,7.236,4.093"/><rect class="cls-1" x="0.5" y="14.528" width="4" height="8" rx="0.5" ry="0.5"/><path class="cls-1" d="M4.5,21.028c10.728,3.577,6.772,3.614,19-2.5a2.764,2.764,0,0,0-3-1L16.066,19"/><path class="cls-1" d="M4.5,15.528h3a6.59,6.59,0,0,1,4.5,2h3a1.016,1.016,0,1,1,0,2H9.5"/></svg>