<svg id="Light" xmlns="http://www.w3.org/2000/svg" viewBox="0 0 24 24"><defs><style>.cls-1{fill:none;stroke:currentColor;stroke-linecap:round;stroke-linejoin:round;}</style></defs><title>global-warming-globe-fire-1</title><path class="cls-1" d="M4.328,21.5,5,18.134h.719a1,1,0,0,0,.97-1.242l-.5-2a1,1,0,0,0-.97-.758H1.651"/><path class="cls-1" d="M14.99,11.134H12.281a1,1,0,0,0-.97.758l-.5,2a1,1,0,0,0,.97,1.242h1.052l.528,3.165a1,1,0,0,0,.986.835h1.284"/><circle class="cls-1" cx="9" cy="15.634" r="7.5"/><path class="cls-1" d="M9.623,6.133c.042-.124.086-.249.134-.377a3.088,3.088,0,0,0,.308-1.411.5.5,0,0,1,.669-.514,2.967,2.967,0,0,1,1.852,1.925A9.44,9.44,0,0,1,14.853,3.4a2.478,2.478,0,0,0,1.009-2.03.5.5,0,0,1,.82-.391,8.811,8.811,0,0,1,3.423,7.284,4.933,4.933,0,0,0,1.257-.947.5.5,0,0,1,.852.214c.484,1.87.882,5.816-3.488,7.913"/></svg>