<svg id="Light" xmlns="http://www.w3.org/2000/svg" viewBox="0 0 24 24"><defs><style>.cls-1{fill:none;stroke:currentColor;stroke-linecap:round;stroke-linejoin:round;}</style></defs><title>global-warming-high-temperature</title><path class="cls-1" d="M7.5,16.041V2.5a2,2,0,0,0-4,0V16.041a4,4,0,1,0,4,0Z"/><circle class="cls-1" cx="5.5" cy="19.5" r="1"/><line class="cls-1" x1="5.5" y1="18.5" x2="5.5" y2="7.5"/><path class="cls-1" d="M9.517,4.882a7.5,7.5,0,1,1,0,10.23"/><path class="cls-1" d="M10.328,15.861,11,12.5h.719a1,1,0,0,0,.97-1.243l-.5-2a1,1,0,0,0-.97-.757H9.511"/><path class="cls-1" d="M20.99,5.5H18.281a1,1,0,0,0-.97.757l-.5,2a1,1,0,0,0,.97,1.243h1.052l.528,3.164a1,1,0,0,0,.986.836h1.284"/></svg>