<svg id="Light" xmlns="http://www.w3.org/2000/svg" viewBox="0 0 24 24"><defs><style>.cls-1{fill:none;stroke:currentColor;stroke-linecap:round;stroke-linejoin:round;}</style></defs><title>recycling-trash-bin-1</title><polyline class="cls-1" points="15.002 8.053 14.423 9.841 12.512 9.596"/><polyline class="cls-1" points="7 12.909 8.731 12.541 9.106 14.235"/><polyline class="cls-1" points="14.603 17.925 13.258 16.608 14.603 15.291"/><path class="cls-1" d="M15.679,12.713l1.191,2.248a1.122,1.122,0,0,1-.992,1.647H13.261"/><path class="cls-1" d="M9.937,9.682l1.228-2.089a1.123,1.123,0,0,1,1.935,0l1.323,2.248"/><path class="cls-1" d="M10.456,16.608H8.408a1.122,1.122,0,0,1-.986-1.657l1.309-2.41"/><path class="cls-1" d="M20.462,4.359A1,1,0,0,0,20.3,3.7L18.8,1.445A1,1,0,0,0,17.965,1H6.035a1,1,0,0,0-.832.445L3.7,3.7a1,1,0,0,0-.162.659L5.406,22.105A1,1,0,0,0,6.4,23H17.6a1,1,0,0,0,.994-.895Z"/><line class="cls-1" x1="3.565" y1="4" x2="20.435" y2="4"/></svg>