<svg id="Light" xmlns="http://www.w3.org/2000/svg" viewBox="0 0 24 24"><defs><style>.cls-1{fill:none;stroke:currentColor;stroke-linecap:round;stroke-linejoin:round;}</style></defs><title>renewable-energy-battery-leaf</title><path class="cls-1" d="M14.868,14.426c-1.7,1.047-2.46,2.683.388,4.455.291,3.342,1.914,3.519,3.8,2.363,1.731-1.062,3.5-4.626,3.415-7.257a.5.5,0,0,0-.642-.464C19.232,14.292,16.854,13.209,14.868,14.426Z"/><path class="cls-1" d="M11.385,23.5s4.46-6.659,8.268-7.524"/><path class="cls-1" d="M8.529,23.5h-5a2,2,0,0,1-2-2V5.5a2,2,0,0,1,2-2h9a2,2,0,0,1,2,2V12"/><path class="cls-1" d="M5.529,3.5v-2a1,1,0,0,1,1-1h3a1,1,0,0,1,1,1v2"/><path class="cls-1" d="M5.028,14.5h1.5v2.561a.5.5,0,0,0,.892.31l3.988-5.046a.5.5,0,0,0-.38-.825h-1.5V8.939a.5.5,0,0,0-.892-.31L4.648,13.675A.5.5,0,0,0,5.028,14.5Z"/></svg>