<svg id="Light" xmlns="http://www.w3.org/2000/svg" viewBox="0 0 24 24"><defs><style>.cls-1{fill:none;stroke:currentColor;stroke-linecap:round;stroke-linejoin:round;}</style></defs><title>renewable-energy-charging</title><path class="cls-1" d="M6.2,7C8.133,7,9.7,5.934,9.7,4S8.133,1,6.2,1H3.7a.5.5,0,0,0-.5.5v5a.5.5,0,0,0,.5.5Z"/><path class="cls-1" d="M17.2,19H6.7a4.5,4.5,0,0,1,0-9h13a3,3,0,0,0,0-6H9.7"/><line class="cls-1" x1="3.201" y1="3" x2="1.201" y2="3"/><line class="cls-1" x1="3.201" y1="5" x2="1.201" y2="5"/><path class="cls-1" d="M17.728,22.65A3.491,3.491,0,0,1,16.2,23H13.7c-1.933,0-3.5-2.066-3.5-4s1.567-4,3.5-4h2.5a3.492,3.492,0,0,1,1.5.336l4.877,3.248a.5.5,0,0,1,0,.832Z"/><path class="cls-1" d="M13.368,20.5a2,2,0,0,1,.011-3"/><path class="cls-1" d="M15.705,20.327a2,2,0,0,1,0-2.651"/><line class="cls-1" x1="5.201" y1="1" x2="5.201" y2="7"/></svg>