<?xml version="1.0" standalone="no"?>
<!DOCTYPE svg PUBLIC "-//W3C//DTD SVG 20010904//EN"
 "http://www.w3.org/TR/2001/REC-SVG-20010904/DTD/svg10.dtd">
<svg version="1.0" xmlns="http://www.w3.org/2000/svg"
 width="1132.000000pt" height="1132.000000pt" viewBox="0 0 1132.000000 1132.000000"
 preserveAspectRatio="xMidYMid meet">
<metadata>
Created by potrace 1.11, written by Peter Selinger 2001-2013
</metadata>
<g transform="translate(0.000000,1132.000000) scale(0.100000,-0.100000)"
fill="#000000" stroke="none">
<path d="M5415 11022 c-3 -3 -11 -7 -18 -8 -7 -1 -25 -5 -42 -8 -16 -4 -47 -9
-67 -11 -167 -21 -167 -21 -333 -65 -44 -11 -88 -25 -97 -30 -10 -6 -23 -10
-29 -10 -17 0 -188 -89 -210 -109 -11 -10 -56 -37 -102 -61 -45 -24 -93 -51
-107 -59 -51 -32 -170 -125 -170 -133 0 -4 -7 -8 -15 -8 -8 0 -15 -4 -15 -9 0
-5 -33 -37 -72 -70 -99 -83 -96 -81 -108 -81 -5 0 -10 -5 -10 -10 0 -6 -17
-18 -37 -27 -21 -10 -59 -32 -84 -50 -26 -18 -52 -33 -58 -33 -6 0 -11 -5 -11
-11 0 -6 -6 -9 -14 -6 -8 3 -27 -5 -41 -19 -18 -17 -36 -24 -54 -22 -18 2 -33
-5 -48 -23 -13 -15 -34 -30 -47 -33 -13 -3 -27 -13 -30 -22 -4 -12 -2 -15 9
-10 32 12 42 -68 12 -99 -10 -9 -17 -20 -17 -25 0 -5 -19 -23 -43 -40 -27 -19
-50 -47 -62 -73 -10 -23 -23 -49 -30 -57 -7 -8 -16 -26 -20 -39 -4 -14 -12
-29 -16 -35 -33 -39 -89 -130 -89 -143 0 -9 -6 -24 -13 -32 -19 -23 -87 -141
-87 -151 0 -5 -13 -24 -30 -42 -16 -18 -30 -39 -30 -48 0 -9 -7 -26 -16 -38
-8 -12 -17 -30 -19 -40 -1 -9 -10 -35 -18 -57 -9 -22 -21 -60 -28 -85 -7 -25
-14 -49 -15 -55 -21 -68 -49 -244 -59 -365 -4 -48 -22 -124 -51 -210 -24 -75
-44 -143 -44 -152 0 -9 -5 -20 -10 -23 -6 -4 -8 -10 -6 -14 3 -4 1 -25 -4 -47
-5 -21 -12 -59 -15 -84 -3 -25 -8 -61 -10 -80 -3 -19 -8 -62 -11 -95 -3 -33
-7 -71 -10 -85 -2 -14 -7 -50 -9 -80 -3 -30 -8 -62 -10 -70 -2 -8 -7 -44 -10
-80 -3 -36 -7 -81 -10 -100 -2 -19 -7 -60 -10 -90 -3 -30 -11 -82 -17 -115
-17 -97 -19 -107 -22 -170 -2 -33 -8 -72 -14 -86 -6 -14 -13 -43 -16 -65 -3
-21 -8 -50 -11 -64 -19 -111 -24 -341 -10 -500 12 -132 12 -153 3 -185 -10
-33 -22 -217 -20 -310 3 -208 3 -275 -2 -283 -3 -5 -8 -35 -11 -68 -4 -32 -8
-72 -10 -89 -25 -209 -25 -454 -1 -493 15 -24 27 -345 14 -373 -4 -9 -5 -19
-2 -22 3 -3 7 -59 9 -126 3 -66 7 -134 10 -151 12 -70 14 -88 19 -143 3 -32 7
-61 10 -65 2 -4 7 -31 10 -61 4 -30 9 -64 12 -75 3 -12 7 -34 9 -51 2 -16 4
-30 5 -30 0 0 3 -72 6 -160 6 -217 18 -329 59 -545 11 -61 16 -111 19 -187 2
-45 7 -86 11 -93 4 -6 9 -26 11 -43 2 -18 13 -70 24 -117 23 -105 38 -176 44
-213 3 -16 12 -50 20 -75 8 -26 18 -58 21 -72 2 -14 9 -47 15 -75 6 -27 13
-66 16 -85 2 -19 12 -66 21 -104 14 -60 17 -67 25 -46 8 23 9 23 22 4 7 -10
34 -59 61 -109 26 -49 60 -112 75 -140 15 -27 40 -74 56 -103 16 -30 39 -70
51 -90 13 -20 25 -45 29 -54 3 -10 9 -18 13 -18 4 0 15 -17 26 -37 11 -21 23
-40 26 -43 4 -3 16 -23 28 -46 12 -22 33 -51 46 -64 14 -13 25 -28 25 -33 0
-5 9 -18 21 -28 14 -12 21 -30 21 -54 0 -25 6 -38 19 -46 10 -5 19 -19 19 -30
0 -22 56 -79 77 -79 7 0 13 -4 13 -10 0 -5 5 -10 11 -10 6 0 30 -13 54 -30 24
-16 47 -30 52 -30 4 0 29 -21 55 -47 27 -27 65 -64 85 -83 21 -19 47 -47 58
-61 11 -14 41 -35 68 -48 30 -15 47 -30 48 -42 1 -17 3 -24 8 -44 0 -2 12 0
25 5 18 6 28 5 36 -6 7 -7 19 -14 26 -14 7 0 30 -10 51 -22 21 -12 56 -30 78
-41 39 -19 83 -48 116 -77 70 -60 116 -85 132 -71 10 8 27 5 66 -8 28 -11 54
-20 56 -20 5 -1 7 -1 23 -5 4 -1 58 -19 121 -39 63 -20 117 -35 119 -32 3 3
11 0 19 -6 7 -6 13 -9 13 -5 0 3 29 -5 65 -19 36 -13 65 -22 65 -18 0 3 6 1
13 -5 6 -5 35 -13 62 -17 28 -5 57 -10 65 -12 8 -2 33 -5 55 -7 115 -12 267
-37 286 -47 8 -4 33 -10 55 -13 21 -3 61 -8 89 -12 117 -16 622 -8 677 11 17
5 83 16 133 21 161 15 257 34 380 74 50 16 105 32 124 35 30 5 33 4 21 -10
-10 -12 -10 -15 4 -15 9 0 19 6 22 14 3 8 20 13 45 12 22 0 43 4 47 9 4 6 24
18 45 27 34 16 37 16 37 1 0 -9 -3 -14 -6 -10 -4 3 -22 -5 -40 -19 -18 -14
-59 -33 -90 -43 -64 -19 -86 -43 -32 -34 18 3 39 10 46 15 6 6 12 8 12 5 0 -8
171 81 192 100 9 8 15 20 12 27 -9 24 16 66 75 128 33 35 68 72 78 83 10 11
50 45 88 76 94 75 306 287 325 324 24 47 82 115 99 115 5 0 19 16 31 35 12 20
29 34 37 33 20 -4 44 33 26 39 -9 3 -4 18 17 48 35 50 60 64 67 36 4 -18 34
-20 31 -3 -3 27 4 52 15 52 10 0 13 13 13 40 -1 29 3 42 15 45 19 6 43 53 40
77 -3 25 19 32 34 12 20 -28 30 -9 30 54 0 49 3 57 20 60 16 2 17 1 5 -7 -8
-6 -10 -11 -5 -11 27 0 116 81 96 88 -19 6 -12 53 13 97 14 23 36 71 50 108
13 36 30 76 38 89 7 13 13 40 13 61 1 24 8 42 21 52 10 8 16 15 13 15 -13 0
11 91 31 118 11 15 22 36 24 47 2 11 11 38 19 60 27 71 48 145 53 188 7 56 44
218 54 237 5 8 10 29 13 47 3 17 7 36 10 40 3 5 8 28 12 53 4 25 9 48 11 52 2
4 7 49 10 100 6 112 31 254 50 288 39 68 53 85 67 84 13 -1 15 5 11 32 -4 25
-2 34 9 34 12 0 13 27 10 161 -3 89 -10 189 -17 223 -13 61 -13 150 -1 235 4
25 9 83 10 129 2 46 7 96 10 112 3 15 8 86 10 156 4 128 8 177 20 265 4 30 2
49 -5 54 -7 5 -10 56 -9 158 1 84 0 157 -1 162 -2 6 0 18 4 27 4 9 2 34 -4 54
-7 20 -15 55 -17 78 -9 75 -11 91 -13 91 0 0 -3 21 -6 47 -2 26 -11 65 -19 87
-10 31 -13 93 -10 282 3 230 -1 267 -26 289 -19 17 -25 86 -34 441 -5 171 -10
236 -29 339 -3 19 -8 49 -11 65 -3 17 -10 55 -16 85 -14 76 -18 107 -24 165
-6 67 -14 124 -21 155 -3 14 -8 38 -10 54 -3 16 -19 75 -35 130 -17 56 -32
110 -34 121 -3 11 -13 50 -24 88 -11 37 -20 68 -20 70 0 9 -55 163 -61 172 -4
6 -11 21 -15 35 -4 14 -23 57 -40 95 -18 39 -43 97 -56 130 -12 33 -35 88 -51
123 -15 34 -28 68 -28 75 0 15 -53 102 -80 132 -10 11 -33 48 -50 82 -18 34
-40 70 -49 80 -9 10 -27 39 -41 66 -14 26 -29 47 -33 47 -5 0 -7 13 -5 29 1
18 -7 42 -24 67 -15 22 -42 70 -60 107 -51 104 -52 107 -60 107 -17 0 -49 82
-44 112 4 26 2 29 -15 25 -12 -3 -22 0 -25 8 -3 8 -21 19 -40 25 -19 7 -42 24
-52 38 -20 33 -33 43 -48 38 -5 -2 -16 9 -23 25 -9 20 -20 29 -37 29 -13 0
-24 5 -24 10 0 6 -6 10 -12 10 -7 0 -24 16 -37 35 -12 19 -50 63 -82 97 -33
35 -69 82 -81 106 -20 42 -55 61 -43 23 3 -11 8 -47 10 -81 2 -34 8 -67 13
-73 5 -7 22 -50 37 -97 15 -47 33 -103 40 -125 22 -67 6 -60 -44 18 -72 115
-116 170 -211 267 -36 36 -79 84 -97 106 -50 63 -235 245 -273 269 -51 31 -68
36 -74 20 -6 -17 54 -138 85 -171 11 -12 19 -29 17 -38 -3 -14 -6 -14 -33 0
-27 14 -86 12 -72 -3 4 -3 2 -14 -4 -25 -8 -16 -5 -24 18 -46 16 -15 36 -36
43 -47 15 -20 14 -20 -8 -1 -12 11 -22 15 -22 9 0 -12 43 -53 56 -53 5 0 15
-12 21 -27 14 -33 45 -86 55 -93 4 -3 9 -15 11 -25 10 -53 96 -199 123 -209 8
-3 13 -10 9 -15 -10 -16 -64 6 -113 47 -67 55 -91 67 -98 47 -8 -19 -30 -20
-41 -1 -4 8 -25 33 -46 55 -21 23 -36 41 -33 41 3 0 -20 25 -50 55 -61 60 -74
66 -74 33 0 -29 44 -114 131 -251 38 -60 69 -112 69 -117 0 -5 4 -10 8 -12 16
-6 72 -109 66 -120 -4 -6 -9 -7 -13 0 -15 23 -133 113 -145 110 -9 -2 5 -40
45 -123 32 -66 59 -128 59 -137 0 -9 5 -20 11 -23 6 -4 8 -13 5 -21 -3 -7 6
-22 19 -33 14 -10 25 -22 25 -25 0 -13 -20 -5 -49 19 -42 36 -95 44 -62 9 5
-5 11 -18 13 -29 1 -11 12 -30 23 -41 63 -68 77 -85 72 -91 -3 -3 10 -31 30
-61 19 -31 58 -99 85 -152 28 -52 68 -127 89 -166 22 -39 39 -78 39 -85 0 -8
11 -31 25 -51 24 -36 48 -112 37 -122 -3 -3 -13 7 -23 23 -10 16 -31 37 -48
47 -17 10 -31 22 -31 27 0 5 -6 4 -14 -2 -13 -11 -13 -18 0 -53 8 -22 14 -55
14 -72 0 -18 4 -36 8 -41 11 -13 75 -172 72 -181 -1 -4 2 -10 7 -13 5 -3 17
-33 28 -66 10 -33 28 -81 41 -107 24 -48 32 -94 14 -83 -5 3 -10 -1 -10 -9 0
-9 3 -16 8 -16 11 0 28 -43 53 -135 22 -84 20 -117 -5 -82 -20 27 -25 20 -13
-18 6 -19 17 -35 24 -35 8 0 12 -4 9 -8 -3 -5 6 -30 19 -56 23 -45 30 -78 41
-191 3 -27 12 -67 19 -87 15 -39 23 -102 30 -244 4 -98 12 -142 35 -214 10
-30 21 -98 23 -150 3 -52 8 -131 12 -175 3 -44 7 -112 10 -152 2 -40 6 -77 10
-83 3 -5 1 -10 -5 -10 -7 0 -8 -6 -2 -17 4 -10 7 -70 5 -133 -2 -63 -4 -144
-4 -180 -2 -76 -13 -107 -34 -90 -22 18 -44 98 -50 180 -7 82 -14 154 -19 185
-2 11 -4 30 -5 43 0 12 -5 22 -10 22 -14 0 0 -377 14 -400 3 -5 8 -42 11 -82
6 -98 13 -126 24 -108 5 8 6 18 4 22 -3 4 -1 8 4 8 14 0 16 -227 2 -235 -6 -3
-9 -9 -6 -13 2 -4 7 -34 11 -67 3 -33 9 -75 11 -94 3 -19 7 -53 9 -75 2 -23 6
-57 9 -76 9 -66 10 -119 3 -126 -4 -4 -2 -13 5 -21 6 -8 12 -40 14 -73 1 -32
5 -64 9 -69 6 -10 -8 -16 -29 -12 -5 1 -6 -13 -2 -31 19 -89 19 -94 -8 -123
-22 -23 -24 -30 -14 -49 7 -11 13 -25 14 -31 1 -5 4 -24 7 -42 3 -17 9 -37 13
-44 4 -7 9 -31 10 -53 1 -23 3 -43 4 -46 1 -3 2 -9 1 -14 -1 -6 -4 -48 -7 -95
-3 -48 -7 -97 -10 -111 -6 -23 -6 -72 -3 -240 3 -199 -11 -320 -53 -445 -11
-33 -22 -68 -23 -77 -2 -10 -15 -33 -29 -51 -28 -36 -33 -62 -14 -73 8 -5 7
-10 -3 -18 -22 -16 -59 -191 -58 -271 1 -76 -8 -108 -39 -141 -12 -12 -24 -39
-28 -60 -11 -52 -11 -54 -14 -56 -1 -2 -4 -12 -5 -23 -5 -39 -25 -75 -60 -109
-19 -19 -35 -37 -35 -41 0 -4 -15 -28 -33 -54 -19 -25 -63 -102 -99 -171 -82
-158 -233 -396 -265 -418 -14 -9 -38 -29 -54 -43 -17 -15 -44 -32 -62 -39 -18
-6 -54 -20 -82 -31 -70 -26 -143 -47 -190 -52 -22 -3 -69 -16 -105 -30 -198
-75 -212 -78 -364 -77 -77 1 -157 3 -176 5 -32 3 -98 8 -250 20 -75 6 -103 12
-193 41 -142 45 -351 161 -352 194 -1 30 -26 59 -65 76 -22 10 -40 23 -40 29
0 7 -11 25 -25 41 -14 16 -25 34 -25 40 0 7 -9 14 -21 17 -12 3 -18 10 -14 16
3 6 2 11 -4 11 -5 0 -11 -5 -13 -12 -3 -7 -12 -4 -27 11 -16 16 -21 30 -17 47
5 17 2 24 -8 24 -13 0 -61 43 -197 177 -26 26 -51 43 -58 39 -6 -4 -11 -3 -11
2 0 5 -10 20 -22 34 -39 42 -72 84 -85 104 -46 73 -72 123 -76 149 -3 17 -15
52 -27 79 -12 26 -24 66 -27 88 -2 22 -8 50 -13 63 -6 16 -6 27 1 31 6 3 6 10
1 17 -10 12 -52 126 -57 156 -2 9 -4 16 -5 16 -2 0 -4 9 -15 55 -3 14 -8 52
-10 85 -3 33 -7 78 -10 100 l-6 40 24 -50 c13 -27 28 -61 34 -75 11 -24 12
-23 12 15 1 22 -8 68 -18 103 -11 34 -17 62 -15 62 3 0 0 9 -6 19 -7 13 -7 22
0 26 5 3 10 -1 10 -9 0 -9 4 -16 9 -16 9 0 6 25 -6 60 -4 12 -7 11 -13 -5 l-8
-20 -7 20 c-17 50 -28 69 -32 57 -3 -7 0 -19 6 -26 16 -19 4 -25 -25 -12 -27
12 -32 26 -38 101 -2 28 -7 69 -11 93 -5 25 -4 42 2 42 5 0 10 -6 11 -12 4
-41 30 -121 36 -108 11 29 -6 140 -36 222 -22 61 -43 81 -27 26 11 -40 11 -38
0 -38 -10 0 -15 13 -26 67 -5 27 -4 32 9 27 21 -8 20 0 -4 77 -12 35 -23 98
-26 139 -3 41 -7 89 -8 105 -1 17 2 45 7 64 16 61 17 75 6 115 -11 42 -14 127
-5 161 3 11 10 35 15 54 10 31 7 85 -5 121 -16 47 -24 343 -8 327 3 -3 8 -34
10 -69 5 -85 12 -137 20 -150 4 -6 6 -52 6 -102 -1 -50 3 -116 8 -146 19 -108
26 -173 29 -249 1 -19 4 -31 8 -28 7 8 6 153 -2 227 -15 152 -21 392 -11 515
1 22 -1 45 -4 50 -13 18 -19 59 -21 143 -1 60 -6 88 -17 99 -13 12 -16 47 -17
187 -1 102 3 174 9 178 17 11 18 37 16 253 -3 283 -4 313 -14 322 -5 5 -6 2
-1 -6 5 -9 3 -12 -6 -9 -11 4 -14 32 -13 134 2 184 8 237 42 339 17 50 35 115
40 145 17 92 42 140 56 105 8 -21 22 -19 60 10 18 14 37 25 43 25 15 0 53 35
53 49 0 7 9 29 20 50 10 21 17 40 15 42 -3 4 -11 45 -14 74 -1 6 -11 -1 -22
-15 l-21 -25 6 27 c3 14 2 37 -3 50 -8 20 -10 21 -16 6 -4 -10 -5 -42 -3 -73
4 -76 -8 -70 -15 8 -7 72 -11 92 -25 128 -6 15 -8 30 -5 33 4 3 2 6 -3 6 -17
0 -5 92 16 133 12 22 23 58 27 81 3 22 9 46 14 52 5 6 7 13 5 15 -2 2 -7 21
-10 42 -5 34 -3 38 21 48 19 7 28 6 34 -2 6 -10 11 -10 22 -1 22 19 2 81 -24
75 -15 -4 -19 0 -19 21 0 14 4 26 8 26 5 0 8 21 7 48 -1 26 4 59 12 75 8 15
13 33 12 40 -1 6 -1 21 0 32 1 18 3 17 18 -5 10 -14 19 -32 20 -40 9 -58 14
-116 19 -190 5 -89 19 -146 40 -167 10 -10 14 -4 20 30 4 23 8 65 9 92 4 84
21 280 25 280 0 0 3 18 4 40 7 80 22 200 26 200 1 0 3 20 6 45 8 71 11 93 17
120 4 14 9 36 11 50 2 14 9 45 16 70 7 25 14 53 16 62 23 104 39 139 77 172
18 16 48 34 66 40 25 8 36 20 45 47 7 20 22 47 34 60 12 12 22 26 22 31 0 5
28 37 63 73 51 52 66 62 76 52 7 -6 11 -7 9 -1 -2 5 16 32 40 59 30 34 51 50
70 51 15 1 42 16 61 33 18 17 37 29 41 26 5 -3 11 -1 15 4 4 7 15 6 33 -1 30
-12 87 -12 105 -1 7 4 20 9 30 10 10 2 28 9 40 16 12 8 41 20 65 27 24 8 48
23 54 34 17 32 23 34 119 31 72 -1 89 1 85 12 -6 15 24 37 73 54 30 11 36 10
48 -7 8 -10 16 -18 18 -16 19 10 25 -2 9 -19 -37 -41 -98 -77 -119 -69 -28 10
-55 1 -48 -16 14 -37 112 3 182 75 28 28 55 51 61 51 5 0 10 5 10 11 0 23 43
70 90 96 40 22 47 30 39 44 -7 13 3 41 35 106 25 48 46 94 48 101 2 8 26 38
54 68 44 47 69 94 80 151 5 26 65 140 85 161 11 13 22 36 24 53 5 33 13 47 69
105 25 26 40 51 41 70 1 16 9 63 17 104 9 41 16 82 16 90 0 41 11 83 23 91 11
7 2 20 -39 56 -32 30 -52 56 -52 69 0 12 -7 27 -16 35 -17 14 -46 65 -42 75 6
13 -123 81 -165 87 -25 4 -60 15 -78 26 -53 31 -148 53 -186 42 -17 -5 -34 -7
-37 -4 -4 5 -119 9 -463 17 -78 2 -145 1 -148 -2z m-2285 -1973 c0 -11 -4 -18
-10 -14 -5 3 -7 12 -3 20 7 21 13 19 13 -6z m-38 -234 c-2 -19 -8 -35 -12 -35
-7 0 -5 22 6 58 7 23 10 12 6 -23z m1345 -665 c-1 -12 -5 -16 -10 -11 -5 5 -6
14 -3 20 11 16 15 13 13 -9z m2943 -34 c0 -5 -7 -3 -15 4 -8 7 -12 17 -9 22 7
10 24 -9 24 -26z m-2967 -70 c3 -8 0 -17 -8 -19 -11 -5 -13 6 -6 31 2 6 9 0
14 -12z m-96 -1051 c0 -19 -5 -35 -12 -35 -7 0 -9 13 -7 35 2 19 7 35 11 35 4
0 8 -16 8 -35z m-87 -18 c0 -6 -31 -67 -34 -67 -6 0 0 34 8 53 7 14 26 25 26
14z m3440 -1852 c0 -8 4 -15 10 -15 5 0 8 -10 6 -22 -1 -13 -6 -22 -9 -20 -4
1 -11 2 -17 2 -5 0 -10 16 -10 35 0 19 5 35 10 35 6 0 10 -7 10 -15z m-3600
-82 c-1 -28 -3 -34 -10 -22 -8 14 -3 59 6 59 2 0 4 -17 4 -37z m4485 -3123 c3
-5 1 -10 -4 -10 -6 0 -11 5 -11 10 0 6 2 10 4 10 3 0 8 -4 11 -10z m-1215
-1418 c0 -9 -40 -35 -58 -38 -7 -1 -2 8 10 22 22 23 48 32 48 16z"/>
<path d="M5217 9096 c-16 -7 -39 -32 -53 -55 -13 -24 -36 -53 -51 -64 -39 -31
-73 -63 -73 -70 0 -6 69 -1 105 8 11 3 40 32 63 65 24 33 49 60 55 60 5 0 7 3
4 7 -4 3 1 12 10 18 15 11 15 15 4 29 -16 19 -26 19 -64 2z m-7 -96 c0 -5 -4
-10 -9 -10 -6 0 -13 5 -16 10 -3 6 1 10 9 10 9 0 16 -4 16 -10z"/>
<path d="M6967 8841 c5 -19 43 -61 43 -47 0 4 -7 20 -15 36 -17 34 -36 40 -28
11z"/>
<path d="M7272 7673 c5 -21 12 -48 15 -60 3 -13 9 -23 14 -23 5 0 8 -3 8 -7
-4 -22 2 -43 12 -43 14 0 3 48 -27 116 -28 63 -36 69 -22 17z"/>
<path d="M7397 7543 c4 -16 7 -38 7 -50 1 -18 3 -20 14 -10 10 11 10 20 -3 50
-18 44 -26 48 -18 10z"/>
<path d="M7355 7543 c2 -10 4 -23 4 -29 1 -5 8 -19 15 -30 13 -17 14 -14 3 23
-13 43 -28 69 -22 36z"/>
<path d="M4398 7483 c-5 -22 13 -73 25 -73 13 0 3 83 -10 87 -6 2 -13 -4 -15
-14z"/>
<path d="M7330 7460 c0 -5 5 -10 11 -10 5 0 7 5 4 10 -3 6 -8 10 -11 10 -2 0
-4 -4 -4 -10z"/>
<path d="M7386 7445 c-3 -8 -1 -15 4 -15 6 0 10 7 10 15 0 8 -2 15 -4 15 -2 0
-6 -7 -10 -15z"/>
<path d="M4385 7308 c10 -59 17 -67 30 -34 16 39 8 76 -17 76 -18 0 -19 -4
-13 -42z"/>
<path d="M4404 7084 c4 -15 10 -39 13 -55 6 -32 19 -39 21 -11 7 71 1 92 -25
92 -11 0 -14 -6 -9 -26z"/>
<path d="M4435 6902 c-6 -4 -10 -18 -10 -32 0 -32 29 -34 33 -1 4 26 -8 44
-23 33z"/>
<path d="M4084 6289 c-11 -14 -11 -45 0 -57 11 -11 17 6 14 39 -2 26 -5 30
-14 18z"/>
<path d="M7586 4314 c-9 -22 3 -32 14 -14 12 19 12 30 1 30 -5 0 -12 -7 -15
-16z"/>
<path d="M7555 3539 c-4 -6 -5 -12 -2 -15 2 -3 7 2 10 11 7 17 1 20 -8 4z"/>
<path d="M7576 3319 c-9 -45 -8 -49 9 -49 15 0 18 5 18 35 0 54 -17 63 -27 14z"/>
<path d="M4405 2783 c2 -10 4 -21 4 -25 1 -5 5 -8 10 -8 10 0 3 38 -9 45 -5 3
-7 -3 -5 -12z"/>
<path d="M4469 2770 c-1 -8 0 -19 1 -25 1 -5 2 -18 3 -28 1 -9 6 -16 12 -14 5
2 9 17 7 33 -4 32 -21 57 -23 34z"/>
<path d="M8885 2070 c3 -5 8 -10 11 -10 2 0 4 5 4 10 0 6 -5 10 -11 10 -5 0
-7 -4 -4 -10z"/>
<path d="M8819 1925 c-27 -60 -18 -82 10 -27 12 23 19 47 16 51 -3 5 1 12 7
14 10 4 10 6 0 6 -7 1 -22 -19 -33 -44z"/>
</g>
</svg>
