<?xml version="1.0" encoding="utf-8"?>
<!-- Generator: Adobe Illustrator 23.0.4, SVG Export Plug-In . SVG Version: 6.00 Build 0)  -->
<svg version="1.1" id="Ebene_1" xmlns="http://www.w3.org/2000/svg" xmlns:xlink="http://www.w3.org/1999/xlink" x="0px" y="0px"
	 viewBox="0 0 283.46 75.3" style="enable-background:new 0 0 283.46 75.3;" xml:space="preserve">
<style type="text/css">
	.st0{fill:#97A922;}
</style>
<g>
	<path class="st0" d="M92.66,64.72c0.19-0.06,0.13-0.11-0.14-0.06c-0.07,0.01-0.15-0.01-0.24-0.03c-0.53,0-1.05,0.07-1.55,0.01
		c-0.3-0.04-0.53-0.35-0.83-0.39c-0.41-0.05-0.86,0.07-1.29,0.07c-0.78,0-1.56,0.01-2.34-0.05c-2.41-0.22-4.82-0.43-7.21-0.71
		c-5.41-0.62-10.84-0.94-16.31-0.87c-0.43,0.01-0.87,0.01-1.3,0c-2.51-0.1-5.01-0.2-7.52-0.32c-0.43-0.02-0.85-0.13-1.27-0.18
		c-1.11-0.15-2.21-0.32-3.32-0.43c-0.77-0.08-1.56-0.07-2.34-0.09c-0.45-0.01-0.85-0.12-1.2-0.33c0,0-0.03-0.01-0.03-0.01
		c0.05-0.05,0.16-0.1,0.16-0.15c-0.01-0.11-0.04-0.32-0.1-0.33c-1.25-0.18-2.54-0.17-3.77-0.48c-1.05-0.26-2.11-0.49-3.18-0.71
		c-1.08-0.22-2.13-0.46-3.05-0.97L36,58.77c0,0-0.09-0.05-0.1-0.05c-0.42,0.07-0.84,0.23-1.25,0.22c-0.6-0.01-1.21-0.09-1.8-0.21
		c-1.59-0.32-3.18-0.66-4.84-0.72c-0.42-0.01-0.84-0.15-1.26-0.24c-1.26-0.28-2.43-0.71-3.59-1.17c-0.43-0.17-0.61-0.43-0.69-0.78
		c-0.08-0.35-0.34-0.6-0.82-0.68c-1.04-0.19-1.86-0.68-2.75-1.09c-0.51-0.24-0.57-0.64-0.87-0.95c-0.15-0.14-0.44-0.2-0.64-0.32
		c-0.36-0.2-0.42-0.31-0.2-0.66c0.15-0.24,0.18-0.46,0.21-0.72c0.04-0.28,0.44-0.54,0.68-0.81c0.31-0.36-0.03-1-0.55-1.05
		c-0.51-0.05-1.02-0.09-1.53-0.16c-0.34-0.05-0.46-0.39-0.23-0.62c0.49-0.48,0.48-0.66-0.21-0.76c-0.75-0.11-0.98-0.46-1.12-0.93
		c-0.04-0.13,0.02-0.27-0.03-0.39c-0.08-0.18-0.18-0.39-0.36-0.49c-0.39-0.23-0.49-0.5-0.43-0.86c0.03-0.19,0.01-0.4-0.05-0.59
		c-0.03-0.1-0.17-0.2-0.29-0.28c-0.19-0.12-0.47-0.18-0.59-0.33c-0.12-0.16-0.08-0.38-0.14-0.57c-0.06-0.19-0.19-0.38-0.21-0.57
		c-0.03-0.25,0.07-0.51,0.03-0.76c-0.03-0.18-0.27-0.36-0.25-0.53c0.01-0.17,0.2-0.35,0.37-0.48c0.22-0.16,0.32-0.32,0.11-0.48
		c-0.3-0.23-0.66-0.43-0.99-0.64c-0.22-0.14-0.33-0.3-0.26-0.52c0.15-0.44,0.31-0.88,0.47-1.32c0.85-0.46-0.43-0.73-0.17-1.14
		c0.07-0.12,0.09-0.25,0.13-0.38c0,0-0.02-0.02-0.02-0.02c0.23-0.07,0.5-0.11,0.67-0.23c0.32-0.23,0.29-0.52-0.02-0.66
		c-0.3-0.13-0.67-0.21-0.89-0.39c-0.43-0.35-0.72-0.77-0.26-1.24c0.18-0.18,0.18-0.34,0.04-0.53c-0.15-0.2-0.05-0.38,0.14-0.52
		c0.25-0.18,0.53-0.34,0.79-0.51c0.57-0.39,0.79-0.86,0.47-1.41c-0.16-0.27-0.2-0.51,0.11-0.7c0.42-0.25,0.81-0.5,1.01-0.89
		c0.31-0.62,1.12-1.02,1.2-1.73c0.04-0.35,0.35-0.61,0.69-0.81c0.4-0.25,0.82-0.5,1.28-0.66c0.97-0.32,1.88-0.66,2.56-1.31
		c0.26-0.25,0.68-0.4,1.05-0.57c0.53-0.24,1.01-0.5,1.33-0.92c0.27-0.35,0.72-0.56,1.21-0.73c2.79-0.95,5.72-1.54,8.69-2.05
		c0.25-0.04,0.52-0.05,0.78-0.06c3.12-0.21,6.23-0.41,9.35-0.62c0.69-0.05,1.39-0.08,2.08-0.14c5.79-0.49,11.6-0.8,17.42-0.86
		c1.39-0.01,2.76-0.14,4.15-0.1c3.65,0.12,7.3,0.15,10.95,0.16c7.3,0.02,14.6-0.02,21.9,0.23c1.13,0.04,2.26,0.05,3.39,0.09
		c1.91,0.07,3.82,0.14,5.73,0.21c0.95,0.03,1.91,0.05,2.87,0.07c5.39,0.13,10.77,0.27,16.16,0.38c5.56,0.12,11.12,0.21,16.68,0.31
		c0.09,0,0.17,0.01,0.26,0.01c2.43,0.06,4.86,0.13,7.3,0.17c1.91,0.03,3.82,0.03,5.73,0.06c0.61,0.01,1.23,0.01,1.81,0.12
		c0.95,0.17,1.9,0.13,2.85,0.12c2.09-0.02,4.17-0.05,6.26-0.01c1.21,0.02,2.41,0.07,3.63-0.03c1.37-0.11,2.77,0,4.16,0.02
		c1.13,0.02,2.26,0.09,3.38,0.09c6.61-0.01,13.21-0.03,19.82-0.07c2.78-0.02,5.56-0.04,8.34-0.16c2.87-0.12,5.73-0.12,8.6-0.1
		c0.24,0,0.33,0.1,0.23,0.18c-0.05,0.05-0.14,0.09-0.22,0.09c-1.3,0.09-2.61,0.1-3.88,0.37c1.39,0.05,2.78,0.03,4.17,0.01
		c5.39-0.08,10.77-0.19,16.16-0.24c3.91-0.04,7.81,0.06,11.69,0.59c1.78,0.24,3.56,0.61,5.4,0.58c0.07,0,0.14,0.07,0.2,0.11
		c0.01,0.01-0.05,0.09-0.08,0.09c-1.21,0.07-2.43,0.23-3.63,0.18c-2.79-0.12-5.55,0.01-8.36,0.23c0.42,0.23,0.85,0.15,1.25,0.17
		c3.38,0.17,6.77,0.3,10.13,0.65c0.85,0.09,1.71,0.08,2.4,0.62c0.25,0.2,0.81,0.21,1.23,0.24c0.78,0.05,1.56,0.05,2.34,0.08
		c0.07,0,0.14,0.06,0.21,0.08c0.33,0.09,0.36,0.12,0.01,0.14c-0.76,0.05-1.56,0-2.29,0.15c-0.86,0.17-1.7,0.22-2.57,0.25
		c-1.3,0.06-2.6,0.15-3.89,0.25c-0.08,0.01-0.2,0.2-0.19,0.31c0.01,0.54,0.11,0.65,0.56,0.77c1,0.27,2.03,0.31,3.08,0.29
		c1.04-0.02,2.08,0,3.12,0.03c0.71,0.02,1.37,0.13,1.75,0.69c0.16,0.24,0.53,0.33,0.89,0.36c0.52,0.05,1.04,0.07,1.56,0.11
		c0.43,0.04,0.87,0.06,1.28,0.16c0.42,0.1,0.94,0.06,1.38,0.4c-0.99,0.09-1.79,0.31-2.34,0.89c-0.19,0.2-0.26,0.41-0.09,0.53
		c0.12,0.09,0.25,0.22,0.39,0.23c0.6,0.05,1.2,0.14,1.8-0.03c0.75-0.21,1.51-0.22,2.31-0.1c0.59,0.09,1.21,0.11,1.81,0.07
		c0.65-0.04,0.93,0.18,1.14,0.6c0.1,0.19,0.45,0.19,0.68,0.1c0.22-0.09,0.4-0.24,0.59-0.37l-0.04,0.05c0.76,0.52,1.57,0.88,2.67,0.9
		c1,0.02,2,0.25,2.99,0.4c0.27,0.04,0.37,0.23,0.43,0.42l0.02-0.05c-0.49,0.04-0.98,0.06-1.47,0.12c-0.57,0.07-1.13,0.19-1.54,0.54
		l-0.01-0.06c-0.51-0.06-1.02-0.19-1.47,0.14c-0.26,0.19-0.57,0.32-0.93,0.29c-0.78-0.07-1.54,0.21-2.33,0.03
		c-0.32-0.07-0.71-0.08-1.03-0.02c-0.51,0.11-0.96,0.19-1.51,0.09c-0.57-0.11-1.17,0-1.78-0.09c-0.75-0.11-1.55-0.04-2.32,0.01
		c-0.94,0.06-1.88,0.19-2.82,0.3c-0.07,0.01-0.13,0.07-0.18,0.12c-0.09,0.1-0.01,0.2,0.23,0.2c1.04,0.01,2.08,0.03,3.12,0
		c1.56-0.04,3.11,0.01,4.67-0.08c1.28-0.07,2.61-0.05,3.89,0.02c1.45,0.09,2.91,0.24,4.36,0.39c0.08,0.01,0.17,0.03,0.24,0.07
		c0.92,0.45,1.98,0.45,3.01,0.51c2.42,0.14,4.84,0.28,7.26,0.42c0.14,0.01,0.27,0.09,0.4,0.15c0.11,0.05-0.28,0.37-0.51,0.4
		c-0.6,0.07-1.2,0.14-1.8,0.18c-0.62,0.04-1.19,0.14-1.59,0.55c-0.23,0.24-0.6,0.22-0.94,0.24c-1.47,0.07-2.94,0.1-4.41,0.21
		c-1.29,0.1-2.57,0.28-3.85,0.44c-0.23,0.03-0.51,0.14-0.63,0.28c-0.27,0.33-0.63,0.42-1.09,0.37c-0.88-0.09-1.5,0.2-1.98,0.74
		c-0.1,0.11-0.19,0.22-0.29,0.33c-0.06,0-0.16-0.01-0.16-0.01c-0.01-0.11,0.03-0.1,0.11,0.05c0.23-0.21,0.53-0.32,0.89-0.33
		c1.3-0.06,2.58,0.05,3.82,0.35l-0.03,0.02c0.24,0.44,0.53,0.83,1.23,0.92c0.42,0.05,0.84,0.14,1.25,0.26
		c0.12,0.03,0.16,0.2,0.24,0.31c-0.08,0.03-0.15,0.07-0.23,0.08c-1.28,0.13-2.56,0.37-3.84,0.37c-1.37,0-2.52,0.37-3.69,0.8
		c-0.06,0.02-0.12,0.13-0.11,0.14c0.11,0.09,0.23,0.23,0.36,0.24c0.94,0.11,1.89,0.21,2.84,0.28c0.26,0.02,0.35,0.02,0.23,0.17
		c-0.43,0.05-0.86,0.09-1.29,0.15c-0.48,0.06-0.68,0.21-0.45,0.31c0.14,0.07,0.32,0.09,0.48,0.13c0.08,0.02,0.19,0.02,0.24,0.06
		c0.14,0.11,0.09,0.2-0.13,0.23c-1.02,0.16-2.04,0.3-3.06,0.47c-0.85,0.14-1.69,0.24-2.57,0.2c-2.09-0.08-2.17-0.04-5.01,0.59
		c1.86,0.08,3.68,0.09,5.5,0.01c2.85-0.12,5.71-0.23,8.56,0.14c1.7,0.22,3.44,0.27,5.16,0.3c0.33,0.01,0.54,0.28,0.37,0.58
		c-0.09,0.15-0.19,0.23,0.01,0.3c0.15,0.05,0.33,0.08,0.49,0.12c0.33,0.08,0.64,0.17,0.81,0.44c0.12,0.19-0.02,0.27-0.75,0.39
		c-0.59,0.1-1.22,0.11-1.73,0.4c-0.06,0.03-0.11,0.11-0.12,0.17c-0.01,0.03,0.08,0.1,0.13,0.1c0.69,0.04,1.38,0.06,2.07,0.11
		c0.09,0.01,0.19,0.16,0.24,0.25c0.02,0.03-0.06,0.12-0.13,0.16c-0.14,0.08-0.29,0.17-0.45,0.2c-2.43,0.46-4.79,1.16-7.31,1.37
		c-1.29,0.11-2.56,0.35-3.85,0.5c-1.8,0.21-3.6,0.44-5.42,0.58c-1.05,0.08-2.04,0.2-3.01,0.54c-0.78,0.27-1.63,0.51-2.52,0.44
		c-1.23-0.11-2.41-0.03-3.59,0.26c-0.49,0.12-1.04,0.07-1.55,0.11c-0.34,0.03-0.69,0.08-1.01,0.16c-0.14,0.04-0.29,0.18-0.31,0.29
		c-0.02,0.1,0.13,0.22,0.22,0.32c0.04,0.05,0.17,0.12,0.16,0.14c-0.2,0.27-0.47,0.56,0.29,0.53c0.61-0.02,1.22,0.01,1.82-0.05
		c3.01-0.32,6.07-0.24,9.08-0.57c0.36-0.04,0.71,0.06,0.93,0.28c0.52,0.53,1.21,0.72,2.05,0.68c0.43-0.02,0.87-0.03,1.3-0.04
		c0.23-0.01,0.35,0.06,0.31,0.2c-0.01,0.05-0.07,0.13-0.12,0.14c-0.47,0.09-0.63,0.41-0.91,0.65c-0.28,0.24-0.67,0.41-0.99,0.63
		c-0.05,0.03-0.05,0.13-0.03,0.18c0.02,0.04,0.12,0.07,0.19,0.07c0.6,0.03,1.21,0.05,1.81,0.08c0.63,0.6,1.61,0.42,2.42,0.59
		c0.73,0.15,1.54,0.1,2.32,0.14c0.08,0,0.17,0.04,0.22,0.09c0.09,0.08,0.01,0.18-0.21,0.21c-1.28,0.19-2.56,0.4-3.85,0.54
		c-0.96,0.11-1.91,0.3-2.7,0.69c-1.42,0.7-3,1.01-4.6,1.28c-2.12,0.35-4.12,1.03-6.22,1.43c-0.25,0.05-0.5,0.13-0.71,0.24
		c-1.11,0.58-2.4,0.76-3.67,0.96c-4.01,0.61-8.02,1.19-12.03,1.78c-5.63,0.83-11.3,1.48-16.97,2.15c-1.04,0.12-2.06,0.23-2.99,0.64
		c-0.46,0.2-0.99,0.27-1.5,0.06c-0.57-0.23-1.18-0.22-1.78-0.17c-1.21,0.08-2.42,0.17-3.63,0.28c-1.64,0.15-3.27,0.32-4.93,0.25
		c-1.04-0.04-2.08,0.04-3.11,0.21c-0.41,0.07-0.87,0.08-1.29,0.03c-1.91-0.21-3.82-0.1-5.73-0.04c-0.69,0.02-1.39,0.05-2.08,0.05
		c-1.65-0.01-3.3-0.08-4.95-0.05c-4.61,0.08-9.21,0.02-13.82-0.09c-2-0.05-3.99-0.19-5.98-0.3c-0.61-0.03-1.21-0.07-1.82-0.1
		c-2.95-0.13-5.9-0.23-8.85-0.4c-4.33-0.25-8.66-0.55-13-0.81c-1.39-0.08-2.78-0.14-4.17-0.15c-1.48-0.01-2.95,0.02-4.4,0.3
		c-0.83,0.16-1.72,0.17-2.59,0.21c-2.86,0.13-5.73,0.12-8.6,0.13c-2.61,0.01-5.21,0.06-7.82-0.02c-1.13-0.04-2.26-0.08-3.37-0.21
		c-1.73-0.2-3.44-0.31-5.18-0.08c-0.23,0.03-0.49-0.05-0.73-0.08c-0.07-0.66-0.74-0.39-1.17-0.4c-0.51-0.02-1.03,0.08-1.55,0.12
		c-0.35,0.03-0.69,0.04-1.04,0.07c-0.47,0.05-0.59-0.15-0.6-0.45c-0.25-0.03-0.53-0.11-0.76-0.07c-2.27,0.47-4.49,0.06-6.7-0.27
		c-0.33-0.05-0.62-0.23-0.93-0.34C92.37,64.65,92.55,64.75,92.66,64.72z M24.47,55.86c-0.14-0.01-0.32,0.02-0.43,0.08
		c-0.11,0.06-0.01,0.17,0.21,0.19c0.24,0.02,0.48,0.03,0.73,0.04c0.02,0.24,0.24,0.29,0.5,0.31c0.2,0.01,0.33-0.04,0.36-0.19
		c0-0.03-0.13-0.09-0.2-0.09c-0.24-0.01-0.48,0.01-0.72,0.01C24.91,55.99,24.73,55.88,24.47,55.86z M261.28,30.84
		c-0.08,0.01-0.16,0.05-0.2,0.1c-0.03,0.03,0,0.12,0.05,0.14c0.39,0.26,0.86,0.36,1.36,0.32c0.11-0.01,0.21-0.13,0.28-0.22
		c0.02-0.03-0.05-0.13-0.1-0.15c-0.28-0.11-0.58-0.2-0.76-0.26C261.6,30.8,261.44,30.82,261.28,30.84z M257.53,38.84
		c-0.24,0-0.5,0.05-0.72,0.14c-0.11,0.04-0.14,0.21-0.18,0.32c-0.01,0.03,0.11,0.1,0.18,0.12c0.33,0.07,0.67,0.15,0.97-0.03
		c0.11-0.06,0.1-0.23,0.15-0.35C257.8,38.96,257.66,38.83,257.53,38.84z M16.4,32.53c-0.24-0.03-0.48-0.07-0.72-0.05
		c-0.14,0.01-0.27,0.13-0.4,0.2c0.15,0.05,0.3,0.15,0.44,0.15c0.24,0,0.47-0.07,0.7-0.1C16.41,32.63,16.42,32.54,16.4,32.53z
		 M267.84,39.75c-0.17-0.09-0.35-0.08-0.36,0.04c0,0.09,0.15,0.21,0.28,0.26c0.12,0.05,0.3,0.02,0.45,0.01
		c0.01,0,0.02-0.08,0.03-0.13C268.1,39.88,267.97,39.82,267.84,39.75z M257.63,53.99c-0.15-0.01-0.31-0.01-0.46,0.01
		c-0.06,0.01-0.12,0.07-0.17,0.11c0.22,0,0.45,0,0.67,0C257.65,54.07,257.64,53.99,257.63,53.99z M243.79,26.56l-0.05-0.13
		l-0.16,0.1L243.79,26.56z"/>
	<path class="st0" d="M255.72,27.28c-0.21-0.29-0.8-0.33-1-0.06c-0.06,0.08-0.06,0.24,0,0.33c0.14,0.21,0.5,0.23,0.85,0.05
		C255.67,27.54,255.67,27.38,255.72,27.28z"/>
	<path class="st0" d="M87.94,69.22c-0.38,0-0.58,0.18-0.73,0.44c-0.09,0.16-0.07,0.25,0.15,0.32c0.61,0.2,1.08,0.03,1.1-0.43
		C88.46,69.35,88.22,69.18,87.94,69.22z"/>
	<path class="st0" d="M283.95,48.04c-0.39,0-0.66,0.12-0.54,0.18c0.13,0.07,0.31,0.09,0.47,0.09c0.22,0,0.33-0.08,0.28-0.19
		C284.14,48.08,284.02,48.07,283.95,48.04z"/>
	<path class="st0" d="M13.24,27c-0.12-0.17-0.2-0.36-0.36-0.52c-0.09-0.09-0.28-0.12-0.43-0.16c-0.04-0.01-0.14,0.06-0.17,0.11
		c-0.09,0.18,0.03,0.44,0.26,0.48c0.25,0.04,0.51,0.02,0.77,0.03L13.24,27z"/>
	<path class="st0" d="M14.93,25.51c-0.17,0.08-0.23,0.2-0.11,0.32c0.09,0.08,0.28,0.18,0.39,0.16c0.19-0.03,0.19-0.17,0.11-0.31
		C15.23,25.54,15.12,25.48,14.93,25.51z"/>
	<path class="st0" d="M13.31,26.95c0.2,0.19,0.38,0.4,0.61,0.56c0.16,0.11,0.34,0.06,0.36-0.09c0.01-0.11-0.01-0.27-0.1-0.33
		c-0.27-0.17-0.6-0.18-0.94-0.09C13.24,27,13.31,26.95,13.31,26.95z"/>
	<path class="st0" d="M45.77,61.31c-0.16,0.01-0.32,0.03-0.48,0.02c-0.34-0.03,0.07-0.22-0.22-0.08c0.08,0.02,0.15,0.05,0.23,0.06
		c0.16,0.01,0.33,0.01,0.5,0.01C45.8,61.32,45.77,61.31,45.77,61.31z"/>
	<path class="st0" d="M272.99,39.19c0.01,0,0-0.12-0.02-0.13c-0.13-0.03-0.29-0.07-0.4-0.04c-0.2,0.07-0.18,0.19,0.03,0.23
		C272.71,39.28,272.86,39.23,272.99,39.19z"/>
	<path class="st0" d="M268.86,53.84c-0.04,0.04-0.08,0.08-0.11,0.12c0.07,0.03,0.14,0.08,0.2,0.07c0.22-0.01,0.28-0.09,0.14-0.19
		C269.05,53.81,268.94,53.84,268.86,53.84z"/>
	<path class="st0" d="M11.8,36.71c-0.08,0.01-0.15,0.02-0.23,0.03c0.31-0.13,0.25,0.26,0.25-0.01C11.83,36.73,11.8,36.71,11.8,36.71
		z"/>
	<polygon class="st0" points="89.25,66.47 89.1,66.46 89.17,66.62 	"/>
	<path class="st0" d="M89.79,69.78c-0.06-0.01-0.14-0.05-0.19-0.04c-0.19,0.05-0.21,0.14-0.03,0.2c0.05,0.02,0.14-0.01,0.19-0.04
		C89.8,69.88,89.79,69.82,89.79,69.78z"/>
	<path class="st0" d="M269.1,39.32c0.13,0.01,0.25,0.02,0.38,0.03c-0.05,0.01-0.11,0.02-0.15,0.01c-0.07-0.01-0.13-0.04-0.2-0.06
		C269.12,39.3,269.1,39.32,269.1,39.32z"/>
	<path class="st0" d="M271.77,32.34l0.08-0.08c0,0-0.1,0.11-0.1,0.12C271.75,32.39,271.77,32.34,271.77,32.34z"/>
	<polygon class="st0" points="268.75,32.95 268.78,33.1 268.76,33.01 	"/>
	<path class="st0" d="M265.66,30.67l-0.09,0.05c0,0,0.12-0.08,0.12-0.09C265.69,30.62,265.66,30.67,265.66,30.67z"/>
</g>
</svg>
