<?xml version="1.0" encoding="utf-8"?>
<!-- Generator: Adobe Illustrator 23.0.4, SVG Export Plug-In . SVG Version: 6.00 Build 0)  -->
<svg version="1.1" id="Ebene_1" xmlns="http://www.w3.org/2000/svg" xmlns:xlink="http://www.w3.org/1999/xlink" x="0px" y="0px"
	 viewBox="0 0 283.46 100.24" style="enable-background:new 0 0 283.46 100.24;" xml:space="preserve">
<style type="text/css">
	.st0{fill:#97A922;}
</style>
<g>
	<path class="st0" d="M267.34,34.94c-0.06,0.21,0.03,0.34,0.25,0.36c0.17,0.01,0.33-0.01,0.5-0.02c0,0-0.07,0.04-0.07,0.04
		c-0.06,0.28-0.11,0.56-0.17,0.85l0.02,0.02c-0.8-0.22-1.61-0.43-2.4-0.68c-1-0.3-2-0.36-3.03-0.19l0.09,0.07
		c-0.76-0.65-1.63-0.58-2.52-0.41l0.06-0.18c0,0-0.12,0.09-0.13,0.09c0.05,0.17,0.11,0.34,0.17,0.51l0.05-0.08
		c-0.4,0.38-0.4,0.38,0.01,0.67l-0.1-0.07c0.7,0.61,1.61,0.45,2.42,0.65l-0.09-0.07c-0.11,0.3,0.01,0.84-0.58,0.7
		c-1-0.23-2.09-0.1-2.98-0.74c-1-0.71-2.14-0.63-3.27-0.56c-0.62-0.95-1.47-1.47-2.63-1.39c-0.07,0-0.16,0.11-0.19,0.19
		c-0.03,0.08-0.03,0.24,0.02,0.26c0.58,0.32,1.14,0.68,1.75,0.9c0.33,0.12,0.74-0.01,1.12-0.03c0.09,0.16,0.14,0.39,0.27,0.47
		c0.49,0.28,1.02,0.5,1.52,0.78c0.12,0.06,0.17,0.24,0.25,0.37c-0.08,0.05-0.15,0.13-0.24,0.14c-0.92,0.13-1.87,0.52-2.69-0.3
		c-0.47-0.03-0.95-0.02-1.41-0.1c-0.14-0.02-0.24-0.27-0.35-0.41c-0.19,0.01-0.38,0-0.56,0.02c-0.16,0.02-0.31,0.06-0.46,0.09
		c0.07,0.04,0.14,0.1,0.21,0.11c0.09,0.02,0.19,0.01,0.28-0.02c0.18-0.05,0.36-0.13,0.55-0.2c-0.15,0.23-0.32,0.46-0.47,0.71
		c-0.12,0.21-0.08,0.43,0.12,0.45c1.52,0.16,2.97,0.67,4.49,0.87c1.52,0.2,3,0.6,4.53,0.8c1.52,0.19,3.03,0.52,4.43,1.18
		c0.13,0.06,0.19,0.3,0.27,0.46l0.05-0.07c-0.98,0.18-1.88-0.28-2.84-0.29c-0.08,0-0.22,0.1-0.22,0.16
		c-0.02,0.17-0.04,0.41,0.05,0.52c0.18,0.2,0.43,0.38,0.69,0.49c0.88,0.37,1.78,0.7,2.67,1.06c0.06,0.03,0.14,0.21,0.11,0.25
		c-0.11,0.14-0.25,0.35-0.39,0.35c-0.67,0.03-1.34,0.01-2.01,0c-0.48,0-0.95-0.01-1.43,0.01c-0.08,0-0.2,0.07-0.24,0.14
		c-0.04,0.07-0.05,0.25,0,0.27c1.06,0.7,1.54,1.92,2.47,2.74c0.11,0.1,0.17,0.36,0.13,0.51c-0.11,0.5,0.18,0.67,0.56,0.82
		c0.71,0.28,1.55,0.12,2.19,0.63c0.58,0.46,1.26,0.39,1.92,0.44c0.07,0.01,0.17,0.09,0.21,0.16c0.08,0.15-0.04,0.29-0.29,0.27
		c-0.86-0.05-1.72-0.12-2.58-0.19c-0.35-0.04-0.7-0.09-1.05-0.12c-0.08-0.01-0.22,0-0.24,0.04c-0.1,0.22,0,0.33,0.26,0.29
		c0.35-0.06,0.7-0.14,1.06-0.22c0.1,0.26,0.18,0.54,0.27,0.8c0.16,0.47,0.12,0.6-0.2,0.62c-0.48,0.03-0.95,0.05-1.42,0.09
		c-0.07,0.01-0.16,0.13-0.17,0.22c-0.01,0.07,0.04,0.19,0.11,0.23c1.35,0.99,2.94,1.38,4.52,1.78c0.48,0.12,0.89,0.69,0.93,1.27
		c0.01,0.08-0.02,0.18-0.07,0.24c-0.05,0.07-0.14,0.13-0.22,0.16c-0.81,0.3-1.75,0.09-2.49,0.66c-0.86,0.01-1.73,0-2.59,0.03
		c-0.34,0.01-0.72-0.09-1.02,0.26c1,0.37,1.99,0.66,3.05,0.69c0.69,0.02,1.3,0.32,1.84,0.76c0.07,0.06,0.14,0.13,0.21,0.2
		c-0.15,0.1-0.29,0.21-0.45,0.29c-0.08,0.04-0.19,0.02-0.29,0.02c-0.38,0.02-0.81,0.02-0.97,0.44c-0.18,0.47,0.19,0.66,0.52,0.87
		c0.07,0.04,0.18,0.17,0.16,0.21c-0.29,0.61-0.03,0.83,0.56,0.87c0.09,0.01,0.19,0.03,0.28,0.07c0.07,0.03,0.16,0.11,0.16,0.17
		c0.01,0.06-0.09,0.18-0.14,0.18c-3.09-0.32-6.15,0.24-9.22,0.35c-0.19,0.01-0.22,0.1-0.07,0.21c0.15,0.1,0.31,0.19,0.47,0.27
		c0.77,0.39,1.75,0.22,2.38,0.92c0.1,0.11,0.13,0.39,0.06,0.51c-0.09,0.14-0.31,0.22-0.49,0.27c-0.23,0.07-0.35,0.19-0.31,0.42
		c0.02,0.07,0.13,0.16,0.21,0.18c1.49,0.46,3.03,0.49,4.57,0.59c0.72,0.04,1.39,0.3,1.76,0.86c0.37,0.57,0.84,0.73,1.43,0.81
		c1.53,0.21,3.05,0.41,4.58,0.64c0.14,0.02,0.25,0.19,0.46,0.35c-0.94,0.08-1.8,0.15-2.67,0.21c-0.83,0.06-1.66,0.12-2.81,0.2
		c1.05,0.57,1.97,0.4,2.73,0.77c0.28,0.13,0.43,0.32,0.36,0.67c-0.03,0.15,0.03,0.42,0.13,0.48c0.24,0.14,0.54,0.18,0.81,0.26
		c0.09,0.03,0.22,0.07,0.24,0.13c0.07,0.2-0.05,0.36-0.28,0.37c-0.67,0.02-1.34,0.01-2.01,0.04c-0.48,0.02-0.95,0.08-1.42,0.14
		c-0.07,0.01-0.17,0.1-0.2,0.17c-0.09,0.22-0.01,0.44,0.21,0.47c1.04,0.16,2.08,0.28,3.12,0.43c0.04,0.01,0.1,0.13,0.09,0.16
		c-0.04,0.08-0.12,0.18-0.2,0.19c-0.84,0.13-1.72,0.04-2.33,0.9c-0.25,0.35-0.81,0.51-1.26,0.65c-0.35,0.11-0.75,0.12-1.12,0.08
		c-0.28-0.03-0.53-0.22-0.81-0.29c-1.13-0.31-2.26-0.34-3.37,0.08c-0.03,0.01-0.03,0.21-0.01,0.21c0.27,0.09,0.54,0.16,0.82,0.24
		c0.09,0.03,0.2,0.03,0.27,0.09c0.16,0.14,0.11,0.28-0.07,0.43c-0.58,0.49-1.16,0.98-1.73,1.49c-0.06,0.05-0.06,0.19-0.05,0.27
		c0.02,0.08,0.08,0.2,0.15,0.22c0.83,0.28,1.7,0.25,2.56,0.25c1.73,0,3.47,0,5.2,0.05c0.36,0.01,0.72,0.23,1.06,0.38
		c0.06,0.03,0.12,0.17,0.11,0.25c-0.03,0.17-0.06,0.38-0.17,0.49c-0.13,0.12-0.34,0.19-0.52,0.21c-0.46,0.05-0.92,0.06-1.38,0.09
		c2.16,0.21,4.32,0.31,6.48,0.41c0.09,0,0.18,0.07,0.26,0.11c-0.11,0.11-0.2,0.31-0.33,0.33c-2.09,0.36-4.17,0.75-6.27,1.02
		c-2.67,0.35-5.36,0.61-8.04,0.91c-0.28,0.03-0.58,0.04-0.84,0.15c-0.13,0.05-0.21,0.29-0.27,0.45c-0.02,0.04,0.09,0.17,0.17,0.2
		c0.55,0.24,1.14,0.21,1.7,0.06c0.95-0.24,1.91-0.2,2.87-0.22c0.95-0.02,1.91-0.24,2.92-0.01c-0.14,0.12-0.21,0.23-0.29,0.24
		c-3.15,0.39-6.3,0.75-9.45,1.15c-1.14,0.15-2.28,0.29-3.31,0.94c-0.39,0.25-0.9,0.34-1.37,0.41c-1.34,0.18-2.67,0.37-4.02,0.46
		c-6.15,0.43-12.3,0.83-18.45,1.23c-0.48,0.03-0.96,0.03-1.44,0.03c-2.89-0.01-5.78-0.04-8.67-0.02c-3.46,0.03-6.93-0.04-10.38,0.46
		c-0.57,0.08-1.15,0.06-1.73,0.08c-7.23,0.18-14.45,0.08-21.68-0.09c-5.68-0.14-11.37-0.34-17.05-0.57
		c-6.26-0.25-12.51-0.59-18.77-0.83c-7.8-0.29-15.6-0.58-23.4-0.75c-4.91-0.1-9.83-0.02-14.74,0.05c-2.98,0.05-5.97,0.34-8.95,0.35
		c-8.29,0.03-16.56,0.61-24.85,0.75c-4.43,0.07-8.85,0.39-13.28,0.39c-5.2,0-10.4-0.32-15.6-0.44c-0.58-0.01-1.15-0.08-1.73-0.14
		c-3.07-0.31-6.11-0.77-9.15-1.32c-0.95-0.17-1.9-0.35-2.86-0.43c-3.22-0.27-6.2-1.31-9.06-2.75c-0.51-0.26-1.04-0.55-1.44-0.94
		c-1.18-1.13-2.39-2.25-3.42-3.52c-0.57-0.7-1.14-1.26-1.96-1.59c-0.86-0.34-1.43-0.95-1.57-1.92c-0.11-0.73-0.58-1.15-1.26-1.45
		c-0.53-0.23-0.52-0.32-0.4-0.88c0.04-0.18,0.23-0.36,0.19-0.51c-0.2-0.83-0.03-1.51,0.63-2.08c0.09-0.08,0.06-0.48,0-0.5
		c-1.08-0.44-1.56-1.33-1.95-2.35c-0.12-0.32-0.52-0.54-0.78-0.8c-0.27-0.27-0.54-0.55-0.82-0.81c-0.27-0.25-0.17-0.52-0.07-0.79
		c0.14-0.36,0.49-0.77,0.4-1.04c-0.26-0.78-0.09-1.5,0.04-2.25c0.09-0.51-0.14-0.83-0.61-1.15c-0.61-0.42-1.08-1.07-1.57-1.65
		c-0.19-0.22-0.09-0.5-0.02-0.8c0.19-0.74,0.32-1.5,0.38-2.26c0.03-0.36-0.07-0.82-0.29-1.08c-0.5-0.58-0.62-1.06-0.25-1.79
		c0.29-0.57,0.24-1.28-0.16-1.91c-0.52-0.81-0.43-1.68,0.03-2.47c0.76-1.31,0.98-2.67,0.68-4.15c-0.1-0.49-0.01-1.01,0.35-1.35
		c1.04-0.97,1.48-2.22,1.79-3.55c0.11-0.47,0.2-0.95,0.36-1.4c0.35-1.01,0.84-1.9,1.8-2.52c0.88-0.57,1.64-1.33,2.45-2.01
		c0.9-1.65,2.52-2.63,3.73-3.99c0.33-0.37,0.72-0.62,1.21-0.74c0.66-0.16,1.3-0.38,1.96-0.51c1.1-0.21,1.94-0.77,2.61-1.66
		c0.45-0.6,0.89-1.31,1.5-1.68c0.63-0.38,1.46-0.44,2.22-0.59c0.75-0.15,1.52-0.23,2.28-0.35c1.71-0.28,3.41-0.57,5.16-0.5
		c0.67,0.03,1.34-0.13,2.01-0.22c0.95-0.12,1.9-0.27,2.86-0.38c3.54-0.43,7.07-0.85,10.61-1.29c3.35-0.41,6.69-0.87,10.04-1.22
		c1.14-0.12,2.32,0.1,3.46,0c1.14-0.1,2.25-0.52,3.4-0.63c4.79-0.44,9.59-0.82,14.38-1.21c1.25-0.1,2.51-0.08,3.75-0.25
		c4.41-0.61,8.83-0.39,13.26-0.22c1.92,0.07,3.84-0.01,5.75,0.14c0.68,0.05,1.31-0.24,1.96-0.4c1.58-0.4,3.24-0.55,4.83-0.34
		c1.64,0.22,3.26,0.25,4.89,0.15c0,0-0.08,0.08-0.08,0.08c0.22-0.15,0.47-0.44,0.67-0.41c1.11,0.17,2.2,0.42,3.3,0.63
		c0.51,0.1,0.92-0.03,1.11-0.58c0.06-0.17,0.15-0.35,0.26-0.49c0.38-0.49,1.02-0.44,1.39,0.12c0.15,0.23,0.24,0.51,0.36,0.76
		c0,0-0.08-0.08-0.08-0.08c0.69,0.4,1.36,0.7,2.09,0.01c0.58-0.54,1.23-0.41,1.86-0.04c0.17,0.1,0.32,0.2,0.49,0.31
		c-0.4,0.03-0.8,0.06-1.2,0.09c-0.01,0.34-0.17,0.59-0.48,0.74c-0.93,0.03-1.86-0.13-2.76,0.18c-0.08,0.03-0.17,0.13-0.17,0.21
		c-0.01,0.07,0.08,0.18,0.15,0.21c0.62,0.26,1.28,0.28,1.89,0.03c0.31-0.13,0.54-0.46,0.81-0.7c0.29,0.05,0.57,0.1,0.86,0.15
		c0.09,0.41,0.34,0.72,0.74,0.79c0.56,0.1,1.14,0.19,1.71,0.15c2.39-0.17,4.77,0.22,7.16,0.01c1.32-0.12,2.67,0.14,4.01,0.19
		c0.26,0.01,0.53-0.13,0.8-0.21c0.18-0.06,0.18-0.18-0.02-0.27c-0.34-0.15-0.72-0.4-1.05-0.36c-1.16,0.15-2.28-0.01-3.42-0.17
		c-0.85-0.11-1.72-0.12-2.58-0.09c-1.34,0.06-2.64,0.09-3.99-0.14c-1.1-0.19-2.28,0.09-3.42,0.16c-0.08-0.3-0.15-0.61-0.23-0.92
		c0.37-0.03,0.74-0.06,1.13-0.08c0.41-0.58,0.88-1.08,1.65-0.71c0.73,0.35,1.46,0.33,2.22,0.29c0.57-0.03,1.13-0.02,1.66,0.28
		c1.02,0.58,1.96,0.43,2.92-0.24c0.58-0.41,1.27-0.32,1.9,0c0.25,0.13,0.47,0.31,0.71,0.47c-0.25-0.07-0.5-0.16-0.75-0.22
		c-0.08-0.02-0.21-0.02-0.25,0.02c-0.17,0.18-0.11,0.26,0.17,0.22c0.26-0.03,0.52-0.04,0.79-0.05c0.01,0.01-0.08,0.01-0.08,0.01
		c0.46,0.03,0.92,0.07,1.38,0.09c0.05,0,0.14-0.12,0.13-0.18c-0.01-0.06-0.12-0.15-0.17-0.15c-0.46,0.07-0.91,0.16-1.37,0.24
		c1.08-0.76,2.21-1.04,3.44-0.35c0.99,0.55,1.95,0.63,2.93-0.04c0.33-0.22,0.75-0.23,1.06,0.02c0.65,0.52,1.41,0.5,2.16,0.55
		c0.86,0.06,1.69,0.1,2.31-0.73c0.23-0.31,0.7-0.14,1.01,0.13c0.14,0.12,0.24,0.29,0.36,0.43c0.67,0.05,1.33,0.1,2,0.14
		c0.07,0,0.19-0.06,0.22-0.12c0.1-0.19,0-0.31-0.26-0.34c-0.69-0.08-1.34,0.06-1.97,0.33c0.57-0.36,1.19-0.59,1.86-0.69
		c1.36-0.2,2.68-0.08,3.96,0.42c0.47,0.19,0.91,0.26,1.34-0.09c0.14-0.12,0.33-0.19,0.51-0.23c1.23-0.3,2.47,0.04,3.7,0.06
		c0.18,0,0.42,0.37,0.51,0.62c0.21,0.57,0.67,0.62,1.15,0.63c0.42,0.01,0.73-0.15,0.87-0.57c0.06-0.18,0.15-0.35,0.25-0.51
		c0.16-0.25,0.62-0.33,0.74-0.1c0.39,0.74,0.91,1.09,1.81,1.09c2.1,0.01,4.21,0.18,6.31,0.23c0.66,0.02,1.39,0,1.98-0.25
		c1.13-0.49,2.19-0.42,3.33-0.09c0.82,0.23,1.7,0.31,2.55,0.34c1.34,0.05,2.68-0.02,4.02-0.01c1.25,0.01,2.49,0.03,3.74,0.08
		c0.58,0.02,1.13,0.19,1.61,0.54l0.08-0.08c-0.55,0.04-1.09,0.07-1.64,0.12c-0.07,0.01-0.17,0.13-0.17,0.19
		c0,0.07,0.11,0.18,0.17,0.19c0.54,0.06,1.09,0.11,1.63,0.15l-0.11-0.06c0.31,0.15,0.72,0.15,0.72,0l-0.08,0.09
		c0-0.24,0-0.48,0-0.72l0.07,0.08c0.33-0.21,0.7-0.33,1.06-0.16c0.7,0.33,1.26,0.18,1.73-0.41l-0.02-0.05
		c0.22,0.22,0.45,0.44,0.67,0.67c0,0-0.08-0.09-0.08-0.09c0.44,0.78,0.44,0.78,1.27,0.62c0,0-0.04,0.09-0.04,0.09
		c0.81-0.24,1.61-0.64,2.43-0.69c1.41-0.08,2.82,0.05,4.23,0.14c0.67,0.04,1.25,0.38,1.81,0.75c-1-0.32-2.02-0.41-3.06-0.24
		c-0.08,0.01-0.15,0.1-0.22,0.15c0.14,0.1,0.29,0.28,0.43,0.28c0.93-0.04,1.87-0.13,2.81-0.2c0.08-0.06,0.14-0.14,0.2-0.22
		l-0.05-0.09c0.3,0.16,0.72,0.16,0.72,0l-0.06,0.09c0.09-0.1,0.16-0.21,0.23-0.33l-0.02,0.01c0.61,0.49,1.3,0.77,2.09,0.8
		c0.76,0.03,1.52,0.05,2.27,0.08L219,18.01c0.24,0,0.48,0,0.72,0l-0.02,0.07c1.64,0.58,3.27,1.11,5.05,0.61
		c0.48-0.13,0.96,0.04,1.36,0.33c0.58,0.41,1.21,0.5,1.91,0.5c1.15-0.01,2.3,0.11,3.46,0.15c0.77,0.03,1.54-0.01,2.26-0.34
		c0.58-0.27,1.11-0.16,1.63,0.18c0.75,0.49,1.58,0.61,2.48,0.58c1.05-0.03,2.11,0.15,3.17,0.15c0.59,0,1.13,0.08,1.69,0.26
		c1.27,0.43,2.6,0.69,3.7,1.55c0.46,0.35,1.04,0.49,1.64,0.46c2.47-0.12,4.69,0.89,7,1.51c1,0.63,2.15,0.78,3.26,1.1
		c1.28,0.37,2.63,0.6,3.76,1.4c0.06,0.04,0.09,0.18,0.08,0.26c-0.01,0.07-0.09,0.18-0.16,0.2c-0.69,0.19-1.32-0.09-1.96-0.3
		c-3.12-0.99-6.27-1.83-9.51-2.33c-0.67-0.1-1.32-0.28-1.89-0.66c-0.76-0.5-1.64-0.58-2.5-0.57c-0.85,0.01-1.72,0.3-2.56,0.23
		c-0.84-0.07-1.65-0.55-2.5-0.63c-2.01-0.2-4.02-0.35-6.01-0.62c-0.27-0.04-0.55,0.07-0.83,0.12c-0.2,0.03-0.23,0.13-0.05,0.21
		c0.43,0.18,0.87,0.44,1.32,0.49c2.12,0.2,4.17,0.68,6.23,1.18c0.19,0.05,0.38,0.09,0.57,0.1c2.7,0.19,5.32,0.81,7.95,1.36
		c2.07,0.44,4.12,0.95,6.17,1.46c0.65,0.16,1.3,0.4,1.62,1.09l0.01,0.01c-2.59-0.24-5.14-0.75-7.69-1.22
		c-0.28-0.05-0.57-0.08-0.86-0.11c-0.09-0.01-0.2,0.01-0.28,0.06c-0.16,0.1-0.32,0.21-0.44,0.34c-0.16,0.17,0.08,0.58,0.38,0.65
		c2.44,0.57,4.88,1.13,7.31,1.71c0.94,0.22,1.86,0.48,2.8,0.7c0.42,0.1,0.62,0.34,0.73,0.76c0.1,0.35,0.63,0.41,0.68,0.87
		c0.06,0.54,0.51,0.47,0.88,0.46c0.19-0.01,0.37-0.08,0.56-0.12l-0.02,0.01c0.37,0.31,0.73,0.6,1.2,0.77
		c0.72,0.26,1.4,0.62,2.1,0.94c0.32,0.9,1.18,0.86,1.89,1.09L267.34,34.94z M26.4,28.92c-0.01,0,0.12-0.03,0.12-0.03l-0.04,0.09
		L26.4,28.92z M167.32,17.21c0.18,0.34,0.41,0.58,0.85,0.47c0.3-0.08,0.53-0.46,0.35-0.58c-0.14-0.09-0.32-0.17-0.47-0.15
		c-0.26,0.04-0.51,0.17-0.76,0.26c-0.57,0-1.14,0-1.71,0c-0.25,0.01-0.56-0.12-0.56,0.29c0,0.04,0.18,0.11,0.19,0.1
		c0.1-0.13,0.19-0.27,0.28-0.41C166.1,17.34,166.71,17.37,167.32,17.21z M31.26,27.36c-0.08-0.02-0.22-0.03-0.27,0.02
		c-0.19,0.2-0.12,0.27,0.18,0.24c0.27-0.03,0.55-0.02,0.82-0.02c0.46-0.13,0.9-0.26,1.33-0.41c0.08-0.03,0.13-0.12,0.2-0.18
		c-0.16-0.06-0.32-0.18-0.48-0.17c-0.52,0-0.84,0.31-1,0.78C31.79,27.52,31.53,27.43,31.26,27.36z M192.82,24.84
		c0.08,0,0.17-0.08,0.25-0.12c-0.31,0.23,0.24-0.16-0.14-0.18c-1.49-0.07-2.99-0.11-4.48-0.15c-0.07,0-0.15,0.11-0.22,0.16
		c0.12,0.09,0.24,0.25,0.37,0.26c0.75,0.02,1.5,0.01,2.26,0.01c0,0.01,0,0.02,0,0.03C191.51,24.85,192.16,24.85,192.82,24.84z
		 M209.56,19.42c-0.07,0.01-0.16,0.1-0.2,0.17c-0.11,0.18-0.05,0.4,0.16,0.43c0.93,0.15,1.87,0.26,2.81,0.38
		c0.07,0.01,0.15-0.09,0.23-0.13c0.2-0.08,0.2-0.16-0.01-0.24C211.02,19.44,210.49,19.33,209.56,19.42z M229.77,21.88
		c0.06-0.02,0.11-0.16,0.1-0.24c-0.01-0.08-0.09-0.21-0.15-0.22c-0.46-0.04-0.93-0.01-1.39-0.08c-0.36-0.05-0.7-0.2-1.05-0.29
		c-0.04-0.01-0.19,0.14-0.17,0.19c0.04,0.17,0.09,0.44,0.2,0.47c0.54,0.15,1.09,0.23,1.63,0.33
		C229.23,21.99,229.5,21.95,229.77,21.88z M176.72,24.13c0-0.02,0-0.04,0-0.06c-0.66,0-1.32,0-1.98,0c0.01,0.02,0.02,0.04,0.03,0.06
		C175.42,24.13,176.07,24.13,176.72,24.13z M203.46,19.91c-0.23,0.11,0.05,0.31,0.51,0.33c0.18,0.01,0.36,0.01,0.54-0.01
		c0.08-0.01,0.19-0.05,0.23-0.12c0.09-0.16,0-0.29-0.23-0.33c-0.18-0.03-0.36-0.02-0.54-0.03
		C203.79,19.81,203.61,19.83,203.46,19.91z M121.4,16.89c0.08-0.03,0.17-0.13,0.17-0.21c0.01-0.21-0.15-0.33-0.38-0.27
		c-0.27,0.06-0.53,0.17-0.79,0.28c-0.04,0.02-0.02,0.17-0.03,0.26C120.73,17.28,121.07,17.03,121.4,16.89z M217.35,25.77
		c0.13,0.09,0.25,0.24,0.38,0.27c0.28,0.05,0.57,0.05,0.85,0.02c0.13-0.02,0.24-0.18,0.35-0.28c-0.08-0.05-0.15-0.14-0.23-0.16
		c-0.28-0.04-0.57-0.06-0.82-0.08C217.69,25.63,217.52,25.7,217.35,25.77z M27.93,49.39c-0.16,0.01-0.37,0.15-0.44,0.3
		c-0.12,0.26,0.16,0.63,0.45,0.6c0.16-0.02,0.3-0.19,0.45-0.3C28.47,49.71,28.25,49.37,27.93,49.39z M244.94,26.83
		c-0.08,0.18,0.03,0.31,0.28,0.33c0.19,0.01,0.38,0.01,0.57-0.03c0.07-0.01,0.12-0.13,0.18-0.2c-0.26-0.08-0.53-0.17-0.79-0.22
		C245.1,26.69,244.97,26.76,244.94,26.83z M124.02,16.49c-0.23,0.14,0.12,0.37,0.56,0.31c0.16-0.02,0.31-0.16,0.46-0.25
		c-0.17-0.07-0.33-0.14-0.5-0.22C124.37,16.39,124.18,16.4,124.02,16.49z M127.74,16.46c-0.28-0.05-0.37,0.06-0.24,0.24
		c0.04,0.05,0.18,0.05,0.26,0.03c0.08-0.02,0.14-0.1,0.21-0.15C127.89,16.54,127.82,16.48,127.74,16.46z M109.78,16.7
		c-0.06-0.02-0.15,0.06-0.23,0.09c0.04,0.08,0.06,0.2,0.11,0.22c0.06,0.02,0.15-0.06,0.23-0.1
		C109.86,16.84,109.84,16.72,109.78,16.7z M151.71,17.07c-0.07,0.18,0.04,0.27,0.29,0.21c0.07-0.02,0.13-0.1,0.19-0.15
		c-0.08-0.04-0.16-0.07-0.24-0.11C151.87,17.04,151.73,17.03,151.71,17.07z M154.5,17.21c0.06,0.04,0.12,0.11,0.19,0.12
		c0.07,0.02,0.16,0.01,0.23-0.02c0.06-0.03,0.11-0.1,0.16-0.16c-0.07-0.04-0.13-0.08-0.2-0.12C154.76,17.1,154.63,17.16,154.5,17.21
		z M262.14,55.37c0.08,0.01,0.17,0.05,0.24,0.03c0.28-0.08,0.26-0.13-0.05-0.13C262.27,55.31,262.2,55.34,262.14,55.37z
		 M224.72,19.91c-0.05,0-0.11,0.11-0.16,0.18c0.15,0.04,0.3,0.1,0.45,0.12c0.05,0,0.1-0.11,0.16-0.18
		C225.02,19.99,224.87,19.92,224.72,19.91z M170.41,17.59c0.23,0,0.3-0.13,0.18-0.31c-0.03-0.05-0.16-0.08-0.22-0.05
		c-0.06,0.03-0.08,0.13-0.11,0.2C170.31,17.49,170.36,17.59,170.41,17.59z M216.49,19.5c0.16,0.04,0.32,0.08,0.48,0.12
		c0-0.07,0.03-0.2,0-0.22c-0.07-0.04-0.18-0.03-0.27-0.05C216.64,19.4,216.56,19.45,216.49,19.5z M168.29,16.06
		c0.06,0.03,0.12,0.1,0.17,0.09c0.05-0.01,0.1-0.08,0.15-0.13c-0.06-0.03-0.12-0.07-0.18-0.1
		C168.39,15.97,168.34,16.02,168.29,16.06z M224.99,73.17c-0.18-0.03-0.38-0.11-0.53-0.05c-0.26,0.11-0.24,0.31,0.04,0.37
		c0.16,0.03,0.34-0.07,0.51-0.13C225.02,73.35,225.01,73.17,224.99,73.17z M194.64,74.91c-0.09-0.01-0.18,0-0.26,0.01
		c0.01,0.06,0.01,0.17,0.03,0.17c0.09,0.01,0.18,0,0.26-0.01C194.66,75.02,194.66,74.91,194.64,74.91z M189.45,71.47
		c-0.15,0.02-0.3,0.07-0.45,0.12c0.03,0.07,0.07,0.2,0.09,0.2c0.15-0.02,0.3-0.08,0.45-0.12C189.51,71.59,189.47,71.46,189.45,71.47
		z"/>
	<path class="st0" d="M274.31,62.76c-1.44-0.06-2.57-0.17-3.7-0.15c-1.44,0.03-2.87,0.08-4.31-0.03c-0.06,0-0.17,0.07-0.18,0.13
		c-0.07,0.25,0.04,0.36,0.3,0.37c0.86,0.05,1.71,0.11,2.56,0.29C270.69,63.73,272.39,63.58,274.31,62.76z"/>
	<path class="st0" d="M266.29,28.26c0.4,0.06,0.54-0.02,0.52-0.21c-0.01-0.07-0.1-0.15-0.18-0.19c-0.25-0.11-0.5-0.23-0.77-0.3
		c-0.22-0.06-0.35,0.06-0.33,0.27c0.01,0.08,0.07,0.19,0.14,0.22C265.93,28.15,266.19,28.23,266.29,28.26z"/>
	<path class="st0" d="M180.1,14.86c0.17,0.19,0.33,0.39,0.53,0.54c0.04,0.03,0.25-0.16,0.37-0.26c0.01-0.01-0.08-0.18-0.14-0.2
		c-0.26-0.05-0.53-0.07-0.79-0.1L180.1,14.86z"/>
	<path class="st0" d="M269.64,51.18c0.07-0.06,0.13-0.11,0.19-0.15c-0.12-0.11-0.31-0.34-0.33-0.32
		C269.05,51.01,269.52,51.04,269.64,51.18z"/>
	<path class="st0" d="M262.42,35.99c0.01-0.22,0.01-0.44,0.02-0.67c0,0,0.09,0.07,0.09,0.07c-0.8,0-1.61,0.01-2.41,0.01
		c0,0,0.05-0.08,0.05-0.08c0,0.22,0.01,0.45,0.01,0.67c0,0-0.1-0.07-0.1-0.07c0.8,0,1.61-0.01,2.41-0.01
		C262.5,35.92,262.42,35.99,262.42,35.99z"/>
	<path class="st0" d="M266.46,41.2c0.21,0.58,0.69,0.43,1.11,0.4c0.07,0,0.15-0.08,0.19-0.14c0.02-0.03-0.03-0.15-0.07-0.16
		c-0.42-0.13-0.85-0.28-1.28-0.04C266.41,41.26,266.46,41.2,266.46,41.2z"/>
	<path class="st0" d="M258.03,28.14c0.18-0.02,0.36-0.04,0.54-0.05c0.15-0.02,0.3-0.03,0.45-0.05c-0.16-0.01-0.32-0.05-0.47-0.04
		c-0.18,0.02-0.35,0.09-0.53,0.14C258.02,28.13,258.03,28.14,258.03,28.14z"/>
	<path class="st0" d="M262.42,36.51c0.17-0.02,0.35-0.03,0.52-0.08c0.16-0.05,0.31-0.14,0.46-0.21c-0.15-0.08-0.3-0.19-0.46-0.23
		c-0.16-0.04-0.34-0.01-0.52,0c0,0,0.08-0.08,0.08-0.08c0,0.22,0,0.44,0.01,0.66C262.5,36.58,262.42,36.51,262.42,36.51z"/>
	<path class="st0" d="M271.27,26.46c-0.07,0.03-0.15,0.07-0.22,0.1c0.04,0.07,0.08,0.21,0.12,0.21
		C271.43,26.77,271.47,26.65,271.27,26.46z"/>
	<polygon class="st0" points="270.88,55.86 270.65,55.83 270.69,55.96 	"/>
	<path class="st0" d="M180.07,14.85c-0.14,0.06-0.29,0.12-0.43,0.18c0.15-0.06,0.3-0.11,0.45-0.17
		C180.1,14.86,180.07,14.85,180.07,14.85z"/>
	<path class="st0" d="M214.46,17.52c-0.3-0.43-0.3-0.43-0.61,0c0,0-0.05-0.09-0.05-0.09c0.24,0,0.48,0,0.72,0L214.46,17.52z"/>
	<path class="st0" d="M214.66,17.19c0.17,0.03,0.33,0.06,0.5,0.09c-0.07-0.01-0.14,0-0.2-0.02c-0.09-0.02-0.18-0.05-0.27-0.08
		C214.68,17.19,214.66,17.19,214.66,17.19z"/>
	<path class="st0" d="M267.87,36.19c0.16-0.03,0.33-0.05,0.49-0.08c-0.17,0.02-0.34,0.04-0.51,0.06
		C267.84,36.17,267.87,36.19,267.87,36.19z"/>
	<path class="st0" d="M262.08,32.24c0.17,0.03,0.34,0.05,0.51,0.08c-0.16-0.03-0.31-0.06-0.48-0.09
		C262.1,32.23,262.08,32.24,262.08,32.24z"/>
	<polygon class="st0" points="259.78,37.97 259.55,37.91 259.58,38.08 	"/>
	<path class="st0" d="M267.34,34.94c-0.39,0,0.02,0.33-0.16-0.01c-0.04-0.08,0.1-0.1,0.09,0.11
		C267.27,35.04,267.34,34.94,267.34,34.94z"/>
	<path class="st0" d="M219.7,18.08c-0.22,0-0.45,0-0.67,0c0,0-0.02-0.07-0.02-0.07c0.24,0,0.48,0,0.72,0L219.7,18.08z"/>
	<polygon class="st0" points="268.01,35.32 268.24,35.32 268.09,35.28 	"/>
	<path class="st0" d="M205.21,17.54c-0.21-0.21-0.41-0.42-0.62-0.63c0,0,0.04-0.08,0.04-0.08c0.21,0.21,0.41,0.42,0.62,0.63
		C205.25,17.45,205.21,17.54,205.21,17.54z"/>
	<path class="st0" d="M204.6,16.91c-0.18-0.2-0.36-0.41-0.54-0.61l0.02-0.05c0,0.23-0.01,0.45-0.01,0.68c0,0-0.08-0.09-0.08-0.09
		c0.22,0,0.43,0,0.65-0.01C204.63,16.83,204.6,16.91,204.6,16.91z"/>
	<path class="st0" d="M204.06,16.3c-0.22,0-0.43,0.01-0.65,0.01c0,0-0.02-0.06-0.02-0.06c0.23,0,0.45-0.01,0.68-0.01
		C204.07,16.25,204.06,16.3,204.06,16.3z"/>
	<path class="st0" d="M200.62,16.88c-0.23,0.01-0.45,0.02-0.68,0.02c0,0,0.08-0.08,0.08-0.08c0,0.22,0,0.44,0,0.66
		c0,0-0.11-0.06-0.11-0.06c0.24,0,0.48,0,0.72,0c0,0-0.08,0.09-0.08,0.09c0-0.24,0-0.48,0-0.72L200.62,16.88z"/>
</g>
</svg>
