<?xml version="1.0" encoding="utf-8"?>
<!-- Generator: Adobe Illustrator 23.0.4, SVG Export Plug-In . SVG Version: 6.00 Build 0)  -->
<svg version="1.1" id="Ebene_1" xmlns="http://www.w3.org/2000/svg" xmlns:xlink="http://www.w3.org/1999/xlink" x="0px" y="0px"
	 viewBox="0 0 283.46 99.31" style="enable-background:new 0 0 283.46 99.31;" xml:space="preserve">
<style type="text/css">
	.st0{fill:#97A922;}
</style>
<path class="st0" d="M237.55,29.41c-0.3,0.2-0.57,0.45-0.9,0.59c-0.24,0.1-0.55,0.09-0.82,0.07c-2.94-0.17-5.88-0.32-8.82-0.55
	c-1.75-0.14-3.49-0.23-5.23,0.07c-0.12,0.02-0.29,0.24-0.29,0.37c-0.01,0.14,0.13,0.38,0.25,0.42c0.44,0.13,0.89,0.21,1.34,0.28
	c0.73,0.11,1.46,0.21,2.19,0.3c0.92,0.12,1.78,0.44,2.6,0.86c0.13,0.06,0.16,0.3,0.24,0.45c-0.16,0.06-0.33,0.19-0.48,0.17
	c-0.55-0.06-1.09-0.19-1.63-0.25c-0.27-0.03-0.62-0.04-0.81,0.11c-0.95,0.73-2.07,0.66-3.16,0.79c-0.06,0.01-0.16,0.11-0.15,0.13
	c0.04,0.08,0.09,0.2,0.16,0.21c0.62,0.14,1.25,0.33,1.88,0.39c1.65,0.17,3.3,0.26,4.95,0.41c0.55,0.05,1.11,0.1,1.63,0.28
	c2.03,0.7,4.16,0.8,6.26,1c3.02,0.29,6.06,0.4,9.09,0.68c3.39,0.31,6.79,0.61,10.14,1.27c1.63,0.32,3.24,0.66,4.81,1.23
	c0.77,0.28,1.59,0.45,2.37,0.7c0.15,0.05,0.38,0.3,0.36,0.32c-0.14,0.22-0.31,0.44-0.51,0.59c-0.13,0.1-0.37,0.15-0.53,0.1
	c-1.1-0.33-2.15-0.3-3.21,0.19c-0.29,0.13-0.76,0.07-1.06-0.08c-0.68-0.34-1.36-0.45-2.12-0.44c-1.84,0.03-3.65-0.44-5.51-0.37
	c-0.42,0.01-0.85-0.31-1.27-0.47c0.16,0.07,0.31,0.15,0.47,0.2c0.08,0.02,0.17,0.01,0.25-0.02c0.07-0.02,0.13-0.08,0.19-0.13
	c-0.13-0.05-0.25-0.13-0.38-0.13c-0.17,0-0.33,0.07-0.5,0.11c-1.01,0.16-2.01,0.18-3.03,0.1c-3.58-0.29-7.17-0.53-10.75-0.82
	c-1.3-0.1-2.58-0.03-3.86,0.15c-0.17,0.02-0.36,0.11-0.49,0.22c-0.13,0.11-0.26,0.3-0.26,0.45c0.01,0.15,0.15,0.34,0.29,0.43
	c0.23,0.14,0.49,0.27,0.75,0.31c0.54,0.09,1.1,0.15,1.65,0.19c2.76,0.18,5.5,0.63,8.27,0.67c0.73,0.01,1.48,0.15,2.18,0.35
	c3.03,0.9,6.15,1.13,9.27,1.29c2.49,0.13,4.94,0.48,7.35,1.13c4.71,1.26,9.44,2.45,14.17,3.67c0.62,0.16,1.26,0.27,1.88,0.44
	c0.13,0.04,0.3,0.24,0.3,0.37c0,0.13-0.15,0.33-0.29,0.4c-0.48,0.24-0.77,0.49-0.28,1.01c0.04,0.04-0.11,0.3-0.2,0.43
	c-0.04,0.06-0.17,0.1-0.25,0.08c-1.16-0.24-2.35-0.29-3.52-0.6c-1.59-0.42-3.26-0.55-4.9-0.8c-0.18-0.03-0.37-0.02-0.55,0.01
	c-0.9,0.19-1.84,0.28-2.68,0.61c-0.95,0.37-1.94,0.54-2.98,0.78c0.59,0.56,1.31,0.22,1.88,0.51c0.49,0.25,0.98,0.55,1.5,0.7
	c1.42,0.39,2.85,0.73,4.35,0.68c0.84-0.03,1.27,0.32,1.58,1.17c0.03,0.09-0.15,0.28-0.26,0.4c-0.05,0.05-0.18,0.06-0.27,0.05
	c-2.37-0.38-4.78-0.26-7.17-0.48c-1.46-0.13-2.94-0.11-4.41-0.17c-1.48-0.06-2.94-0.07-4.38,0.38c-0.34,0.1-0.73,0.07-1.1,0.05
	c-1.1-0.06-2.22-0.06-3.31-0.24c-1.84-0.31-3.68-0.03-5.52-0.12c-0.24-0.01-0.52,0.17-0.73,0.33c-0.22,0.16-0.37,0.41-0.56,0.61
	c-0.38,0.4-0.31,0.86,0.18,0.97c1.25,0.29,2.5,0.66,3.76,0.81c1.85,0.22,3.52,1.05,5.32,1.44c0.09,0.02,0.2,0.31,0.18,0.46
	c-0.04,0.26-0.19,0.51-0.29,0.77l0.02,0.01c-0.8-0.55-1.74-0.58-2.65-0.59c-0.35,0-0.75,0.12-1.04,0.32
	c-0.64,0.45-1.33,0.52-2.08,0.56c-1.66,0.08-3.3,0.16-4.94-0.29c-0.51-0.14-1.1-0.12-1.64-0.03c-3.67,0.59-7.34,0.27-11,0
	c-1.1-0.08-2.21-0.09-3.31-0.08c-1.02,0-2.02,0.01-2.99-0.39c-0.33-0.14-0.73-0.21-1.08-0.17c-1.57,0.2-3.12-0.06-4.69-0.1
	c-1.1-0.03-2.21,0.08-3.39,0.13c0.27,0.44,0.75,0.29,1.04,0.52c0.31,0.24,0.43,0.56,0.62,0.88c0.33,0.55,2.22,1.79,2.89,1.99
	c1.96,0.6,3.97,0.79,6,0.86c1.56,0.06,3.13,0.1,4.69,0.04c1.37-0.05,2.53,0.4,3.61,1.14c0.13,0.09,0.27,0.3,0.25,0.43
	c-0.03,0.13-0.23,0.28-0.38,0.34c-0.25,0.1-0.54,0.1-0.79,0.2c-0.21,0.08-0.21,0.26-0.12,0.46c0.24,0.53,0.57,0.94,1.19,1.04
	c0.45,0.07,0.92,0.11,1.28,0.44c0.06,0.06,0.12,0.13,0.15,0.21c0.09,0.23,0,0.37-0.24,0.4c-1.29,0.15-2.57,0.06-3.85-0.08
	c-0.55-0.06-1.1-0.13-1.65-0.19c-0.6-0.06-1.06,0.22-1.46,0.64c-0.16,0.16-0.18,0.3,0.02,0.45c0.14,0.11,0.3,0.22,0.47,0.27
	c1.87,0.5,3.74,0.99,5.61,1.46c0.8,0.2,1.61,0.46,2.43,0.51c2.05,0.14,3.92,0.96,5.89,1.42c0.17,0.04,0.32,0.17,0.47,0.28
	c0.04,0.03,0.05,0.15,0.04,0.21c-0.02,0.08-0.08,0.19-0.15,0.21c-0.53,0.14-1.06,0.35-1.6,0.36c-1.47,0.04-2.94-0.01-4.42-0.03
	c-0.44-0.01-0.64,0.26-0.76,0.64c-0.03,0.09-0.07,0.22-0.13,0.24c-1.42,0.35-2.84,0.71-4.27,1.01c-0.35,0.07-0.66-0.15-0.91-0.48
	c-0.32-0.42-0.37-0.38-0.77-0.02c-0.43,0.38-0.46,0.41-0.8,0c-0.2-0.24-0.43-0.46-0.68-0.31c-0.94,0.58-1.86,0.59-2.86,0.12
	c-0.3-0.14-0.72-0.06-1.08-0.02c-0.12,0.01-0.24,0.2-0.33,0.33c-0.03,0.04,0.04,0.19,0.1,0.23c0.31,0.2,0.67,0.33,0.93,0.57
	c0.26,0.24,0.62,0.61,0.58,0.87c-0.13,0.87,0.39,1.37,0.86,1.93c0.25,0.29,0.43,0.59,0.33,0.99l0.03-0.07
	c-0.75,0.37-1.5,0.65-2.37,0.64c-1.39-0.01-2.78,0.01-4.14-0.21c-2.28-0.38-4.57-0.6-6.89-0.59c-0.56,0-1.14-0.04-1.56-0.45
	c-0.65-0.65-1.41-0.83-2.28-0.66c-0.92,0.18-1.84,0.1-2.75-0.03c-2.37-0.34-4.79-0.27-7.15-0.72c-0.18-0.03-0.37-0.03-0.55-0.02
	c-2.03,0.03-4.05,0.01-6.07-0.18c-1.09-0.1-2.2-0.06-3.31,0.13c-1.72,0.3-3.5,0.05-5.19,0.61c-2.06-0.37-4,0.36-6,0.61
	c-1.38,0.17-2.76,0.27-4.14,0.01c-1.01-0.19-2.02-0.23-3,0.12c-0.07,0.03-0.16,0.11-0.17,0.19c-0.04,0.19,0.07,0.34,0.28,0.33
	c0.55-0.01,1.1-0.06,1.65-0.07c0.27-0.01,0.68,0.31,0.62,0.46c-0.07,0.15-0.13,0.31-0.24,0.42c-0.87,0.82-2.11,1.06-2.99,1.89
	c-0.22,0.21-0.71,0.27-1.05,0.21c-1.49-0.27-2.92-0.05-4.39,0.19c-3.18,0.53-6.37,1.04-9.62,1.03c-1.29,0-2.58,0.09-3.86-0.17
	c-0.63-0.13-1.29-0.11-1.93-0.1c-3.04,0.04-6.08,0.09-9.13,0c-3.41-0.1-6.83,0.11-10.24,0.19c-0.65,0.01-1.3,0.12-1.93,0.02
	c-1.84-0.28-3.68-0.18-5.53-0.12c-1.85,0.06-3.69,0.04-5.53-0.19c-0.64-0.08-1.29-0.09-1.93-0.08c-1.38,0.02-2.77,0.12-4.15,0.11
	c-2.58-0.01-5.14,0.36-7.74,0.11c-2.47-0.24-4.98-0.15-7.47-0.21c-0.74-0.02-1.48-0.05-2.21-0.05c-4.25-0.01-8.49-0.02-12.74-0.03
	c-0.74,0-1.48,0.02-2.21,0.07c-0.74,0.05-1.45,0-2.17-0.25c-1.23-0.43-2.53-0.5-3.83-0.44c-2.12,0.1-4.24,0.22-6.36-0.09
	c-0.63-0.09-1.3-0.04-1.93,0.08c-1.01,0.21-2.01,0.21-3.03,0.24c-1.2,0.03-2.38-0.1-3.57-0.24c-2.84-0.33-5.7-0.5-8.55-0.74
	c-1.93-0.16-3.86-0.34-5.78-0.53c-0.36-0.04-0.71-0.18-1.05-0.32c-0.52-0.22-1.06-0.33-1.62-0.24c-0.65,0.11-1.29,0.1-1.9-0.17
	c-0.79-0.35-1.62-0.34-2.45-0.32c-1.01,0.02-2.03,0.07-3.04,0.11c-0.82,0.03-1.64,0.08-2.46,0.12c-1.01-0.68-2.29-0.66-3.33-1.29
	c-0.16-0.1-0.34-0.15-0.49-0.25c-1.03-0.66-2.21-0.9-3.36-1.24c-0.88-0.81-1.74-1.65-2.65-2.42c-0.41-0.35-0.92-0.61-1.41-0.85
	c-0.69-0.35-1.12-0.94-1.54-1.55c-0.26-0.37-0.01-0.97-0.49-1.22c-0.4-0.21-0.86-0.34-1.28-0.52c-0.3-0.13-0.33-0.34-0.23-0.65
	c0.11-0.34,0.11-0.71,0.2-1.06c0.09-0.32-0.03-0.52-0.26-0.7c-0.43-0.35-0.81-0.7-0.98-1.28c-0.13-0.42-0.41-0.85-0.74-1.14
	c-0.41-0.37-0.44-0.78-0.37-1.24c0.09-0.58,0.04-1.11-0.45-1.51c-0.32-0.25-0.32-0.63-0.43-0.98c-0.22-0.71,0.13-1.52-0.34-2.16
	c-0.41-0.55-0.32-1.23-0.58-1.82c-0.52-1.21-0.27-2.5-0.24-3.76c0.35-0.28,0.45-0.56-0.01-0.84c-0.57-1.18-0.51-2.48-0.71-3.74
	c-0.02-0.16,0.28-0.44,0.5-0.56c0.34-0.2,0.7-0.49,0.6-0.83c-0.28-0.95,0.05-1.82,0.19-2.72c0.09-0.57-0.01-1.05-0.36-1.55
	c-0.36-0.52-0.38-1.29-0.08-1.79c0.56-0.9,0.25-1.99,0.69-2.9c0.02-0.05-0.22-0.23-0.34-0.34c-0.13-0.12-0.38-0.23-0.38-0.35
	c0-0.26,0.04-0.59,0.21-0.77c0.43-0.48,0.96-0.86,1.39-1.33c0.37-0.42,0.67-0.94,0.47-1.52c-0.25-0.74,0.02-1.24,0.54-1.71
	c0.22-0.2,0.31-0.49,0.17-0.75c-0.15-0.28-0.58-0.49-0.16-0.87c0.61-0.55,0.87-1.18,0.47-1.96c0.17-0.72,0.33-1.49,1.11-1.79
	c0.95-0.37,1.51-1.06,1.7-2.02c0.17-0.87,0.7-1.45,1.29-2.04c0.58-0.58,1.17-1.19,1.62-1.88c0.49-0.75,1.21-1.15,1.94-1.5
	c0.9-0.44,1.89-0.67,2.67-1.37c0.18-0.16,0.51-0.19,0.78-0.22c0.47-0.06,0.87-0.25,1.23-0.56c0.42-0.36,0.96-0.59,1.32-1
	c1.11-1.27,2.56-1.68,4.14-1.91c1.55-0.23,3.08-0.56,4.66-0.12c0.43,0.12,0.92,0.07,1.38,0.08c3.6,0.08,7.18,0.39,10.76,0.8
	c0.55,0.06,1.1,0.09,1.66,0.1c3.05,0.05,6.09,0.09,9.14,0.15c2.12,0.04,4.24,0.09,6.37,0.13c0.92,0.02,1.85,0.01,2.77,0.04
	c2.21,0.05,4.43,0.11,6.64,0.17c0.28,0.01,0.55,0.02,0.83,0.03c6.18,0.02,12.36,0.31,18.54-0.13c2.67-0.19,5.34-0.35,8.01-0.47
	c5.07-0.23,10.14-0.54,15.22-0.51c2.21,0.02,4.43,0.14,6.64,0.32c4.6,0.38,9.22,0.47,13.83,0.46c3.6-0.01,7.2-0.14,10.8-0.15
	c2.31,0,4.61,0.12,6.92,0.19c2.4,0.07,4.8,0.14,7.19,0.23c1.84,0.07,3.67,0.2,5.5,0.51c2.08,0.35,4.21,0.47,6.34,0.43
	c1.38-0.02,2.77-0.05,4.15,0.17c0.45,0.07,0.92,0.1,1.38,0.07c1.3-0.1,2.57,0.04,3.85,0.31c0.8,0.17,1.65,0.22,2.48,0.22
	c1.76,0.02,3.49,0.16,5.22,0.56c2.43,0.57,4.89,0.97,7.4,0.85c3.76,0.44,7.55,0.49,11.3,1.05c3.84,0.57,7.64,1.3,11.45,2
	c0.81,0.15,1.61,0.4,2.41,0.61c0.73,0.2,1.47,0.4,1.33,1.42c0.32,0.71,1.02,1.04,1.54,1.55c0.23,0.22,0.67,0.26,1.03,0.3
	c3.59,0.39,7.07,1.27,10.57,2.1c0.35,0.08,0.66,0.31,1,0.48c-0.79,0.85-1.78,0.98-2.8,1.04C237.49,29.5,237.55,29.41,237.55,29.41z
	 M148.82,78.57c-0.21-0.3-0.4-0.65-0.82-0.66c-2.84-0.1-5.68-0.27-8.52-0.27c-3.3,0-6.6,0.12-9.9,0.25c-2.1,0.08-4.22,0.1-6.28,0.63
	c-0.37-0.49-0.88-0.66-1.46-0.63c-2.67,0.16-5.34,0.04-8.01-0.12c-3.78-0.22-7.55-0.18-11.31,0.34c-0.12,0.02-0.22,0.16-0.33,0.25
	c0.07,0.05,0.14,0.13,0.22,0.13c0.83,0.02,1.65,0.01,2.48,0.06c0.25,0.02,0.52,0.18,0.73,0.34c0.12,0.09,0.2,0.32,0.18,0.47
	c-0.02,0.15-0.16,0.37-0.3,0.42c-1.24,0.41-2.54,0.36-3.82,0.46c-1.1,0.09-2.21,0.13-3.31,0.21c-0.17,0.01-0.51-0.09-0.49,0.38
	c0.83,0.05,1.67,0.02,2.48,0.16c1.83,0.31,3.67,0.26,5.51,0.25c2.21-0.02,4.42-0.08,6.63,0.14c1.09,0.11,2.21,0,3.31-0.03
	c0.83-0.02,1.66-0.07,2.48-0.1c1.1-0.04,2.21-0.06,3.31-0.12c0.32-0.02,0.71,0.04,0.93-0.33c-0.51-0.28-1.08-0.24-1.62-0.21
	c-2.7,0.16-5.32-0.4-7.95-0.83c-0.27-0.04-0.55-0.12-0.78-0.25c-0.13-0.07-0.26-0.28-0.25-0.42c0.01-0.12,0.21-0.32,0.34-0.32
	c3.67-0.25,7.34-0.63,11.04-0.23c2.47,0,4.94,0.01,7.41-0.01c1.55-0.01,3.1-0.04,4.66,0.03c3.11,0.14,6.21,0.22,9.33-0.01
	c1.36-0.1,2.74,0.03,4.12,0.05c0.71-0.04,1.42-0.07,2.12-0.14c0.22-0.02,0.26-0.21,0.12-0.38c-0.05-0.06-0.15-0.1-0.23-0.1
	C150.11,77.94,149.47,78.26,148.82,78.57z M133.49,80.49c-0.83,0.04-1.66,0.08-2.49,0.11c-1.75,0.06-3.49,0.11-5.24,0.17
	c-0.05,0-0.13,0.15-0.13,0.23c0,0.07,0.08,0.19,0.14,0.21c0.17,0.06,0.35,0.11,0.53,0.11c3.32,0,6.64-0.15,9.96,0.19
	c0.73,0.07,1.48-0.02,2.21-0.01c1.29,0.03,2.58,0.09,3.87,0.14c0.37,0.02,0.74,0.1,1.1,0.09c3.32-0.04,6.64-0.09,9.96-0.16
	c0.45-0.01,0.89-0.19,1.33-0.31c0.06-0.01,0.12-0.13,0.11-0.2c0-0.07-0.08-0.18-0.14-0.18c-3.77-0.28-7.54-0.5-11.3-0.95
	c-0.45-0.05-0.93-0.06-1.37,0.01C139.22,80.41,136.35,80.42,133.49,80.49z M214.95,33.39c1.25,0.25,2.52,0.43,3.8,0.17
	c0.08-0.02,0.13-0.12,0.2-0.19c-0.05-0.05-0.1-0.13-0.16-0.14C217.52,33.03,216.25,32.93,214.95,33.39z M241.22,52.8
	c-0.07,0.05-0.15,0.09-0.22,0.14c0.06,0.06,0.12,0.14,0.2,0.17c0.08,0.03,0.18,0.03,0.26,0.01c0.08-0.02,0.14-0.1,0.21-0.15
	C241.52,52.9,241.37,52.85,241.22,52.8z M159.68,80.28l-0.17-0.09l-0.02,0.14L159.68,80.28z"/>
</svg>
