<svg xmlns="http://www.w3.org/2000/svg" width="132" height="178.5" viewBox="0 0 132 178.5"><defs><style>.cls-1{fill:#97a922;}.cls-2{isolation:isolate;}</style></defs><title>zeroWaste_logo_final</title><g id="Ebene_2" data-name="Ebene 2"><g id="Ebene_1-2" data-name="Ebene 1"><path class="cls-1" d="M108.4,153.9h-.5c-.1.1-.2.2-.1.4a2.8,2.8,0,0,0,.1.9.6.6,0,0,1-.1.7c-.1.1-.3.2-.4,0a.4.4,0,0,0-.1-.3c-.2-.2-.3,0-.4.1l-.2.2h0c0,.1.2.2.1.2s-.2,1-.7,1.2a.5.5,0,0,0-.4.6h-.2s-.1,0,0,.1h.2l.4-.6a4.5,4.5,0,0,0-.3,1.1h0l-.2.2h0a1.4,1.4,0,0,0-.2.6c0,.5-.2.6-.6.6h-.1c.3,0,.4-.2.3-.4s-.6-.2-.7,0l-.8,1.2a.2.2,0,0,0,0,.3c.1.1.2.3,0,.4s-.3.4-.6.1h0a1.8,1.8,0,0,1-.5.7h.1c-.2.2-.3.5-.6.6h0a.2.2,0,0,0-.3,0,17.1,17.1,0,0,0-1.1,1.4,8,8,0,0,1-1.8,2.3L97,168.2a33.6,33.6,0,0,1-2.9,2.4l-.4.4-2.3,2.4a3.1,3.1,0,0,0-.5,1,.6.6,0,0,0,.1.4h0v.2h0l-.2.2h0a6.9,6.9,0,0,1-1.9,1l-.7.4a4.7,4.7,0,0,1-2,.6c-.1.1-.2,0-.2-.1v-.2l.7-.2a3.8,3.8,0,0,0,2-1l.8-.4c-.1-.3-.2-.2-.3-.1s-.8.2-1.1.5a1.2,1.2,0,0,1-1.5.2h-.4a14.7,14.7,0,0,0-3,.8,22.9,22.9,0,0,1-5.8,1.1c-1.4.1-2.7.5-4,.6a9.7,9.7,0,0,1-2.4.1H66.9a18.6,18.6,0,0,1-5.7-.7,15.4,15.4,0,0,0-3.1-.5,20.7,20.7,0,0,1-5.5-1.1l-2.1-.6L47,174.5l-1.6-.5c-.3-.1-.7-.4-1,0s-.2,0-.4-.1l-2.5-1.8a1.8,1.8,0,0,0-.7-.5c-.9-.3-1.7-1-2.7-1.3l-.3-.2a.5.5,0,0,0-.6.1c-.2.1-.4,0-.4-.2s-.3-1.1-.8-1.3a2.2,2.2,0,0,1-1.4-1.1c-.4-.3-.6-.8-1-1a3.5,3.5,0,0,1-1.4-1.3c-.2-.3-.6-.4-.9-.6l-2.4-1.5a2.3,2.3,0,0,1-.7-.7c-.2-.2-.1-.4,0-.6h0c-.7-.3-.7-.3-.6-.9a1.1,1.1,0,0,0-.3-.8c-.4-.4-.6-1.1-1.2-1.5l-.2-.2a10.4,10.4,0,0,0-1-1.8c-1.6-2.4-2.9-5-4.3-7.5l-1.1-2.1c-.4.2-.1.5-.4.6a8,8,0,0,1-.5-2.1,21.6,21.6,0,0,0-1-4.4l-.3-1.5a4.5,4.5,0,0,0-.3-1.1.4.4,0,0,1-.1-.3,7,7,0,0,0-.5-2.5,14,14,0,0,0-.6-2.8v-.4c0-.4.2-.8,0-1.3s-.1-.8-.2-1.3a5,5,0,0,0-.2-1.2,53.1,53.1,0,0,1-.8-6.7c0-1.4-.1-2.9-.2-4.3a1.9,1.9,0,0,0-.1-.8c-.4-2.9-.9-5.7-1.1-8.6a40,40,0,0,1,0-4.9,2.7,2.7,0,0,0,0-.9c-.2-1.2-.2-2.5-.4-3.7a14.9,14.9,0,0,1-.2-4.7c.1-2,.4-4,.6-6a12.9,12.9,0,0,0,.1-2.8,13.1,13.1,0,0,1-.1-2.8c.1-1,.1-2,.2-3.1a1.1,1.1,0,0,1,.1-.5,4.1,4.1,0,0,0,.1-2.2,37.5,37.5,0,0,1-.1-8.2,22,22,0,0,1,.7-3.7,3.2,3.2,0,0,0,.2-1.3,5.8,5.8,0,0,1,.2-1.9,17.7,17.7,0,0,0,.5-3.2c.1-1.5.3-3.1.5-4.6s.4-3.8.7-5.6a21.3,21.3,0,0,1,1.1-5c.3-.9.5-1.7.8-2.5a9,9,0,0,0,.3-1.6,30.3,30.3,0,0,1,1.1-6.7,15.5,15.5,0,0,1,1.3-3.6c.1-.2.2-.3.2-.4a1,1,0,0,1,.6-.9c.2-.1.2-.3.3-.5h0l1-1.8c.2-.2.3-.6.5-.7s.2-.6.2-.9h0a9.8,9.8,0,0,0,1.8-2.7,11.4,11.4,0,0,0,1-1.9,1,1,0,0,1,.7-.7,1.7,1.7,0,0,0,1-1.2c.1-.2.4,0,.4-.4s0-.3,0-.5a.7.7,0,0,0-.1-.5c-.1-.2-.3-.1-.5-.2h-.1a.4.4,0,0,1,.1-.3h.1a1.8,1.8,0,0,0,1.3-.9.4.4,0,0,1,.6-.1c.2.1.4.1.5-.1a1.8,1.8,0,0,1,.9-.6h.2l1-.6a3.7,3.7,0,0,1,1.7-1l.6-.5a17.1,17.1,0,0,0,2.6-2.1,22.5,22.5,0,0,1,3-2.4A40.5,40.5,0,0,1,44,4.7c.3-.2.7-.3.9-.6l.7-.5a16.1,16.1,0,0,1,4.9-1.9l1.9-.6L55.9.6A7.6,7.6,0,0,0,57.5.3,9.3,9.3,0,0,1,60.8,0h1.5a4.1,4.1,0,0,1,1.6.2,4.3,4.3,0,0,0,1.6,0,1.1,1.1,0,0,1,1-.1,5.3,5.3,0,0,0,2.8,0h.2c.7.3,1.5.2,2.1.7a4.4,4.4,0,0,0,1.6.6,6.2,6.2,0,0,1,2.6,1.2c0,.1.1.1.1.2s.7,1.1,1,1.6,0,.4-.2.6h0a7.4,7.4,0,0,1,1.9,1.6h0c-.3.1-.6.2-.5.6A9.2,9.2,0,0,0,78,8.9c-.4.6-.2,1.3-.5,1.9a2,2,0,0,0-.1,1.1c.1.1,0,.2-.1.2s-.3.6-.6.7h0a2.6,2.6,0,0,0-.9.9c-.1.3-.4.6-.2,1s0,.3-.2.4-.5.5-.7.8L74,17.2l-.3,1.2a3.2,3.2,0,0,1-1,1.8l-1,1h0a13.1,13.1,0,0,1-1.2,2.7l-.3.5c-.2.4-.2.4.2.9a6.4,6.4,0,0,0-1.9,1.3,1.9,1.9,0,0,0-.5,1h0a.4.4,0,0,0-.5.2,9.4,9.4,0,0,0-1,1,4.1,4.1,0,0,1-2.3,1.1c-.2.1-.3-.1-.4-.3a.3.3,0,0,1,.3-.3h.2c.7.4,1.2-.1,1.7-.5l.9-.9c-.1-.3-.4.1-.5-.1s-.7-.5-1.2-.2l-.9.5c-.2.1-.3.2-.2.3h.3c-.2.2-.4.1-.6.2H63c-.5-.2-1,0-1.6-.1s-.5.1-.5.5a.8.8,0,0,1-.4.4l-2.9,1.1a1.4,1.4,0,0,1-1.6-.1h-.6A2.2,2.2,0,0,0,54,31.5h-.1c-.6-.2-1,.1-1.4.7l-.9.9h-.5a7.1,7.1,0,0,1-1.5,1.5l-.3.5a3.9,3.9,0,0,1-.8,1,1,1,0,0,0-.3.8c.1.3-.2.4-.4.5s-.3.3-.5.1h0A3.3,3.3,0,0,0,45.5,40a12.1,12.1,0,0,0-.5,1.8,57.2,57.2,0,0,0-1.1,5.7c-.3,2.8-.7,5.6-.8,8.4a13.7,13.7,0,0,1-.2,1.9A3.8,3.8,0,0,1,42,56v-.5a10.8,10.8,0,0,0-.2-3.1,4.9,4.9,0,0,1-.1-1.2h0c-.4,0-.5-.4-.7-.8v1c0,.2.1.4-.1.6a1.7,1.7,0,0,0-.2,1.4,1.3,1.3,0,0,1-.4,1.2v-.2a.1.1,0,0,0-.1-.1h0c0,.1.1.1.1.2s.1.1.1.2.1.3.3.2.3-.2.3,0,.2.3.2.5a.5.5,0,0,1-.2.8.1.1,0,0,1-.2,0c-.2-.6-.6,0-.8-.2s-.2.2-.2.3.1.7.1,1a1.2,1.2,0,0,1-.2,1h0v.2a2,2,0,0,1-.4,1.5,3.4,3.4,0,0,0-.2,2.8,8.6,8.6,0,0,1,.4,4.2c0,.2.1.3.1.4s.1.1.2.1h0a1.7,1.7,0,0,0,.1-.7,21.7,21.7,0,0,1-.1-2.6.6.6,0,0,1,.1-.4c.4.4.4.4.3,1.1s-.1.3,0,.4h.1l.2-.6h.1c.1,0,.2,0,.2.1s.1.8.2,1.2a.4.4,0,0,1-.1.3,3.6,3.6,0,0,0-.4,1.1,1.2,1.2,0,0,1-.8.9,2.9,2.9,0,0,0-1.3.8c-.2.2-.4.2-.4-.1l-.4-.4.3-.2c.1-.5.6-.8.5-1.5s-.3.4-.4.6a1,1,0,0,0-.1.9l-.3.3a2.2,2.2,0,0,0-.5,1.1,4.3,4.3,0,0,0-.1.5,16.8,16.8,0,0,1-.9,3.2,11.2,11.2,0,0,0-.5,3.1c-.1,1.1-.1,2.3-.1,3.4a.9.9,0,0,0,.2,1c.2-.1.1-.3.2-.5s.1.1.1.2a43.4,43.4,0,0,1,.1,5.1c0,.6.1,1.1.1,1.7a6.5,6.5,0,0,1-.2,2.4c0,.3-.4.2-.3.6v4.3a1,1,0,0,1,0,.9c-.1.2,0,.4.1.4s.4.3.4.6a13.4,13.4,0,0,1,.1,2,3.4,3.4,0,0,0,.2,1.4,2.5,2.5,0,0,1,.1,1.9,4.1,4.1,0,0,0-.1,1.1c.1,2.2.2,4.4.4,6.6a14.1,14.1,0,0,1,.1,2.9,4.8,4.8,0,0,0,0,1.2c-.2.1-.1-.1-.2-.2a4.9,4.9,0,0,0-.1-1.2c-.1-1.3-.2-2.6-.4-3.8a4.1,4.1,0,0,1-.1-2.2,6.6,6.6,0,0,0-.1-1.4c-.2-1-.3-2-.4-3a4.9,4.9,0,0,0-.1-1.2,6.5,6.5,0,0,0-.2,2,15.8,15.8,0,0,0,.5,4.3,3,3,0,0,1-.2,1.6,4.9,4.9,0,0,0-.2,2.7,2.4,2.4,0,0,0,.2.8,1.7,1.7,0,0,1-.1,1.2,5,5,0,0,0-.2,2.1,11.1,11.1,0,0,1,.2,1.7A5.8,5.8,0,0,0,36,119a5.3,5.3,0,0,1,.3,1.2,6.4,6.4,0,0,0,.2.7,6.1,6.1,0,0,1,.8,2.6,6.7,6.7,0,0,1,.1,2h0c-.2-.1-.2-.4-.3-.6l-.3-1.3a.5.5,0,0,0-.6-.4.8.8,0,0,0,0-.7v.6l.2.3a12.6,12.6,0,0,1,.4,2.8c0,.4,0,.9.6.9s.2.2.2.3h.2a.3.3,0,0,0,.1-.2c-.1-.3-.4-.6-.2-1h-.1a2.4,2.4,0,0,1,.6,1.1c0,.2,0,.4.2.5h0a20.5,20.5,0,0,0,.5,2.4A2.5,2.5,0,0,1,39,132c-.3-.9-.6-1.6-1-2.6s-.1.5,0,.6.1,2.1.3,3.1a18.3,18.3,0,0,0,1.1,3.3,2.9,2.9,0,0,1,.2.9,14.8,14.8,0,0,0,.3,1.9,3.2,3.2,0,0,0,.6,1.5,1.9,1.9,0,0,1,.2.7,3.3,3.3,0,0,0,.7,1.7l.8,1.3,1,1.1c.2.3.6.6.6,1.1h.1c0,.2,0,0-.1.1s.2-.4.4-.3l.7.7a6.3,6.3,0,0,0,1.2,1.1c.1,0,.2.2.3.4h0a5.8,5.8,0,0,0,2.1,1.7c-.4.4-.4.4-.1.7a1,1,0,0,0,.4.5.2.2,0,0,0,.4.1h0a.6.6,0,0,1,.7.5c.2.5.8.8.9,1.4s.1.2.3.2a1.8,1.8,0,0,1,1.1.8c.2.1.3.2.2.4a.6.6,0,0,0,.4.7,20.7,20.7,0,0,0,7.1,3.2c1,.2,2,.2,3,.3l4,.3c.1,0,.2.1.3,0h3a9.3,9.3,0,0,0,2.4-.5l2.8-1.1,1.4-.2,1.6-.5,2.1-.7a2.4,2.4,0,0,0,1.3-.7,1,1,0,0,1,.6-.5,2.8,2.8,0,0,0,1-.9c.6-1.1,1.3-2.1,1.9-3.1a24.6,24.6,0,0,0,2.2-3.9,8.2,8.2,0,0,1,1.2-2l.6-1c.2-.3.3-.6.6-.7s.5-.6.7-1a8,8,0,0,0,.5-2.1,2.4,2.4,0,0,1,.7-1.2c.1-.1.3-.2.3-.4a5.2,5.2,0,0,0,.2-1.8,6.6,6.6,0,0,1,.7-3.6c0,.1-.1.2,0,.2h-.1c0-.3-.1-.7.1-.7l.3-.3c0-.1.1-.2,0-.2a.6.6,0,0,1-.2-.7,2,2,0,0,1,.6-.7v.2h0a3.2,3.2,0,0,0,.3-.9,8.5,8.5,0,0,1,.6-1.7,7.6,7.6,0,0,0,.3-1.6,5.1,5.1,0,0,0,.3-2.1,8.3,8.3,0,0,1,.1-2.2,5.5,5.5,0,0,0-.2-2.2v-.6a9.7,9.7,0,0,0,.1-1.7h0a5,5,0,0,0,.2-1.2,12.1,12.1,0,0,1,.1-1.9,5.7,5.7,0,0,0-.3-2.9h0c-.2-.6-.1-1.2-.5-1.7s0-.4.1-.6.3-.1.4-.3.4-.8.1-1.2-.2-.5-.3-.7,0-.4.3-.4.3-.1.3-.2-.1-1.3-.2-2a.9.9,0,0,0-.3-.6h0c.2-.1.2-.4.2-.6a19.7,19.7,0,0,0-.3-2.4c-.1-.1-.1-.2-.1-.4a9.7,9.7,0,0,0-.2-2.4c-.1-.4-.1-.9-.2-1.4v-.3c.4-.6.1-1.3.2-2a6.6,6.6,0,0,0-.1-2c-.1-.1-.1-.1-.1,0s.1.6-.2.6-.2-.3-.2-.5S94,92,94,91.7a5.8,5.8,0,0,0-.3-1.9c0-.2-.1-.3-.1-.5a7.4,7.4,0,0,0-.1-2.1c-.1-1.3,0-2.6-.1-3.9s.3.4.4.6.3,3.1.4,4.7a4.4,4.4,0,0,0,.8,2c0,.1.2.1.3,0a1,1,0,0,0,.2-.7c.1-1.3.1-2.5.1-3.7s-.2-4.5-.3-6.8-.2-2.2-.2-3.3a6.9,6.9,0,0,0-.5-2.4,6.9,6.9,0,0,1-.4-2.5c-.1-.9-.1-1.8-.2-2.8a5.9,5.9,0,0,0-.5-2.2c-.1-.1-.2-.3-.1-.4s-.5-1.9-.3-2.9a.4.4,0,0,0-.1-.3c-.4-.4-.5-1.1-.8-1.6h.3c.1.1.2.2.2.3s-.1.2.1.1h-.1l-.2-.2c-.2-.3-.2-.1-.3,0s-.3-.1-.3-.2a3,3,0,0,1-.2-1.3h0a1.6,1.6,0,0,0,.4.7h.2c.1,0,.1,0,.1-.1s-.1-.7-.2-1a5.6,5.6,0,0,0-.4-1.2,2.3,2.3,0,0,0-.7-1.5v-.3c-.1-.1,0-.2.1-.2s0,.2.1.2.1.1.1.2h0a2.2,2.2,0,0,0-.3-1.6,4.9,4.9,0,0,1-.8-1.8,5.2,5.2,0,0,0-.6-1.6c-.5-1-.7-2.1-1.3-3.1s-.1,0,0-.1-.3-1.3-.4-2a.3.3,0,0,1,.1-.2c.1-.2.3-.1.3,0s1.3.7,1.5,1.5.2.2.4.1-.1.8.4.9a.8.8,0,0,0,.2.5.1.1,0,0,1,.1.1h-.1c.1-.2.1-.4-.2-.5a1,1,0,0,0-.5-.8c0-.5-.2-.9-.1-1.3a.2.2,0,0,0-.2-.2h0l-.3-.5h.1a.1.1,0,0,1-.1-.1,1.9,1.9,0,0,1-.5-1c-.1-.2-.1-.4-.2-.6L87.3,41l-.8-1.6-1.4-2.2h0a.8.8,0,0,0-.2-.5c-.5-.4-.7-1-1.3-1.4s-.1-.1-.1-.2,0-.5-.2-.6-.2-.2-.1-.4.4-.1.5,0l.8.7a.6.6,0,0,0,.8,0,.8.8,0,0,0,.1.7h0v-.6l-.7-.4a.5.5,0,0,1-.2-.4,16.9,16.9,0,0,0-1.5-3.7l-.6-1.2c-.1-.1,0-.2.1-.3h.3l2,1.6.4.3h0c.1-.4-.2-.7-.3-1l-2.3-3.6a27.5,27.5,0,0,1-1.7-2.9c-.2-.4-.5-.8-.3-1.3a2.1,2.1,0,0,1,1.1.7l2.2,2.5c.1.2.2.5.5.5h.1c0-.1-.1-.1-.1-.2l.2-.3c.1-.3.2-.3.5-.1a10.1,10.1,0,0,1,1.3.9,2.2,2.2,0,0,0,1.8.8c.1-.1-.1-.2-.2-.3a1.2,1.2,0,0,1-.5-.5,10,10,0,0,1-1.5-2.9,5.9,5.9,0,0,0-1-1.7.8.8,0,0,1-.2-.5h-.1v-.2h.1l-.3-.2h0c0-.2-.1-.3-.3-.5h.1c-.1-.2-.1-.3-.3-.3h0a3.3,3.3,0,0,0-.9-1.1c-.2-.2-.3-.3,0-.5h.1c0-.2-.1-.5.2-.6h.6c.3.1.6.4,1,.4h-.1a.6.6,0,0,0-.2-.7,13.7,13.7,0,0,1-1.3-2,1.3,1.3,0,0,1-.2-1.2A4.5,4.5,0,0,1,85,15.4l2.8,2.7A14.9,14.9,0,0,1,89,19.5a11.4,11.4,0,0,0,1.5,1.6l.8.8,1.2,1.5a10.4,10.4,0,0,1,1.2,1.7L94.9,27h0c0,.2.1,0,0,.1a6.5,6.5,0,0,0-.5-2,16.3,16.3,0,0,0-1.1-3.1.7.7,0,0,1-.1-.6,6.6,6.6,0,0,0-.1-1.4l-.2-.5v-.2c.1-.1.2,0,.3.1a2.1,2.1,0,0,1,.4.6,3.3,3.3,0,0,0,1.1,1.5,8.1,8.1,0,0,1,.9,1l1,1.3h.4c.2,0,.1.7.6.3a1.3,1.3,0,0,1,.6.7.3.3,0,0,0,.3.3c.6-.3.6.3.7.6a1.5,1.5,0,0,0,.9.6c.2.1.5.1.6.4s.4.4.6.1h.2a.3.3,0,0,1,.1.2.4.4,0,0,0-.1.3.6.6,0,0,0-.1.7,4.1,4.1,0,0,0,.7,1.1,7,7,0,0,1,1,1.6,7.2,7.2,0,0,0,1.4,2.4c.2.2.2.4-.1.6h0l.3.6a13.8,13.8,0,0,0,1.7,2.5c0,.1.1.2.1.3a11.1,11.1,0,0,0,1.7,2.7,3.7,3.7,0,0,1,.7,1.4.7.7,0,0,0,.1.5c.9,1.6,1.3,3.3,2.1,4.8s1,2.5,1.5,3.7.5,1.8.8,2.8.5,2,.8,2.9a16.7,16.7,0,0,1,.8,3.2,9.9,9.9,0,0,1,.3,2.4c.2,1.4.4,2.9.7,4.4a30.3,30.3,0,0,1,.6,4.2c.2,2.2.1,4.4.2,6.6.1.6,0,1.3.1,1.9a3.1,3.1,0,0,0,.6,1.6,2,2,0,0,1,.3,1.1,12.2,12.2,0,0,0,0,3.3v.3a9.5,9.5,0,0,0-.2,2.9,5,5,0,0,0,.2,1.2,22.9,22.9,0,0,1,.7,3.6,4.1,4.1,0,0,0,.4,1.9v.3c.1.4-.4.6-.2.9a1.7,1.7,0,0,1,.1,1c0,.8-.1,1.7-.1,2.5a6.5,6.5,0,0,1,0,1.4c0,.4.5.2.4.5a2.8,2.8,0,0,1-.1.9c0,.2-.1.5-.1.7a15.6,15.6,0,0,0-.2,3.1,18.3,18.3,0,0,1-.2,3.3,1.7,1.7,0,0,0-.1.7c0,1.4-.2,2.9-.3,4.3a8,8,0,0,0,.2,3.1,3.7,3.7,0,0,1,.1,1.8,24.4,24.4,0,0,1,.1,2.7,2.2,2.2,0,0,0,.1,1.1c.1.1,0,.2-.2.2s-.4.2-.3.4.2.3.2.4-.1.3-.2.3-.4-.2-.5.1a.5.5,0,0,1-.2.4,4.2,4.2,0,0,0-.9,2.4,8,8,0,0,0-.3,1.5,22.4,22.4,0,0,1-.8,5.7,8.8,8.8,0,0,1-.5,1.5h0a20.2,20.2,0,0,0-.6,3.4,2.9,2.9,0,0,1-.3,1l-.3,1-.6,2a2.5,2.5,0,0,1-.4.7,2.9,2.9,0,0,0-.6,1.9v.2c-.1.3-.5.4-.5.7s.1.7-.1,1h0a30.9,30.9,0,0,0-1.4,3.2l-.2.3v-.4c0-.1,0-.2-.1-.2h-.1c-.1.1-.1.3,0,.3l.3.2a2.5,2.5,0,0,0-.4.7.9.9,0,0,0,.2,1.2h0a7.5,7.5,0,0,1-1.7,1.4h0a.9.9,0,0,0,.1-.5c.1-.3.3-.5.1-.8h0A1.1,1.1,0,0,0,108.4,153.9ZM90.2,173.6h0c0,.1-.1.2-.1.3s-.5.1-.7.2-.5.6-.9.6h0c.7.2,1.1-.3,1.5-.8ZM47.8,36.6c-.2,0,0,.1-.1,0h0c0-.1,0-.1.1-.1s-.1,0-.1,0S47.7,36.5,47.8,36.6ZM20.6,31.4h.1c0,.1-.1.1-.1.2Zm-.3.9a.5.5,0,0,0-.3.5.2.2,0,0,0,.1.3.3.3,0,0,0,.1-.2v-.6h.1c0-.1.1,0,0,0ZM95,97.3a3.1,3.1,0,0,0,.1,1c0,.2,0,.4.3.4s.2-.2.2-.5S95.4,97.6,95,97.3ZM35.8,119.8c.1.7.1,1.2.2,1.7s.1.2.3.1h.1l-.3-1.3C36.1,120.1,36,120.1,35.8,119.8ZM19.7,35.5a7.1,7.1,0,0,0-.4,2.1A5.2,5.2,0,0,0,19.7,35.5Zm16,64.3a2.1,2.1,0,0,0-.1-1.6C35.6,98.6,35.3,99.1,35.7,99.8Zm6.1-51.6c0-.4.1-.8-.1-1.1S41.5,47.9,41.8,48.2Zm-.7,1.3h.1c0,.1,0,.2.2.1a.3.3,0,0,0,.1-.2c0-.1-.1-.2-.1-.3s-.1-.1-.2-.1a.1.1,0,0,1-.1.1Zm54.2,50v.2c.1,0,.2,0,.1-.1ZM110.6,149c.1-.1.2-.2.1-.3h-.1c-.1,0-.1.1-.1.2Zm-19.2-8.2c0-.1.1-.1.1-.2h-.2A.1.1,0,0,0,91.4,140.8ZM50.6,153.9h0Zm45-46.1h0ZM110.9,148ZM93.1,134.8h0Zm2-43.6h0Z"/><path class="cls-1" d="M54.7,33.6c-.4.4-.4,1-.9,1.3a7.7,7.7,0,0,1-1.5.2h-.5c-.1-.2,0-.3.1-.4l1.2-.9.6-.7c.3-.4.3-.9.7-1.1l1.1-.5h0a.1.1,0,0,1,.1.1h0c.4.5.4.5.1.9a5.2,5.2,0,0,0-1,1.1c-.1-.3-.2-.4-.4-.3l-.3.3h.7Z"/><path class="cls-1" d="M88.6,54.9c.1.1.3.2.3.3l.9,2.3a.3.3,0,0,1-.1.2c-.1,0-.2,0-.2-.1s-.9-1.7-.8-2.7Z"/><path class="cls-1" d="M41.8,66.7c-.3-.1-.2-.3-.3-.4l-.3-1.4v-.2h.2c.3.3.6.6.4,1.1A2.8,2.8,0,0,0,41.8,66.7Z"/><path class="cls-1" d="M41.2,62.6l-.3-1.4c0-.2,0-.3.2-.4a.4.4,0,0,1,.4.2.3.3,0,0,1,.1.2A1.8,1.8,0,0,1,41.2,62.6Z"/><path class="cls-1" d="M94.2,127.5c.1.4.1.7-.2.9h-.2v-.2c-.1-.3.1-.7.1-1l.2-.2c.2-.1.2.1.2.2Z"/><path class="cls-1" d="M41.6,69v-.4c.1-.2.1-.4.3-.4s.3.2.3.4,0,.4-.2.6-.1.2-.2.1a.2.2,0,0,1-.2-.2Z"/><path class="cls-1" d="M41.2,58.3c.2,0,.3.1.4.3a2.2,2.2,0,0,1,0,1.4A1.8,1.8,0,0,1,41.2,58.3Z"/><path class="cls-1" d="M114.9,149.9a3.9,3.9,0,0,1-.8,2,1.6,1.6,0,0,1,.1-1c.2-.3.2-.7.5-.9Z"/><path class="cls-1" d="M36.1,78a1.6,1.6,0,0,1,0,1.5H36A2.3,2.3,0,0,1,36.1,78Z"/><path class="cls-1" d="M42.4,136.5a.5.5,0,0,1,.3.5c.1.3.2.6,0,.8s-.3-.2-.4-.7S42.2,136.6,42.4,136.5Z"/><path class="cls-1" d="M91.1,58.7a7.1,7.1,0,0,1-.4-1.7,5.3,5.3,0,0,1,.6,1.4c.1.2-.1.3-.2.3Z"/><path class="cls-1" d="M38.4,127.7c0-.2.1-.4.1-.8a3.7,3.7,0,0,1,.4,1.5l-.5-.7Z"/><path class="cls-1" d="M41.6,137.2c-.4-.3-.3-.8-.3-1.2S41.7,136.7,41.6,137.2Z"/><path class="cls-1" d="M84.5,37h-.3a1.7,1.7,0,0,1-.6-1.2h0a2.4,2.4,0,0,1,.9,1.3Z"/><path class="cls-1" d="M90.6,58.9c-.4-.4-.4-1-.5-1.8a4.9,4.9,0,0,1,.5,1.8Z"/><path class="cls-1" d="M84.2,20.6c-.3-.1-.5-.4-.8-.7h0a.2.2,0,0,1,.3,0c.1.1.1.2.3.2h-.1c.1.1.1.2.3.2h0v.4Z"/><path class="cls-1" d="M93.7,111.6a.9.9,0,0,0,.3-.7c.1-.2.2-.1.4-.1h0c-.1.6-.2.7-.7.8Z"/><path class="cls-1" d="M119.9,94.9h.1c.2.1.2.2.2.3s0,.1-.1.1Z"/><path class="cls-1" d="M86.7,175.9c-.1.4-.5.5-.8.6h0c0-.3.2-.4.3-.6h.5Z"/><path class="cls-1" d="M115.4,148.5v-.3h.2c.1.1.1.2,0,.2l-.2.2Z"/><path class="cls-1" d="M36.2,94.9c0-.1,0-.1.1-.1h0v.2C36.2,95.1,36.2,95,36.2,94.9Z"/><path class="cls-1" d="M93.7,123.7a1.4,1.4,0,0,0-.2.6c-.2-.3-.1-.5.2-.6Z"/><path class="cls-1" d="M89.7,59.1c.1-.1,0-.3.2-.2a.3.3,0,0,1,.1.2c0,.1,0,.2-.1.2S89.8,59.2,89.7,59.1Z"/><path class="cls-1" d="M85.9,176.5l-.8.3h0c.2-.4.5-.3.8-.3Z"/><path class="cls-1" d="M42.9,65.6H43C42.9,65.7,42.9,65.7,42.9,65.6Z"/><path class="cls-1" d="M90.9,59.7c-.4-.2-.2-.5-.3-.8h.2c0,.3.1.6.1.8Z"/><path class="cls-1" d="M41.8,138h.1c.1.1,0,.2,0,.1Z"/><path class="cls-1" d="M49.2,151.4l-.2-.2V151h.2v.3Z"/><path class="cls-1" d="M120,96.7h-.1c0,.1,0,.1-.1.1s0-.1.1-.1Z"/><polygon class="cls-1" points="90.4 176.5 90.4 176.5 90.4 176.4 90.4 176.5"/><path class="cls-1" d="M118,77.4h0Z"/><path class="cls-1" d="M85.1,176.8h-.4c-.1-.1,0-.2.1-.1Z"/><path class="cls-1" d="M99.5,25v-.2h.1a.1.1,0,0,1-.1.1Z"/><path class="cls-1" d="M37.4,125.5l.3.6h0c-.2-.2-.2-.4-.3-.6Z"/><path class="cls-1" d="M93.6,123.7v-.2h0c.2.1,0-.1,0,.1v.2Z"/><polygon class="cls-1" points="94 126.3 94.1 126.2 94.1 126.3 94 126.3"/><path class="cls-1" d="M93.7,129.4h-.1c0-.1.1-.1.1,0Z"/><path class="cls-1" d="M43.7,136.3h0v.2Z"/><polygon class="cls-1" points="40.2 136.8 40.2 136.7 40.3 136.7 40.2 136.8"/><path class="cls-1" d="M26.2,17.4h0Z"/><path class="cls-1" d="M104.5,160.5c0-.3.3-.4.2-.7h0c0,.3,0,.5-.2.6Z"/><path class="cls-1" d="M106,158.4c-.1.3-.1.3-.4.2h0l.2-.2h.2Z"/><polygon class="cls-1" points="41.1 54.3 41.1 54.2 41.2 54.2 41.1 54.3"/><path class="cls-1" d="M115.2,148.9c.1-.1.1-.3.2-.4h0a.5.5,0,0,1-.2.4Z"/><path class="cls-1" d="M115.2,54.9c-.2-.1.1-.1-.1-.1a.1.1,0,0,0-.1.1c.1.1.1.1.2,0Z"/><path class="cls-1" d="M115.2,54.9c0,.1,0,.1-.1.2s0-.1.1-.2Z"/><path class="cls-1" d="M115.2,148.9c0,.2-.1.3-.3.4h0l.3-.4Z"/><polygon class="cls-1" points="51.1 34.2 51 34.2 51 34.2 51.1 34.2"/><path class="cls-1" d="M114.9,149.3c.1.2.2.4,0,.6h0c-.1-.2.1-.4,0-.6Z"/><path class="cls-1" d="M91.8,59.5c-.1,0-.2,0-.2-.1a.1.1,0,0,1,.1.1Z"/><polygon class="cls-1" points="45.8 174.5 45.9 174.4 45.9 174.5 45.8 174.5"/><path class="cls-1" d="M109.9,153v0Z"/><path class="cls-1" d="M51.6,33.1c0,.1,0,.2-.1.2s-.1-.1-.1-.1h.2Z"/><path class="cls-1" d="M90.9,59.7h0Z"/><path class="cls-1" d="M89.7,46.1a.5.5,0,0,1,0-.5h0v.5Z"/><path class="cls-1" d="M93.7,111.6h0Z"/><path class="cls-1" d="M95.2,104.2Z"/><path class="cls-1" d="M108.3,154.4h0Z"/><path class="cls-1" d="M120,96.7Z"/><polygon class="cls-1" points="94.4 110.8 94.4 110.8 94.4 110.8 94.4 110.8"/><polygon class="cls-1" points="95.2 111.9 95.2 111.8 95.2 111.9 95.2 111.9"/><polygon class="cls-1" points="95.2 117.9 95.1 117.9 95.2 117.9 95.2 117.9"/><polygon class="cls-1" points="115.1 135.7 115.1 135.7 115.1 135.7 115.1 135.7"/><path class="cls-1" d="M90.8,59l.3-.3h0l-.3.2Z"/><polygon class="cls-1" points="88.7 54.9 88.6 54.9 88.6 54.9 88.7 54.9"/><path class="cls-1" d="M26,159c-.1,0,0-.1,0,0s0,.1,0,0Z"/><path class="cls-1" d="M26,159Z"/><path class="cls-1" d="M89.9,46.1h0Z"/><path class="cls-1" d="M113.4,153.5h0Z"/><path class="cls-1" d="M113.3,153.6h0Z"/><path class="cls-1" d="M26.9,160.5h0Z"/><path class="cls-1" d="M85.2,37.2a.3.3,0,0,1-.1-.2h0v.2Z"/><path class="cls-1" d="M84.5,37Z"/><polygon class="cls-1" points="83.6 35.7 83.6 35.8 83.6 35.7 83.6 35.7"/><polygon class="cls-1" points="106 158.4 106.1 158.3 106 158.4 106 158.4"/><path class="cls-1" d="M104.4,160.4l-.2.2h.2Z"/><polygon class="cls-1" points="54 31.5 54.1 31.5 54 31.5 54 31.5"/><polygon class="cls-1" points="104.2 160.6 104.2 160.7 104.2 160.6 104.2 160.6"/><path class="cls-1" d="M68,27.5h.1c-.1-.1-.1-.1-.1,0Z"/><polygon class="cls-1" points="101.9 162.7 101.9 162.8 101.9 162.8 101.9 162.7"/><path class="cls-1" d="M97.1,23.8h0Z"/><path class="cls-1" d="M21.5,27.1h0c.1,0,.1,0,0-.1Z"/><path class="cls-1" d="M22,27h-.5c.1.1.3,0,.5-.1Z"/><path class="cls-1" d="M84.7,21c-.1,0-.1-.1-.2-.2h.2v.3Z"/><path class="cls-1" d="M84.5,20.8l-.3-.2h.2v.2Z"/><polygon class="cls-1" points="23.7 23.6 23.7 23.5 23.7 23.6 23.7 23.6"/><polygon class="cls-1" points="76.6 13.8 76.6 13.8 76.6 13.8 76.6 13.8"/><path class="cls-1" d="M91,174.8Z"/><path class="cls-1" d="M31.4,13.4h0Z"/><path class="cls-1" d="M91,175h0v-.3Z"/><path class="cls-1" d="M91,175.2h0Z"/><path class="cls-1" d="M78.6,6.7c-.2,0,0-.1-.1,0Z"/><g class="cls-2"><path d="M15.7,92.9h5.8l4.8,25.3h.1l4-25.3H37l-7.3,39.7H23.8l-5.1-26.3h-.2l-4.7,26.3h-6L0,92.9H6.6L11,118.2h.1Z"/><path d="M43.5,132.6H36.7l7.5-39.7H53l7.6,39.7H53.8l-1.3-8.8H44.8Zm2.3-14.8h5.7l-2.8-17h-.1Z"/><path d="M77.6,102.7c-.3-3.5-2.2-4.4-3.7-4.4s-3.6,1.4-3.6,3.9c0,6.7,14.4,10,14.4,20.7,0,6.6-4.6,10.2-11.2,10.2s-10.3-5-10.6-11l6.7-.9c.3,4,2,6,4.3,6s4.1-1.3,4.1-3.6c0-7.9-14.4-10-14.4-21.4,0-6.3,4-9.9,10.9-9.9s9.2,4,9.9,9.6Z"/><path d="M94.2,98.8H87.3V92.9h20.8v5.9h-6.9v33.8h-7Z"/><path d="M112.3,132.6V92.9h18.9v5.9H119.3V109h9.2v6h-9.2v11.6H132v6Z"/></g><g class="cls-2"><path d="M37.9,73.9v-3H49v3L41.7,85.1H49V88H37.4V85.1l7.3-11.2Z"/><path d="M64,80.1H55.7v2.5c0,2,.8,2.8,2.2,2.8s2.2-.8,2.2-2.8v-.4H64c-.1,3.6-1.7,6.1-6.1,6.1s-6.1-2.6-6.1-6.3V77c0-3.8,1.6-6.4,6.1-6.4S64,73.2,64,77Zm-3.9-2.9v-.9c0-1.9-.8-2.8-2.2-2.8s-2.2.9-2.2,2.8v.9Z"/><path d="M67.6,88V70.9h3.8v2h0a5.4,5.4,0,0,1,4.5-2.3h.8v3.7a14.2,14.2,0,0,0-2.5-.3c-1.4,0-2.7.7-2.7,2.3V88Z"/><path d="M79.1,77c0-3.8,1.6-6.4,6.1-6.4s6.1,2.6,6.1,6.4v5c0,3.7-1.6,6.3-6.1,6.3s-6.1-2.6-6.1-6.3Zm8.3-.7c0-1.9-.8-2.8-2.2-2.8s-2.2.9-2.2,2.8v6.3c0,2,.8,2.8,2.2,2.8s2.2-.8,2.2-2.8Z"/></g></g></g></svg>