<?xml version="1.0" encoding="utf-8"?>
<!-- Generator: Adobe Illustrator 23.0.4, SVG Export Plug-In . SVG Version: 6.00 Build 0)  -->
<svg version="1.1" id="Ebene_1" xmlns="http://www.w3.org/2000/svg" xmlns:xlink="http://www.w3.org/1999/xlink" x="0px" y="0px"
	 viewBox="0 0 283.46 83.91" style="enable-background:new 0 0 283.46 83.91;" xml:space="preserve">
<style type="text/css">
	.st0{fill:#97A922;}
</style>
<g>
	<path class="st0" d="M255.67,42.12c-0.38,0-0.75,0-1.13,0c-0.23,0-0.3,0.08-0.17,0.24c0.04,0.05,0.14,0.03,0.21,0.06
		c0.13,0.06,0.35,0.11,0.36,0.19c0.04,0.25-0.76,1.23-1.02,1.29c-0.22,0.05-0.45,0.05-0.67,0.08c-0.13,0.02-0.25,0.07-0.67,0.2
		c0.94,0.01,1.59,0.02,2.24,0.04c0.6,0.02,1.19,0.06,1.79,0.1c0.06,0,0.11,0.1,0.16,0.15c-0.1,0.08-0.21,0.23-0.3,0.22
		c-0.78-0.1-1.49,0.12-2.16,0.48c-1.2,0.66-2.48,0.99-3.84,1.18c-1.1,0.15-2.17,0.56-3.24,0.88c-0.79,0.23-1.58,0.47-2.36,0.74
		c-0.1,0.03-0.15,0.24-0.19,0.37c-0.05,0.15,0.06,0.25,0.25,0.28c0.07,0.01,0.16,0.03,0.22,0.01c1.7-0.6,3.57-0.46,5.25-1.16
		c0.34-0.14,0.73-0.17,1.1-0.21c0.45-0.04,0.9-0.04,1.45-0.06c-1.65,1.17-1.95,1.31-3.27,1.55c-1.77,0.32-3.55,0.63-5.31,0.96
		c-0.19,0.04-0.35,0.24-0.52,0.37c-0.02,0.01,0.03,0.16,0.05,0.16c0.89-0.01,1.77-0.1,2.65-0.25c0.51-0.09,1.04-0.19,1.55,0
		c0.05,0.02,0.09,0.11,0.1,0.18c0.01,0.06-0.02,0.15-0.06,0.19c-0.3,0.27-0.67,0.3-1.05,0.32c-1.15,0.05-2.17,0.53-3.2,0.96
		c-0.69,0.29-1.1,0.98-1.81,1.26c-0.26,0.1-0.08,0.36,0.12,0.48c0.19,0.1,0.19,0.19-0.02,0.28c-0.27,0.12-0.49,0.24-0.64,0.55
		c-0.24,0.49-0.43,0.46-1.07,0.07c0.05-0.02,0.12-0.04,0.16-0.07c0.02-0.02,0.01-0.08,0.01-0.12c-0.04,0.08-0.07,0.16-0.11,0.24
		c-0.84-0.07-1.61-0.02-2.29,0.62c-0.44,0.42-1.08,0.48-1.69,0.42c-2.41-0.22-3.8-0.12-5.96,0.26c-0.63,0.11-1.14,0.3-1.54,0.79
		c-0.09,0.11-0.24,0.17-0.4,0.28c2.35,0.28,4.57-0.26,6.78-0.79c1.18-0.28,2.34-0.44,3.53-0.2c0.04,0.01,0.1,0.1,0.09,0.13
		c-0.02,0.07-0.07,0.17-0.13,0.18c-1.68,0.29-3.32,0.8-5.02,1c-0.05,0.01-0.11,0.09-0.13,0.14c-0.07,0.17-0.02,0.3,0.14,0.36
		c0.49,0.2,1.01,0.25,1.53,0.2c0.37-0.04,0.74-0.07,1.11-0.06c0.11,0,0.28,0.14,0.31,0.25c0.04,0.11-0.02,0.32-0.1,0.38
		c-0.83,0.53-1.73,0.85-2.74,0.84c-0.34,0-0.48,0.31-0.64,0.56c-0.86-0.04-1.73-0.18-2.59,0.08c0.06,0.06,0.12,0.14,0.17,0.14
		c0.81-0.07,1.62-0.14,2.43-0.22c0.28-0.09,0.56-0.23,0.85-0.26c3.06-0.27,6.06-0.94,9.07-1.54c0.6-0.12,1.12-0.3,1.54-0.82
		c0.21-0.26,0.64-0.37,0.98-0.5c0.21-0.08,0.47-0.06,0.6,0.16c0.28,0.5,0.78,0.55,1.17,0.42c1.01-0.33,2.08-0.16,3.09-0.44
		c0.47-0.13,0.97-0.14,1.65,0.11c-0.55,0.11-0.91,0.16-1.25,0.27c-0.35,0.11-0.68,0.3-1.03,0.44c-0.21,0.09-0.44,0.24-0.63,0.21
		c-1.26-0.2-2.07,0.66-3.01,1.23c-0.13,0.08-0.25,0.16-0.4,0.26c0.5-0.02,0.98-0.07,1.46-0.04c0.52,0.03,1.04,0.17,1.56,0.18
		c0.6,0.01,1.19-0.09,1.79-0.12c0.37-0.02,0.74,0,1.1,0.02c0.05,0,0.11,0.09,0.13,0.15c0.01,0.06-0.02,0.18-0.06,0.19
		c-1.17,0.24-2.34,0.49-3.52,0.71c-1.18,0.22-2.36,0.43-3.54,0.63c-0.46,0.08-0.85,0.28-1.22,0.55l0.05,0
		c-0.3,0.02-0.6,0.05-0.9,0.07c-0.3,0.02-0.62-0.02-0.89,0.08c-0.23,0.08-0.14,0.56-0.56,0.55c-0.3-0.01-0.61,0.02-0.89,0.12
		c-1.64,0.57-3.37,0.72-5.06,1.03c-1.62,0.3-3.26,0.5-4.89,0.75c-0.15,0.02-0.3,0.03-0.44,0.08c-1.21,0.47-2.48,0.55-3.75,0.61
		c-0.13,0.01-0.26,0.12-0.45,0.21c0.27,0.05,0.48,0.13,0.69,0.12c0.67-0.01,1.35-0.01,2.02-0.1c1.49-0.2,2.98-0.34,4.48-0.42
		c0.74-0.04,1.49-0.18,2.22-0.34c1.18-0.25,2.37-0.32,3.57-0.36c0.13,0,0.27,0.07,0.41,0.11c-0.13,0.06-0.26,0.16-0.4,0.18
		c-1.4,0.23-2.8,0.54-4.22,0.66c-1.42,0.12-2.82,0.39-4.23,0.6c-0.66,0.1-1.11,0.38-1.43,0.94c-0.09,0.15-0.29,0.13-0.35-0.04
		c-0.2-0.5-0.51-0.66-1.06-0.56c-1.99,0.36-3.99,0.67-5.98,1.02c-0.36,0.06-0.7,0.25-1.05,0.38l0.06-0.06
		c-0.34,0.08-0.67,0.15-1.01,0.23l0-0.01c-0.07,0-0.15,0.01-0.22,0.01c-0.88-0.04-1.44,0.29-1.49,1.24c0,0.05-0.08,0.13-0.13,0.13
		c-0.05,0-0.14-0.06-0.15-0.1c-0.11-0.47-0.28-0.87-0.88-0.79c-1.22-0.48-2.46-0.44-3.73-0.17c-0.65,0.14-1.33,0.19-1.99,0.27
		c-0.89,0.11-1.79,0.16-2.67,0.31c-2.36,0.4-4.74,0.44-7.13,0.38c-1.28-0.03-2.52,0.15-3.66,0.79l0.06-0.02
		c-0.12,0.08-0.29,0.14-0.35,0.26c-0.05,0.1-0.02,0.35,0.05,0.38c0.39,0.2,0.83,0.31,1.2,0.54c0.1,0.06,0.06,0.42,0.01,0.62
		c-0.04,0.16-0.23,0.21-0.36,0.1c-0.24-0.19-0.48-0.39-0.79-0.19c-0.53,0.33-1.13,0.44-1.73,0.37c-0.89-0.1-1.81,0.21-2.67-0.19
		c-0.06-0.03-0.12-0.09-0.17-0.13c0.09-0.09,0.17-0.21,0.28-0.25c0.27-0.12,0.57-0.18,0.84-0.3c0.24-0.1,0.3-0.55,0.14-0.8
		c-0.2-0.34-0.48-0.62-0.88-0.62c-0.9-0.01-1.8,0.04-2.7,0.07c-1.12,0.04-2.25,0.08-3.37,0.14c-0.52,0.03-1.07,0.01-1.52,0.32
		c-0.6,0.41-1.24,0.47-1.94,0.4c-0.3-0.03-0.6-0.04-0.89,0.01c-0.21,0.04-0.41,0.17-0.58,0.31c-0.1,0.08-0.14,0.25-0.18,0.39
		c-0.04,0.18,0.23,0.41,0.45,0.39c0.97-0.07,1.94-0.15,2.91-0.2c0.32-0.02,0.57,0.16,0.76,0.41c0.05,0.06,0.11,0.14,0.1,0.19
		c-0.04,0.12-0.11,0.3-0.2,0.33c-0.36,0.11-0.73,0.21-1.1,0.22c-0.67,0.03-1.35,0-2.02-0.01c-1.13-0.03-2.23,0.06-3.35,0.3
		c-1.38,0.3-2.81,0.4-4.22,0.09c-0.74-0.16-1.5-0.18-2.24-0.03c-0.83,0.16-1.65,0.1-2.46-0.01c-0.74-0.1-1.46-0.29-2.17,0.2
		c-0.22,0.15-0.58,0.11-0.87,0.11c-1.13,0.01-2.25,0-3.38,0c-0.9,0-1.8-0.02-2.7,0c-1.79,0.05-3.59,0.05-5.39,0.15
		c-1.42,0.08-2.84-0.01-4.27-0.03c-0.75-0.01-1.5-0.02-2.25-0.03c-1.5-0.01-2.99,0.03-4.49-0.03c-1.79-0.07-3.59,0.06-5.39,0.08
		c-1.05,0.01-2.1-0.01-3.14-0.02c-0.38,0-0.75-0.03-1.13-0.02c-3.22,0.07-6.45,0.16-9.67,0.23c-0.75,0.02-1.53,0.14-2.24-0.04
		c-0.82-0.21-1.55-0.41-2.34,0.07c-0.22,0.13-0.6,0.08-0.89,0.03c-0.97-0.18-1.94-0.1-2.91-0.12c-0.9-0.02-1.78-0.05-2.68,0.01
		c-0.97,0.06-1.95-0.02-2.92-0.05c-1.05-0.03-2.1-0.11-3.14-0.11c-3.07-0.01-6.15,0.04-9.22,0.24c-1.49,0.1-3,0.12-4.49-0.14
		c-0.29-0.05-0.6-0.06-0.9-0.06c-1.87,0.03-3.74,0.06-5.62,0.11c-1.28,0.03-2.55,0.1-3.81-0.18c-0.29-0.06-0.64-0.05-0.87-0.2
		c-1.13-0.75-2.46-0.56-3.69-0.85c-0.85-0.2-1.79-0.1-2.62,0.38c-0.17,0.1-0.47,0.14-0.64,0.05c-0.57-0.29-1.14-0.23-1.75-0.17
		c-1.64,0.17-3.29,0-4.94-0.05c-0.75-0.02-1.5-0.11-2.25-0.08c-1.51,0.06-3-0.17-4.48-0.37c-2.89-0.41-5.76-0.95-8.65-1.38
		c-2.07-0.31-4.16-0.52-6.23-0.8c-1.41-0.19-2.83-0.41-4.15-0.97c-1.13-0.48-2.3-0.71-3.5-0.75c-1.05-0.03-2.09-0.16-3.12-0.35
		c-1.33-0.24-2.67-0.38-4.02-0.46c-1.04-0.06-2.09-0.23-3.13-0.34c-1.56-0.16-3.1-0.53-4.69-0.41c-0.37,0.03-0.75-0.04-1.12-0.1
		c-2-0.33-3.98-0.73-5.91-1.34c-0.21-0.07-0.48-0.11-0.61-0.26c-0.47-0.57-1.16-0.65-1.79-0.86c-0.71-0.24-1.44-0.43-2.14-0.68
		c-1.02-0.36-1.9-0.89-2.29-2c-0.1-0.27-0.3-0.53-0.51-0.73c-0.4-0.38-0.26-0.83-0.26-1.27l-0.08-0.04c0.3,0.74,1.12,0.94,1.58,1.5
		c0.76,0.93,1.96,1.26,2.82,2.05c0.14,0.13,0.42,0.12,0.63,0.16c0.19,0.04,0.54-0.16,0.52-0.3c-0.02-0.14-0.06-0.31-0.16-0.39
		c-0.64-0.5-1.3-0.98-1.95-1.45c-1.14-0.83-1.14-0.83-1.16-2.34l0.01,0.02c0.02,0.13,0,0.3,0.08,0.37c0.08,0.07,0.28,0.1,0.37,0.04
		c0.08-0.06,0.16-0.28,0.11-0.35c-0.19-0.31-0.38-0.64-0.65-0.87c-0.48-0.4-0.78-0.88-0.92-1.47c-0.11-0.44-0.32-0.78-0.66-1.1
		c-0.44-0.41-0.32-0.83,0.25-1.24c0.12-0.08,0.26-0.14,0.39-0.21c-0.01,0.13-0.01,0.27-0.03,0.4c-0.01,0.07-0.04,0.13-0.05,0.2
		c0,0.03,0.05,0.07,0.07,0.1c0-0.1,0-0.2,0-0.3c0-0.13,0-0.26,0.01-0.39c-0.47,0-0.94,0.01-1.41,0.01c-0.01,0,0.05,0.01,0.05,0.01
		c-0.23-0.17-0.3-0.41-0.36-0.67c-0.06-0.25-0.19-0.48-0.28-0.72l0.06,0.05c-0.13-0.27-0.2-0.59-0.4-0.79
		c-0.71-0.7-0.34-1.5-0.21-2.26c0.02-0.14,0.34-0.22,0.53-0.34c0.11-0.03,0.21-0.07,0.32-0.1c-0.02-0.04-0.04-0.08-0.06-0.11
		c-0.09,0.07-0.18,0.14-0.28,0.21c0.01-0.28,0.24-0.55-0.02-0.83c-0.15-0.17-0.26-0.37-0.39-0.55c-0.44-0.59-0.44-0.6,0.32-0.78
		c0.19-0.04,0.3-0.08,0.25-0.22c-0.02-0.05-0.11-0.09-0.17-0.12c-0.3-0.15-0.48-0.39-0.41-0.72c0.07-0.31,0.35-0.46,0.65-0.53
		c0.22-0.05,0.45-0.05,0.65-0.13c0.11-0.05,0.25-0.23,0.24-0.33c-0.13-0.88-0.28-1.77-0.44-2.65c-0.05-0.29-0.18-0.57-0.2-0.86
		c-0.03-0.7-0.39-1.08-1.02-1.31c-0.23-0.08-0.21-0.25-0.02-0.53c0.13-0.18,0.26-0.36,0.39-0.54c0,0-0.08,0.04-0.08,0.04
		c0.34,0.27,0.61,0.63,1.12,0.66c0.59,0.03,1.17,0.15,1.76,0.2c0.11,0.01,0.25-0.12,0.36-0.21c0.15-0.13,0.13-0.4-0.07-0.59
		c-0.2-0.2-0.36-0.48-0.74-0.35c-0.39,0.13-0.72-0.02-1.02-0.27l-0.04,0.06c0.12-0.07,0.23-0.19,0.36-0.21
		c0.38-0.08,0.63-0.22,0.58-0.68c-0.02-0.2,0.05-0.42,0.13-0.61c0.14-0.34-0.02-0.51-0.28-0.68c-0.1-0.07-0.15-0.22-0.22-0.34
		l-0.05,0.05c0.44-0.07,0.93-0.06,1.22-0.46c0.29-0.42,0.75-0.45,1.15-0.6c0.2-0.08,0.23-0.19,0.1-0.35
		c-0.05-0.06-0.07-0.14-0.13-0.17c-0.45-0.27-0.47-0.71-0.5-1.17c-0.03-0.46,0.35-0.62,0.59-0.88c0.25-0.26,0.23-0.41-0.03-0.5
		c-1-0.34-2.02-0.48-3.08-0.35C11,31.18,10.6,31,10.27,30.67c-0.08-0.08-0.11-0.24-0.12-0.37c0-0.04,0.11-0.13,0.17-0.12
		c0.37,0.01,0.74,0.08,1.11,0.06c0.29-0.01,0.59-0.09,0.86-0.18c0.1-0.03,0.2-0.22,0.19-0.33c-0.01-0.13-0.12-0.35-0.2-0.35
		c-0.44-0.04-0.88,0-1.33-0.03c-0.09-0.01-0.16-0.2-0.25-0.3c0.06-0.04,0.12-0.11,0.18-0.13c0.21-0.06,0.43-0.16,0.64-0.15
		c0.52,0.02,1.04,0.11,1.56,0.11c0.18,0,0.51-0.21,0.51-0.33c0-0.72,0.29-1.47-0.27-2.14c-0.36-0.44-0.04-0.84,0.27-1.19l-0.05,0.05
		c0.82-0.37,1.64-0.69,2.54-0.86c1.1-0.2,2.19-0.5,3.18-1.04c0.04-0.02,0.05-0.15,0.03-0.21c-0.02-0.06-0.08-0.16-0.13-0.16
		c-1.23-0.09-2.37,0.16-3.39,0.89c-0.16,0.12-0.31,0.11-0.35-0.07c-0.03-0.12,0.03-0.27,0.08-0.4c0.02-0.06,0.09-0.13,0.15-0.15
		c0.34-0.15,0.67-0.35,1.03-0.42c1.24-0.27,2.49-0.5,3.74-0.74c0.18-0.03,0.27-0.15,0.19-0.33c-0.06-0.12-0.2-0.25-0.32-0.26
		c-0.29-0.04-0.59-0.03-0.89-0.02c-0.43,0.02-0.85,0.27-1.38,0.05c0.57-0.27,1.09-0.51,1.6-0.75c0.34-0.16,0.75-0.24,1.01-0.48
		c1.11-1.07,2.52-1.25,3.93-1.43c2.31-0.3,4.64-0.31,6.96-0.08c3.29,0.32,6.57,0.67,9.85,1.03c2.01,0.22,4.02,0.49,6.03,0.73
		c0.82,0.1,1.66,0.05,2.45,0.25c0.88,0.22,1.77,0.31,2.66,0.44c2.23,0.32,4.45,0.63,6.68,0.95c1.33,0.19,2.66,0.43,4,0.58
		c3.72,0.43,7.43,1.03,11.17,1.24c1.2,0.07,2.39,0.21,3.59,0.3c6.22,0.46,12.45,0.54,18.67,0.66c4.35,0.09,8.7,0.17,13.06,0.23
		c1.73,0.02,3.45-0.03,5.18-0.03c1.28,0,2.55-0.01,3.83,0.02c2.25,0.05,4.5,0.12,6.75,0.2c1.2,0.04,2.4,0.12,3.6,0.18
		c7.2,0.33,14.41,0.25,21.61,0.33c4.35,0.05,8.7,0.18,13.05,0.23c2.1,0.03,4.2-0.05,6.3-0.06c1.88-0.01,3.75,0,5.63-0.02
		c2.25-0.03,4.5-0.08,6.75-0.12c5.85-0.11,11.7-0.19,17.55-0.49c4.35-0.22,8.69-0.44,13.03-0.78c4.86-0.38,9.73-0.69,14.61-0.77
		c1.57-0.03,3.15,0.04,4.73,0.07c0.15,0,0.31-0.02,0.45,0.02c2.07,0.52,4.18,0.27,6.27,0.33c1.72,0.05,3.45,0.07,5.17,0.17
		c2.02,0.12,4.05,0.02,6.08,0.04c0.59,0.01,1.19,0.08,1.78,0.16c0.11,0.01,0.21,0.2,0.29,0.31c0.03,0.03,0.01,0.15-0.01,0.16
		c-0.14,0.05-0.28,0.12-0.43,0.12c-2.2-0.01-4.3,0.58-6.44,0.95c-0.34,0.06-0.45,0.37-0.62,0.61c-0.43-0.1-0.85-0.21-1.27-0.31
		c-0.06-0.01-0.17,0.03-0.19,0.08c-0.07,0.16,0,0.29,0.17,0.29c0.43-0.01,0.87-0.04,1.3-0.07c0.52-0.07,1.03-0.12,1.55-0.2
		c0.3-0.05,0.59-0.15,0.83,0.13c0.16,0.19,0.12,0.4,0.11,0.63c-0.03,0.58,0.48,0.9,0.74,1.34c0.06,0.1,0.26,0.2,0.38,0.18
		c1.13-0.13,2.22,0.35,3.35,0.15c0.14-0.03,0.29,0.04,0.44,0.07c0.29,0.05,0.62,0.49,0.61,0.82c-0.01,0.72-0.01,0.72,0.45,0.73
		c1.27,0.03,2.55,0.07,3.82,0.12c0.3,0.01,0.6,0.06,0.88,0.15c0.09,0.03,0.15,0.21,0.2,0.33c0.01,0.04-0.06,0.15-0.11,0.16
		c-0.21,0.07-0.42,0.14-0.64,0.17c-0.2,0.03-0.31,0.07-0.26,0.18c0.02,0.05,0.12,0.08,0.18,0.09c0.29,0.06,0.61,0.03,0.83,0.29
		c-0.22,0.75,0.36,0.67,0.77,0.7c0.52,0.04,1.05,0.03,1.57,0.02c0.67-0.01,1.34-0.04,2.02,0c-1.07,0.32-2.11,0.68-3.24,0.79
		c-1.41,0.14-2.8,0.53-4.22,0.67c-0.72,0.07-0.71,0.6-0.95,1c-0.05,0.08,0.03,0.28,0.09,0.39c0.37,0.66,0.36,0.7-0.33,0.76
		c-0.6,0.05-1.2,0.05-1.8,0.12c-0.44,0.05-0.88,0.17-1.32,0.26c-0.18,0.04-0.24,0.17-0.16,0.34c0.03,0.06,0.1,0.14,0.16,0.15
		c0.37,0.03,0.74,0.08,1.11,0.04c1.71-0.2,3.42-0.43,5.15-0.35c0.04,0,0.08,0.07,0.13,0.1c-0.05,0.05-0.1,0.15-0.15,0.16
		c-1.77,0.29-3.55,0.56-5.32,0.88c-0.66,0.12-1.29,0.38-1.94,0.48c-0.61,0.1-0.66,0.5-0.7,0.96c-0.16,0-0.12-0.1-0.06-0.06
		c0.24,0.18,0.07-0.18-0.03,0.11c0.07-0.04,0.13-0.09,0.2-0.1c1.25-0.24,2.51-0.17,3.77-0.15c0.31,0,0.57,0.14,0.25,0.52
		c-0.02,0.03,0.03,0.18,0.05,0.18c0.59,0.05,1.18,0.11,1.77,0.11c1.12,0,2.23-0.04,3.35-0.05c0.07,0,0.14,0.05,0.2,0.07
		c-0.27,0.58-0.81,0.13-1.18,0.31c-1.18,0.54-2.44,0.48-3.69,0.6c-0.12,0.01-0.23,0.16-0.34,0.24c0.06,0.04,0.12,0.11,0.18,0.12
		c0.37,0.01,0.74,0,1.11,0.01c0.22,0.01,0.46,0.01,0.66,0.09c0.22,0.08,0.31,0.29,0.28,0.54L255.67,42.12z M250.8,42.08l0.04,0.04
		l-0.1,0.12C250.75,42.24,250.8,42.07,250.8,42.08z M225.97,53.84l0.12-0.03l-0.07-0.04l-0.02,0.16
		C226.01,53.93,225.98,53.84,225.97,53.84z M232.66,51.95c0.02-0.36-0.19-0.48-0.51-0.46c-0.06,0-0.13,0.04-0.18,0.08
		c-0.1,0.1-0.06,0.22,0.12,0.27c0.2,0.05,0.41,0.04,0.61,0.05c0.09,0.08,0.19,0.17,0.29,0.24c0.01,0.01,0.13-0.09,0.12-0.11
		C233,51.75,232.83,51.82,232.66,51.95z M240.59,38.18c-0.13-0.05-0.25-0.1-0.38-0.13c-0.04-0.01-0.1,0.05-0.15,0.08
		c0.17,0.01,0.34,0.03,0.51,0.04c0.31,0.06,0.58-0.04,0.82-0.23c0.05-0.04,0.09-0.1,0.13-0.16c-0.12-0.05-0.23-0.15-0.35-0.15
		C240.82,37.62,240.68,37.88,240.59,38.18z M181.24,70.54l-0.09-0.1c0,0,0.11,0.16,0.11,0.16c-0.11-0.1-0.23-0.19-0.34-0.29
		c-0.35-0.3-0.7-0.19-0.82,0.3c-0.08,0.31,0.25,0.65,0.51,0.51C180.85,70.98,181.04,70.75,181.24,70.54z M185.49,67.39
		c-0.23-0.29-0.55-0.22-0.83-0.21c-1.64,0.04-3.29,0.11-4.93,0.14c-1.72,0.03-3.44,0.1-5.16,0.03c-2.99-0.12-5.99-0.06-8.97,0.08
		c-1.65,0.08-3.28,0.13-4.92-0.02c-0.91-0.09-1.79-0.02-2.67,0.18c-0.18,0.04-0.28,0.11-0.26,0.35c1.34-0.01,2.69,0.06,4.03-0.05
		c2.32-0.19,4.63-0.04,6.95-0.13c0.45-0.02,0.89,0.06,1.34,0.09c1.04,0.05,2.09,0.16,3.13,0.14c3.51-0.08,7.03-0.2,10.54-0.32
		C184.32,67.63,184.93,67.67,185.49,67.39z M198.03,54.5c-1.2-0.37-2.35,0.08-3.53,0.27c-0.32,0.05-0.49,0.27-0.53,0.63
		c-0.03,0.22-0.05,0.45-0.06,0.67c-0.02,0.43,0.41,0.96,0.79,0.92c0.96-0.11,1.92-0.26,2.88-0.4c0.66-0.48,1.41-0.38,2.16-0.39
		c0.67-0.01,1.35-0.03,1.96-0.36c0.11-0.06,0.17-0.22,0.23-0.35c0.01-0.02-0.09-0.13-0.15-0.15c-0.51-0.1-1.02-0.19-1.52-0.29
		c-0.01,0-0.02-0.13,0-0.13c0.42-0.14,0.85-0.26,1.26-0.41c0.27-0.1,0.53-0.24,0.78-0.38c0.15-0.08,0.13-0.17-0.03-0.16
		c-0.52,0.03-1.04,0.06-1.55,0.13C199.83,54.21,198.94,54.36,198.03,54.5z M169.04,57.03c0.73,0.11,1.45,0.21,2.17,0.31
		c0.07,0.01,0.14,0.04,0.22,0.05c0.67,0.05,1.28-0.15,1.87-0.44c0.21-0.1,0.21-0.19,0.01-0.2c-1.39-0.1-2.79-0.31-4.17,0.12
		C169.1,56.88,169.08,56.96,169.04,57.03z M179.79,56.73c0.01,0.07-0.01,0.19,0.03,0.22c0.56,0.36,1.12,0.71,1.82,0.69
		c0.15,0,0.29-0.04,0.43-0.08c0.06-0.02,0.14-0.08,0.16-0.13c0.02-0.06-0.02-0.16-0.06-0.21c-0.56-0.55-1.22-0.85-2.02-0.7
		C180.02,56.54,179.91,56.65,179.79,56.73z M226.97,39.4c0.58-0.05,1.2-0.03,1.69-0.44c0.1-0.08,0.13-0.25,0.17-0.39
		c0.01-0.02-0.11-0.09-0.18-0.12c-0.84-0.34-1.61-0.17-2.32,0.35c-0.11,0.08-0.15,0.25-0.22,0.37c0.13,0.06,0.26,0.15,0.4,0.18
		C226.65,39.39,226.81,39.38,226.97,39.4z M237.82,27.04c1.09-0.04,1.68-0.05,2.28-0.08c0.21-0.01,0.29-0.1,0.2-0.19
		c-0.04-0.05-0.13-0.08-0.2-0.07c-1.25,0.07-2.51,0.14-3.76,0.22c-0.06,0-0.12,0.08-0.18,0.13c0.06,0.04,0.12,0.12,0.17,0.12
		C237,27.12,237.66,27.06,237.82,27.04z M15.68,30.77c0.24-0.03,0.54-0.06,0.83-0.1c0.07-0.01,0.15-0.05,0.19-0.1
		c0.07-0.12,0.2-0.29,0.16-0.37c-0.16-0.35-0.44-0.58-0.85-0.6c-0.39-0.02-0.71,0.07-0.91,0.46c-0.13,0.24,0.05,0.65,0.32,0.69
		C15.49,30.74,15.56,30.75,15.68,30.77z M223.33,57.48c0.8-0.06,1.46-0.1,2.12-0.18c0.09-0.01,0.21-0.19,0.24-0.32
		c0.05-0.16-0.28-0.42-0.44-0.38c-0.07,0.02-0.16-0.01-0.22,0.02C224.5,56.87,223.9,56.97,223.33,57.48z M164.46,56.93
		c0,0.01,0,0.03,0,0.04c-0.51,0.02-1.02,0.03-1.53,0.06c-0.07,0.01-0.13,0.16-0.2,0.24c0.06,0.04,0.12,0.11,0.18,0.11
		c0.87-0.03,1.74-0.06,2.61-0.11c0.07,0,0.14-0.16,0.21-0.24c-0.06-0.03-0.13-0.09-0.19-0.09
		C165.18,56.94,164.82,56.94,164.46,56.93z M232.87,37.97c-0.25,0.14-0.45,0.22-0.61,0.35c-0.14,0.12-0.11,0.29,0.05,0.39
		c0.4,0.25,0.83,0.29,1.27,0.12c0.1-0.04,0.16-0.22,0.22-0.35c0.01-0.03-0.08-0.13-0.14-0.16
		C233.39,38.19,233.12,38.08,232.87,37.97z M232.42,52.84c-0.15,0.01-0.3,0.02-0.44,0.05c-0.18,0.03-0.29,0.17-0.21,0.33
		c0.05,0.1,0.23,0.19,0.35,0.19c0.14,0,0.28-0.09,0.41-0.15c0.13-0.06,0.27-0.11,0.38-0.2C233.02,52.96,232.78,52.84,232.42,52.84z
		 M237.32,51.62c0.14-0.02,0.3-0.03,0.43-0.08c0.08-0.03,0.15-0.13,0.22-0.2c-0.07-0.03-0.13-0.06-0.2-0.08
		c-0.07-0.02-0.15-0.02-0.22-0.02c-0.07,0-0.15,0-0.22-0.01c-0.22,0-0.45,0-0.59,0.21C236.67,51.58,236.96,51.67,237.32,51.62z
		 M250.89,30.29c0.07,0,0.15,0.03,0.21,0c0.12-0.05,0.23-0.13,0.34-0.19c-0.12-0.05-0.25-0.11-0.37-0.15c-0.06-0.02-0.15-0.03-0.2,0
		c-0.12,0.05-0.23,0.12-0.34,0.19C250.64,30.19,250.76,30.24,250.89,30.29z M176.81,70l0.08-0.11l-0.16,0L176.81,70z M250.85,40.59
		c0.07,0,0.14,0,0.2-0.01c0.01,0,0.01-0.08,0.01-0.13c-0.07,0-0.14-0.01-0.2,0C250.85,40.46,250.85,40.54,250.85,40.59z
		 M253.16,43.16c-0.13-0.03-0.24-0.07-0.35-0.07c-0.04,0-0.08,0.09-0.12,0.14c0.1,0.06,0.19,0.16,0.3,0.18
		C253.03,43.41,253.1,43.25,253.16,43.16z M159.35,70.61c0.02-0.05,0.06-0.11,0.05-0.14c-0.02-0.04-0.1-0.09-0.14-0.09
		c-0.16,0.03-0.2,0.13-0.08,0.23C159.22,70.64,159.3,70.61,159.35,70.61z M194,62.58c0.06-0.02,0.12-0.04,0.19-0.06
		c-0.05-0.03-0.1-0.09-0.15-0.1c-0.06-0.01-0.12,0.03-0.19,0.05C193.89,62.51,193.95,62.54,194,62.58z M156.57,70.3
		c0.02,0.05,0.03,0.1,0.05,0.15c0.05-0.02,0.12-0.03,0.14-0.07c0.02-0.03-0.03-0.1-0.04-0.15C156.67,70.26,156.62,70.28,156.57,70.3
		z M192.06,55.4c0.04-0.03,0.1-0.05,0.14-0.1c0.01-0.02-0.06-0.13-0.07-0.12c-0.12,0.02-0.24,0.06-0.36,0.1
		c0.03,0.04,0.05,0.11,0.09,0.12C191.9,55.42,191.98,55.4,192.06,55.4z M236.32,38.35c-0.06-0.03-0.13-0.08-0.18-0.07
		c-0.21,0.03-0.24,0.12-0.09,0.22c0.05,0.03,0.14,0.02,0.2-0.01C236.28,38.47,236.29,38.4,236.32,38.35z M226.16,60.38
		c-0.07,0-0.14,0-0.21,0.01c-0.02,0-0.01,0.09-0.02,0.13c0.07,0,0.14,0.01,0.21,0C226.16,60.52,226.15,60.44,226.16,60.38z
		 M235.42,51.03l-0.01,0.15l0.16-0.06L235.42,51.03z M231.61,57.51l-0.01,0.12l0.13-0.05L231.61,57.51z M237.94,38.32
		c0.05,0.02,0.11,0.05,0.16,0.04c0.02,0,0.04-0.07,0.06-0.11c-0.05-0.02-0.11-0.05-0.16-0.05
		C237.97,38.21,237.95,38.28,237.94,38.32z M176.19,29.64l-0.14-0.08l-0.02,0.13L176.19,29.64z"/>
	<path class="st0" d="M12.21,35.56c-0.67-0.01-1.34-0.01-1.96-0.29c-0.36-0.16-0.71-0.17-1.08-0.1c-0.79,0.16-1.42-0.26-2.07-0.62
		c-0.15-0.08-0.18-0.41-0.1-0.6c0.27-0.61,0.71-0.94,1.4-0.86c0.07,0.01,0.15,0.01,0.22,0.01c0.49,0.01,0.56,0.07,0.67,0.67
		c0.09,0.5,0.28,0.76,0.63,0.74c0.68-0.02,1.33,0.05,1.95,0.32l-0.05-0.04c0.16,0.25,0.43,0.46,0.34,0.82
		C12.16,35.62,12.21,35.56,12.21,35.56z"/>
	<path class="st0" d="M242.26,63.68c0.16,0.02-0.13-0.01-0.41-0.05c-0.12-0.02-0.13-0.1,0-0.16c0.4-0.17,0.79-0.41,1.2-0.47
		c0.79-0.12,1.6-0.15,2.4-0.21c0.07,0,0.13,0.05,0.2,0.08c-0.06,0.11-0.09,0.29-0.18,0.33c-0.41,0.16-0.82,0.33-1.25,0.4
		C243.74,63.68,243.22,63.65,242.26,63.68z"/>
	<path class="st0" d="M13.58,58.15c-0.14,0.26-0.26,0.54-0.43,0.78c-0.2,0.29-0.56,0.37-0.76,0.18c-0.33-0.3-0.65-0.61-0.95-0.94
		c-0.24-0.27-0.19-0.62,0.12-1.01c0.06-0.07,0.34-0.09,0.34-0.08c0.25,0.86,0.93,1.06,1.7,1.1C13.6,58.17,13.58,58.15,13.58,58.15z"
		/>
	<path class="st0" d="M207.36,69.11c-0.08,0.38-0.21,0.73-0.6,0.89c-0.44,0.18-0.88,0.1-1.3-0.08c-0.16-0.07-0.16-0.15-0.01-0.19
		c0.64-0.2,1.27-0.4,1.91-0.61L207.36,69.11z"/>
	<path class="st0" d="M250.81,27.05c-0.28,0.01-0.56,0.02-0.84,0.03c-0.19,0-0.38-0.01-0.57-0.13c0.29-0.01,0.57-0.02,0.86-0.03
		c0.18-0.01,0.37-0.01,0.55-0.02C250.8,26.95,250.8,27,250.81,27.05z"/>
	<path class="st0" d="M241.52,55.19c0.29-0.01,0.51-0.04,0.72-0.01c0.08,0.01,0.14,0.14,0.21,0.22c-0.06,0.04-0.12,0.1-0.18,0.11
		c-0.43,0.02-0.86,0.04-1.29,0.03c-0.12,0-0.24-0.11-0.36-0.16c0.11-0.07,0.21-0.18,0.33-0.19
		C241.16,55.16,241.38,55.19,241.52,55.19z"/>
	<path class="st0" d="M188.46,71.78c-0.22,0-0.41-0.08-0.46-0.3c-0.02-0.07,0.12-0.25,0.2-0.26c0.22-0.04,0.4,0.09,0.46,0.3
		C188.68,71.58,188.53,71.69,188.46,71.78z"/>
	<path class="st0" d="M207.37,69.12c0.35,0.01,0.69,0.02,1.04,0.05c0.05,0,0.12,0.09,0.13,0.14c0.03,0.16-0.06,0.27-0.23,0.27
		C207.93,69.57,207.65,69.33,207.37,69.12C207.36,69.11,207.37,69.12,207.37,69.12z"/>
	<path class="st0" d="M11.69,38.03c-0.22-0.36-0.75-0.44-0.84-0.92c-0.02-0.11-0.02-0.3,0.04-0.35c0.09-0.06,0.29-0.08,0.38-0.02
		c0.47,0.33,0.53,0.8,0.38,1.33C11.65,38.08,11.69,38.03,11.69,38.03z"/>
	<path class="st0" d="M9.5,38.07c-0.17-0.05-0.37-0.1-0.57-0.17c-0.21-0.07-0.28-0.35-0.14-0.53c0.08-0.1,0.24-0.2,0.35-0.18
		c0.2,0.04,0.41,0.13,0.58,0.25c0.1,0.07,0.2,0.27,0.17,0.37C9.86,37.91,9.67,37.97,9.5,38.07z"/>
	<path class="st0" d="M10.57,51.99c-0.69,0.48-0.83,0.48-1.46-0.01c-0.05-0.04-0.08-0.14-0.07-0.18c0.02-0.06,0.12-0.13,0.17-0.12
		c0.47,0.13,0.9,0.4,1.41,0.36C10.62,52.04,10.57,51.99,10.57,51.99z"/>
	<path class="st0" d="M8.41,43.53c-0.02-0.29,0.1-0.49,0.27-0.44c0.13,0.04,0.27,0.1,0.35,0.2c0.21,0.26,0.17,0.51-0.07,0.74
		c-0.19,0.17-0.44,0.14-0.48-0.08C8.46,43.81,8.44,43.67,8.41,43.53z"/>
	<path class="st0" d="M256.64,43.09c-0.01-0.01-0.01-0.03-0.02-0.04c0.06,0,0.11-0.01,0.17,0c0.01,0,0.01,0.04,0.02,0.06
		C256.76,43.1,256.7,43.1,256.64,43.09z"/>
	<path class="st0" d="M10.98,32.56c0.32-0.05,0.52,0.14,0.7,0.34c0.05,0.05,0.08,0.12,0.12,0.17c-0.12,0.06-0.28,0.19-0.34,0.15
		c-0.22-0.14-0.41-0.34-0.62-0.52C10.89,32.66,10.94,32.61,10.98,32.56z"/>
	<path class="st0" d="M212.3,69.04c-0.09,0.09-0.18,0.19-0.28,0.27c-0.05,0.04-0.14,0.08-0.17,0.06c-0.13-0.08-0.12-0.2,0.05-0.26
		c0.12-0.04,0.26-0.02,0.38-0.02L212.3,69.04z"/>
	<path class="st0" d="M250.19,55.99c-0.13,0.04-0.25,0.08-0.38,0.09c-0.04,0-0.09-0.08-0.13-0.12c0.12-0.03,0.24-0.08,0.36-0.09
		C250.08,55.86,250.13,55.94,250.19,55.99z"/>
	<polygon class="st0" points="203.43,69.82 203.52,69.93 203.35,69.94 	"/>
	<path class="st0" d="M219.67,67.4c-0.01,0.27-0.01,0.54-0.02,0.81c0,0.06-0.04,0.15-0.08,0.16c-0.18,0.04-0.3-0.06-0.24-0.23
		C219.42,67.88,219.56,67.64,219.67,67.4C219.68,67.39,219.67,67.4,219.67,67.4z"/>
	<path class="st0" d="M11.88,34.84c-0.16-0.25-0.33-0.5-0.47-0.76c-0.01-0.02,0.18-0.21,0.29-0.23c0.12-0.01,0.34,0.06,0.36,0.14
		c0.1,0.31-0.06,0.57-0.25,0.81C11.82,34.8,11.88,34.84,11.88,34.84z"/>
	<path class="st0" d="M220.62,67.23c0.13,0.03,0.26,0.06,0.37,0.11c0.05,0.02,0.1,0.11,0.09,0.15c-0.04,0.16-0.17,0.18-0.27,0.04
		c-0.07-0.1-0.09-0.24-0.14-0.37C220.68,67.17,220.62,67.23,220.62,67.23z"/>
	<path class="st0" d="M8.38,27.99c-0.17-0.09-0.22-0.23-0.1-0.38c0.09-0.1,0.23-0.15,0.35-0.23c0.04,0.14,0.11,0.28,0.1,0.42
		C8.7,27.99,8.56,28.05,8.38,27.99z"/>
	<path class="st0" d="M214.72,68.9c-0.08-0.07-0.15-0.15-0.23-0.22c0.04,0.02,0.09,0.02,0.11,0.05c0.03,0.05,0.05,0.11,0.07,0.17
		L214.72,68.9z"/>
	<path class="st0" d="M250.18,51.28c-0.09-0.07-0.18-0.13-0.27-0.2c0.07-0.09,0.13-0.19,0.21-0.26c0.01-0.01,0.17,0.07,0.16,0.1
		C250.27,51.05,250.22,51.16,250.18,51.28z"/>
	<path class="st0" d="M13.59,25.2c-0.06-0.1-0.11-0.2-0.17-0.31c0.04,0.05,0.09,0.09,0.11,0.14c0.02,0.07,0.01,0.14,0.01,0.22
		C13.55,25.25,13.59,25.2,13.59,25.2z"/>
	<path class="st0" d="M255.63,42.14c0.05-0.02,0.1-0.05,0.15-0.07c-0.03,0.01-0.06,0.03-0.1,0.05
		C255.67,42.12,255.63,42.14,255.63,42.14z"/>
	<path class="st0" d="M10.23,53.68c-0.01,0.13-0.02,0.25-0.03,0.38c-0.06-0.01-0.11-0.03-0.17-0.04c0.07-0.12,0.13-0.24,0.2-0.36
		L10.23,53.68z"/>
	<path class="st0" d="M8.35,50.93C8.3,50.96,8.23,51.01,8.18,51c-0.19-0.04-0.22-0.13-0.06-0.22c0.04-0.03,0.13,0,0.18,0.03
		C8.34,50.82,8.34,50.89,8.35,50.93z"/>
	<path class="st0" d="M197.62,69.45l0.12-0.05c0,0-0.05,0.02-0.05,0.02S197.62,69.45,197.62,69.45z"/>
	<path class="st0" d="M210.03,70.43l-0.01,0.06L210.03,70.43z"/>
	<path class="st0" d="M210.02,70.49l-0.03-0.17c0,0,0.04,0.1,0.04,0.1S210.02,70.49,210.02,70.49z"/>
	<path class="st0" d="M212.28,69.08l-0.08-0.16c0,0,0.09,0.1,0.09,0.11C212.3,69.04,212.28,69.08,212.28,69.08z"/>
	<path class="st0" d="M213.57,69.81l0.01,0.07L213.57,69.81z"/>
	<path class="st0" d="M213.58,69.88l-0.01-0.15c0,0-0.01,0.08,0,0.08S213.58,69.88,213.58,69.88z"/>
	<path class="st0" d="M214.67,68.9l0.15-0.09c0,0-0.09,0.09-0.1,0.09C214.72,68.9,214.67,68.9,214.67,68.9z"/>
	<path class="st0" d="M224.84,67.64l0,0.05L224.84,67.64z"/>
	<path class="st0" d="M224.85,67.69l-0.09-0.15c0,0,0.07,0.08,0.08,0.09C224.84,67.64,224.85,67.69,224.85,67.69z"/>
	<path class="st0" d="M243.73,61.55l0.16-0.11c0,0-0.1,0.1-0.1,0.1C243.77,61.54,243.73,61.55,243.73,61.55z"/>
	<polygon class="st0" points="246.54,53.02 246.49,52.9 246.61,52.91 	"/>
	<polygon class="st0" points="255.42,39.07 255.54,39.02 255.53,39.14 	"/>
	<path class="st0" d="M10.35,38.56c-0.11,0.28-0.23-0.11-0.04,0.12c0.06,0.08,0.12-0.01-0.04-0.08
		C10.27,38.59,10.35,38.56,10.35,38.56z"/>
	<path class="st0" d="M10.23,53.66c0.32-0.1,0.65-0.19,0.97-0.28c0.01,0-0.05-0.02-0.05-0.01c-0.3,0.11-0.62,0.21-0.93,0.32
		C10.23,53.68,10.23,53.66,10.23,53.66z"/>
	<path class="st0" d="M11.39,58.96c-0.28,0.12-0.14-0.22-0.14,0.07c0,0.12,0.13,0.08,0.06-0.11C11.3,58.92,11.39,58.96,11.39,58.96z
		"/>
	<polygon class="st0" points="7.01,38.25 7.16,38.19 7.15,38.34 	"/>
	<path class="st0" d="M194.87,55.71c0.69-0.23,1.39-0.47,2.14-0.32c0.12,0.02,0.23,0.14,0.32,0.24c0.1,0.11-0.16,0.46-0.35,0.47
		c-0.73,0.04-1.47,0.08-2.09-0.43L194.87,55.71z"/>
	<polygon class="st0" points="194.89,55.66 194.96,55.82 194.87,55.71 	"/>
</g>
</svg>
