<?xml version="1.0" encoding="utf-8"?>
<!-- Generator: Adobe Illustrator 23.0.4, SVG Export Plug-In . SVG Version: 6.00 Build 0)  -->
<svg version="1.1" id="Ebene_1" xmlns="http://www.w3.org/2000/svg" xmlns:xlink="http://www.w3.org/1999/xlink" x="0px" y="0px"
	 viewBox="0 0 283.46 92.91" style="enable-background:new 0 0 283.46 92.91;" xml:space="preserve">
<style type="text/css">
	.st0{fill:#97A922;}
</style>
<g>
	<path class="st0" d="M86.22,78.71c0.19-0.08,0.13-0.15-0.14-0.08c-0.07,0.02-0.16-0.02-0.25-0.04c-0.53,0.01-1.06,0.09-1.57,0.01
		c-0.3-0.05-0.54-0.47-0.84-0.52c-0.42-0.07-0.86,0.09-1.3,0.09c-0.79,0-1.58,0.02-2.36-0.07c-2.43-0.29-4.86-0.58-7.28-0.94
		c-5.46-0.83-10.95-1.25-16.47-1.16c-0.44,0.01-0.88,0.02-1.31-0.01c-2.53-0.13-5.06-0.27-7.59-0.42c-0.43-0.03-0.85-0.17-1.28-0.24
		c-1.12-0.2-2.23-0.42-3.36-0.57c-0.78-0.1-1.57-0.09-2.36-0.12c-0.45-0.02-0.85-0.16-1.21-0.44c0,0-0.03-0.02-0.03-0.02
		c0.06-0.06,0.16-0.13,0.16-0.19c-0.01-0.15-0.04-0.42-0.1-0.43c-1.26-0.24-2.56-0.22-3.8-0.63c-1.06-0.35-2.14-0.65-3.21-0.94
		c-1.09-0.29-2.15-0.62-3.08-1.28l0.16,0.1c0,0-0.09-0.06-0.1-0.07c-0.42,0.1-0.84,0.3-1.26,0.3c-0.61-0.01-1.22-0.12-1.81-0.28
		c-1.61-0.43-3.21-0.88-4.89-0.95c-0.43-0.02-0.85-0.19-1.27-0.32c-1.27-0.37-2.45-0.95-3.62-1.55c-0.44-0.23-0.62-0.58-0.7-1.03
		c-0.08-0.47-0.34-0.8-0.83-0.91c-1.05-0.25-1.88-0.9-2.78-1.45c-0.52-0.32-0.57-0.85-0.88-1.26c-0.15-0.19-0.44-0.27-0.65-0.42
		c-0.36-0.27-0.42-0.41-0.2-0.88c0.15-0.32,0.18-0.62,0.22-0.96c0.04-0.38,0.45-0.71,0.68-1.07c0.32-0.48-0.03-1.33-0.55-1.39
		c-0.52-0.06-1.03-0.12-1.54-0.21c-0.35-0.07-0.46-0.52-0.23-0.82c0.49-0.63,0.48-0.87-0.21-1c-0.76-0.15-0.99-0.61-1.13-1.24
		c-0.04-0.17,0.02-0.36-0.03-0.51c-0.08-0.23-0.18-0.51-0.36-0.66c-0.39-0.31-0.5-0.67-0.43-1.14c0.03-0.26,0.01-0.53-0.05-0.78
		c-0.03-0.14-0.17-0.27-0.29-0.37C5.9,51.68,5.61,51.59,5.5,51.4c-0.12-0.21-0.08-0.51-0.14-0.76c-0.06-0.26-0.19-0.5-0.21-0.76
		c-0.03-0.34,0.07-0.68,0.03-1.01c-0.03-0.24-0.27-0.48-0.26-0.71c0.01-0.22,0.2-0.46,0.38-0.63c0.22-0.21,0.32-0.42,0.11-0.63
		c-0.3-0.31-0.66-0.57-1-0.85c-0.22-0.18-0.33-0.4-0.26-0.69c0.15-0.59,0.31-1.17,0.47-1.76c0.86-0.61-0.43-0.97-0.17-1.52
		c0.07-0.16,0.09-0.34,0.13-0.51c0,0-0.02-0.03-0.02-0.03c0.23-0.1,0.51-0.14,0.68-0.31c0.33-0.3,0.3-0.69-0.02-0.88
		c-0.3-0.18-0.68-0.27-0.9-0.51c-0.43-0.46-0.73-1.02-0.26-1.64c0.18-0.24,0.18-0.45,0.04-0.7c-0.15-0.26-0.05-0.5,0.15-0.69
		c0.25-0.24,0.54-0.45,0.8-0.68c0.58-0.51,0.8-1.14,0.48-1.87c-0.16-0.36-0.2-0.68,0.12-0.93c0.42-0.33,0.82-0.67,1.02-1.18
		c0.31-0.82,1.13-1.36,1.21-2.3c0.04-0.47,0.35-0.81,0.69-1.08c0.4-0.33,0.82-0.67,1.29-0.87c0.98-0.42,1.89-0.88,2.59-1.74
		c0.26-0.33,0.69-0.53,1.06-0.76c0.53-0.32,1.02-0.67,1.35-1.22c0.28-0.47,0.73-0.75,1.22-0.96c2.82-1.26,5.78-2.05,8.78-2.72
		c0.26-0.06,0.52-0.06,0.78-0.09c3.15-0.28,6.29-0.55,9.44-0.82c0.7-0.06,1.4-0.11,2.1-0.18c5.85-0.65,11.71-1.06,17.6-1.14
		c1.4-0.02,2.78-0.19,4.2-0.13c3.68,0.15,7.37,0.2,11.06,0.21c7.37,0.02,14.75-0.03,22.12,0.3c1.14,0.05,2.28,0.07,3.42,0.12
		c1.93,0.09,3.86,0.19,5.78,0.28c0.96,0.04,1.93,0.07,2.89,0.1c5.44,0.17,10.88,0.35,16.32,0.5c5.62,0.15,11.23,0.28,16.85,0.41
		c0.09,0,0.18,0.01,0.26,0.01c2.46,0.08,4.91,0.17,7.37,0.23c1.93,0.05,3.86,0.04,5.78,0.07c0.61,0.01,1.24,0.02,1.83,0.16
		c0.96,0.22,1.91,0.17,2.88,0.16c2.11-0.03,4.21-0.07,6.32-0.02c1.22,0.03,2.43,0.1,3.67-0.04c1.38-0.15,2.8,0,4.2,0.03
		c1.14,0.03,2.28,0.12,3.42,0.12c6.67-0.02,13.34-0.04,20.01-0.09c2.81-0.02,5.62-0.06,8.42-0.21c2.9-0.16,5.79-0.16,8.68-0.14
		c0.24,0,0.33,0.13,0.23,0.25c-0.05,0.06-0.14,0.11-0.22,0.12c-1.31,0.12-2.64,0.13-3.92,0.49c1.41,0.06,2.81,0.04,4.21,0.02
		c5.44-0.11,10.88-0.25,16.32-0.32c3.95-0.05,7.89,0.08,11.8,0.78c1.8,0.32,3.6,0.81,5.46,0.77c0.07,0,0.14,0.09,0.2,0.14
		c0.01,0.01-0.05,0.12-0.08,0.12c-1.22,0.09-2.45,0.31-3.66,0.24c-2.81-0.16-5.6,0.01-8.45,0.3c0.42,0.31,0.86,0.19,1.26,0.22
		c3.41,0.23,6.83,0.4,10.23,0.86c0.86,0.12,1.73,0.1,2.42,0.82c0.26,0.26,0.81,0.28,1.24,0.32c0.78,0.07,1.58,0.07,2.36,0.11
		c0.07,0,0.14,0.08,0.22,0.11c0.33,0.11,0.36,0.16,0.01,0.19c-0.77,0.07-1.57,0-2.31,0.2c-0.86,0.23-1.72,0.29-2.6,0.34
		c-1.31,0.07-2.62,0.2-3.93,0.34c-0.08,0.01-0.2,0.27-0.2,0.41c0.01,0.72,0.11,0.86,0.56,1.02c1.01,0.36,2.05,0.41,3.11,0.38
		c1.05-0.02,2.1,0,3.16,0.04c0.71,0.03,1.39,0.17,1.77,0.91c0.16,0.32,0.54,0.44,0.89,0.48c0.52,0.06,1.05,0.09,1.57,0.15
		c0.43,0.05,0.88,0.08,1.29,0.22c0.43,0.14,0.95,0.08,1.39,0.53c-1,0.12-1.81,0.41-2.36,1.17c-0.19,0.26-0.27,0.54-0.09,0.71
		c0.12,0.12,0.25,0.3,0.4,0.31c0.6,0.06,1.21,0.19,1.82-0.04c0.76-0.28,1.53-0.29,2.33-0.13c0.6,0.12,1.23,0.15,1.83,0.1
		c0.66-0.06,0.94,0.25,1.16,0.8c0.1,0.25,0.45,0.25,0.68,0.13c0.22-0.12,0.4-0.32,0.6-0.49l-0.04,0.06c0.77,0.69,1.59,1.16,2.7,1.2
		c1.01,0.03,2.02,0.33,3.02,0.53c0.27,0.05,0.38,0.31,0.43,0.56l0.02-0.06c-0.49,0.05-0.99,0.08-1.48,0.16
		c-0.58,0.1-1.14,0.26-1.55,0.71l-0.01-0.07c-0.51-0.08-1.03-0.25-1.48,0.18c-0.26,0.25-0.58,0.43-0.94,0.39
		c-0.79-0.09-1.55,0.28-2.35,0.04c-0.32-0.1-0.71-0.11-1.04-0.02c-0.51,0.14-0.97,0.25-1.52,0.12c-0.57-0.14-1.19,0-1.8-0.12
		c-0.75-0.14-1.56-0.05-2.34,0.02c-0.95,0.09-1.9,0.25-2.85,0.4c-0.07,0.01-0.14,0.1-0.18,0.17c-0.09,0.13-0.01,0.26,0.24,0.26
		c1.05,0.02,2.1,0.04,3.15,0c1.57-0.05,3.14,0.01,4.72-0.1c1.29-0.09,2.63-0.07,3.92,0.03c1.47,0.12,2.94,0.32,4.41,0.51
		c0.08,0.01,0.17,0.04,0.25,0.09c0.93,0.59,2,0.59,3.04,0.67c2.44,0.19,4.89,0.37,7.33,0.56c0.14,0.01,0.27,0.12,0.4,0.2
		c0.11,0.07-0.28,0.5-0.52,0.53c-0.6,0.09-1.21,0.19-1.81,0.24c-0.63,0.06-1.2,0.18-1.6,0.74c-0.23,0.32-0.61,0.29-0.95,0.32
		c-1.48,0.09-2.97,0.13-4.45,0.28c-1.3,0.13-2.6,0.37-3.89,0.59c-0.23,0.04-0.52,0.18-0.64,0.37c-0.28,0.43-0.64,0.56-1.11,0.5
		c-0.89-0.12-1.52,0.27-2,0.98c-0.1,0.14-0.2,0.29-0.29,0.43c-0.06,0-0.17-0.01-0.17-0.01c-0.01-0.15,0.03-0.13,0.11,0.07
		c0.23-0.28,0.53-0.42,0.9-0.44c1.31-0.07,2.6,0.06,3.86,0.46l-0.03,0.03c0.24,0.59,0.53,1.1,1.25,1.22
		c0.43,0.07,0.85,0.19,1.26,0.34c0.12,0.04,0.17,0.27,0.25,0.42c-0.08,0.04-0.15,0.1-0.24,0.11c-1.29,0.18-2.58,0.49-3.88,0.49
		c-1.38-0.01-2.55,0.49-3.72,1.07c-0.06,0.03-0.12,0.17-0.11,0.18c0.11,0.12,0.23,0.3,0.37,0.32c0.95,0.15,1.91,0.28,2.87,0.37
		c0.27,0.03,0.35,0.03,0.23,0.22c-0.43,0.06-0.87,0.12-1.3,0.19c-0.49,0.08-0.69,0.28-0.46,0.42c0.15,0.09,0.32,0.12,0.49,0.18
		c0.08,0.03,0.19,0.02,0.25,0.08c0.14,0.14,0.09,0.26-0.13,0.31c-1.03,0.21-2.06,0.4-3.09,0.62c-0.86,0.19-1.7,0.31-2.6,0.27
		c-2.11-0.11-2.19-0.06-5.06,0.78c1.88,0.1,3.71,0.12,5.56,0.01c2.88-0.16,5.77-0.3,8.65,0.19c1.72,0.3,3.47,0.36,5.22,0.39
		c0.33,0.01,0.55,0.38,0.38,0.76c-0.09,0.2-0.19,0.31,0.01,0.4c0.16,0.07,0.33,0.1,0.5,0.16c0.33,0.11,0.65,0.22,0.82,0.58
		c0.12,0.25-0.02,0.36-0.76,0.52c-0.6,0.13-1.23,0.15-1.75,0.53c-0.06,0.05-0.11,0.14-0.12,0.22c-0.01,0.04,0.08,0.13,0.13,0.13
		c0.7,0.05,1.4,0.07,2.09,0.14c0.09,0.01,0.19,0.21,0.24,0.33c0.02,0.05-0.07,0.16-0.13,0.21c-0.14,0.1-0.29,0.22-0.45,0.26
		c-2.46,0.61-4.84,1.54-7.38,1.82c-1.3,0.14-2.59,0.46-3.89,0.66c-1.82,0.28-3.64,0.58-5.47,0.77c-1.06,0.11-2.06,0.26-3.04,0.71
		c-0.79,0.36-1.64,0.68-2.54,0.58c-1.24-0.14-2.43-0.03-3.63,0.34c-0.49,0.15-1.05,0.09-1.57,0.15c-0.35,0.04-0.7,0.1-1.02,0.22
		c-0.14,0.05-0.29,0.24-0.31,0.39c-0.02,0.13,0.13,0.29,0.22,0.43c0.04,0.07,0.17,0.16,0.16,0.18c-0.2,0.36-0.48,0.74,0.29,0.71
		c0.61-0.02,1.23,0.02,1.84-0.07c3.04-0.43,6.13-0.32,9.17-0.75c0.36-0.05,0.72,0.08,0.94,0.37c0.52,0.7,1.22,0.95,2.07,0.9
		c0.44-0.03,0.88-0.04,1.32-0.05c0.24-0.01,0.35,0.08,0.31,0.27c-0.01,0.07-0.07,0.17-0.12,0.19c-0.47,0.12-0.64,0.55-0.92,0.87
		c-0.28,0.32-0.67,0.55-1,0.83c-0.05,0.04-0.05,0.17-0.03,0.25c0.02,0.05,0.12,0.09,0.19,0.1c0.61,0.04,1.22,0.07,1.83,0.11
		c0.64,0.8,1.63,0.56,2.45,0.79c0.74,0.2,1.56,0.13,2.34,0.19c0.08,0.01,0.17,0.06,0.22,0.12c0.1,0.11,0.01,0.24-0.22,0.28
		c-1.29,0.25-2.58,0.53-3.88,0.72c-0.97,0.14-1.93,0.4-2.73,0.92c-1.44,0.93-3.03,1.34-4.65,1.69c-2.15,0.47-4.16,1.36-6.28,1.9
		c-0.25,0.06-0.51,0.17-0.72,0.32c-1.12,0.77-2.42,1.01-3.71,1.27c-4.05,0.8-8.1,1.58-12.15,2.37c-5.69,1.1-11.42,1.96-17.14,2.85
		c-1.05,0.16-2.08,0.31-3.02,0.84c-0.47,0.26-1,0.35-1.51,0.08c-0.58-0.31-1.19-0.29-1.8-0.23c-1.22,0.11-2.45,0.22-3.67,0.37
		c-1.65,0.2-3.3,0.42-4.98,0.34c-1.05-0.05-2.1,0.05-3.14,0.28c-0.42,0.09-0.88,0.1-1.3,0.04c-1.93-0.28-3.85-0.13-5.78-0.06
		c-0.7,0.03-1.4,0.07-2.1,0.07c-1.67-0.01-3.34-0.11-5-0.07c-4.65,0.11-9.3,0.03-13.95-0.12c-2.02-0.07-4.03-0.26-6.04-0.39
		c-0.61-0.04-1.23-0.09-1.84-0.13c-2.98-0.18-5.96-0.31-8.94-0.53c-4.38-0.33-8.75-0.73-13.13-1.07c-1.4-0.11-2.81-0.18-4.21-0.2
		c-1.49-0.02-2.98,0.03-4.45,0.4c-0.84,0.21-1.74,0.23-2.61,0.28c-2.89,0.17-5.79,0.16-8.69,0.18c-2.63,0.02-5.27,0.08-7.9-0.03
		c-1.14-0.05-2.28-0.1-3.41-0.28c-1.75-0.27-3.48-0.41-5.23-0.11c-0.23,0.04-0.49-0.07-0.74-0.11c-0.07-0.88-0.75-0.52-1.18-0.53
		c-0.52-0.02-1.05,0.1-1.57,0.16c-0.35,0.04-0.7,0.05-1.05,0.09c-0.47,0.06-0.59-0.2-0.61-0.59c-0.26-0.03-0.54-0.15-0.77-0.09
		c-2.3,0.63-4.53,0.08-6.77-0.35c-0.33-0.06-0.63-0.3-0.94-0.46C85.93,78.62,86.11,78.76,86.22,78.71z M17.35,66.95
		c-0.14-0.02-0.32,0.02-0.44,0.1c-0.11,0.08-0.01,0.22,0.21,0.25c0.24,0.03,0.49,0.04,0.73,0.05c0.02,0.32,0.24,0.39,0.51,0.41
		c0.2,0.02,0.34-0.05,0.36-0.25c0-0.03-0.13-0.12-0.2-0.12c-0.24-0.01-0.48,0.01-0.72,0.02C17.79,67.14,17.61,66.98,17.35,66.95z
		 M256.52,33.76c-0.08,0.02-0.16,0.07-0.2,0.13c-0.03,0.04,0,0.15,0.05,0.19c0.39,0.34,0.87,0.48,1.38,0.42
		c0.11-0.01,0.21-0.18,0.29-0.29c0.02-0.03-0.05-0.17-0.11-0.2c-0.29-0.14-0.58-0.27-0.77-0.35
		C256.85,33.7,256.68,33.72,256.52,33.76z M252.74,44.36c-0.25,0-0.51,0.07-0.73,0.18c-0.11,0.06-0.15,0.27-0.18,0.42
		c-0.01,0.04,0.11,0.14,0.18,0.16c0.33,0.1,0.68,0.19,0.98-0.04c0.11-0.09,0.1-0.31,0.15-0.47
		C253.01,44.53,252.87,44.36,252.74,44.36z M9.2,36c-0.24-0.04-0.49-0.09-0.72-0.06c-0.14,0.02-0.27,0.17-0.4,0.26
		c0.15,0.07,0.3,0.2,0.45,0.19c0.24,0,0.47-0.09,0.71-0.14C9.21,36.13,9.22,36,9.2,36z M263.15,45.58
		c-0.18-0.12-0.36-0.11-0.36,0.06c0,0.11,0.15,0.28,0.28,0.34c0.13,0.06,0.3,0.03,0.46,0.02c0.01,0,0.02-0.11,0.03-0.17
		C263.42,45.75,263.28,45.67,263.15,45.58z M252.84,64.48c-0.16-0.01-0.31-0.01-0.47,0.01c-0.06,0.01-0.12,0.09-0.18,0.15
		c0.23,0,0.45,0,0.68,0C252.86,64.58,252.85,64.48,252.84,64.48z M238.86,28.07l-0.05-0.18l-0.16,0.13L238.86,28.07z"/>
	<path class="st0" d="M250.91,29.02c-0.21-0.38-0.81-0.44-1.01-0.08c-0.06,0.11-0.07,0.32,0,0.43c0.14,0.28,0.51,0.31,0.86,0.06
		C250.85,29.37,250.86,29.16,250.91,29.02z"/>
	<path class="st0" d="M81.45,84.69c-0.38,0-0.59,0.24-0.74,0.59c-0.1,0.21-0.07,0.33,0.15,0.43c0.62,0.27,1.09,0.03,1.12-0.57
		C81.98,84.87,81.73,84.63,81.45,84.69z"/>
	<path class="st0" d="M279.42,56.58c-0.39,0-0.67,0.15-0.54,0.24c0.13,0.09,0.32,0.12,0.48,0.12c0.22,0.01,0.33-0.11,0.28-0.25
		C279.61,56.63,279.49,56.62,279.42,56.58z"/>
	<path class="st0" d="M6.01,28.66c-0.12-0.23-0.2-0.48-0.36-0.68c-0.09-0.12-0.28-0.16-0.44-0.21c-0.04-0.01-0.14,0.08-0.17,0.14
		c-0.1,0.24,0.03,0.59,0.26,0.64c0.25,0.05,0.52,0.03,0.78,0.04L6.01,28.66z"/>
	<path class="st0" d="M7.71,26.68c-0.17,0.11-0.24,0.27-0.11,0.42C7.7,27.21,7.89,27.34,8,27.32c0.19-0.04,0.2-0.23,0.11-0.42
		C8.02,26.72,7.91,26.64,7.71,26.68z"/>
	<path class="st0" d="M6.08,28.58c0.2,0.25,0.39,0.53,0.62,0.75c0.16,0.15,0.35,0.08,0.36-0.12c0.01-0.14-0.01-0.36-0.1-0.43
		c-0.27-0.22-0.61-0.24-0.94-0.12C6.01,28.66,6.08,28.58,6.08,28.58z"/>
	<path class="st0" d="M38.87,74.19c-0.16,0.01-0.33,0.04-0.48,0.02c-0.35-0.04,0.07-0.29-0.22-0.1c0.08,0.03,0.15,0.07,0.23,0.08
		c0.16,0.02,0.33,0.01,0.5,0.02C38.9,74.21,38.87,74.19,38.87,74.19z"/>
	<path class="st0" d="M268.35,44.84c0.01,0,0-0.16-0.02-0.17c-0.13-0.03-0.3-0.1-0.41-0.05c-0.2,0.09-0.19,0.25,0.03,0.31
		C268.07,44.96,268.22,44.88,268.35,44.84z"/>
	<path class="st0" d="M264.18,64.27c-0.04,0.05-0.08,0.11-0.12,0.16c0.07,0.04,0.14,0.1,0.21,0.1c0.23-0.01,0.28-0.12,0.14-0.26
		C264.37,64.24,264.26,64.27,264.18,64.27z"/>
	<path class="st0" d="M4.56,41.54c-0.08,0.01-0.15,0.03-0.23,0.04c0.31-0.17,0.26,0.35,0.25-0.01C4.58,41.57,4.56,41.54,4.56,41.54z
		"/>
	<polygon class="st0" points="82.78,81.04 82.62,81.03 82.69,81.23 	"/>
	<path class="st0" d="M83.33,85.43c-0.06-0.02-0.14-0.07-0.19-0.05c-0.2,0.07-0.21,0.18-0.03,0.27c0.05,0.02,0.15-0.01,0.19-0.05
		C83.33,85.57,83.32,85.49,83.33,85.43z"/>
	<path class="st0" d="M264.42,45.01c0.13,0.01,0.26,0.03,0.38,0.04c-0.05,0.01-0.11,0.03-0.15,0.02c-0.07-0.02-0.13-0.05-0.2-0.08
		C264.45,44.98,264.42,45.01,264.42,45.01z"/>
	<path class="st0" d="M267.12,35.75l0.08-0.1c0,0-0.1,0.15-0.1,0.16C267.09,35.81,267.12,35.75,267.12,35.75z"/>
	<path class="st0" d="M264.07,36.55l0.03,0.21c0,0-0.02-0.12-0.02-0.13C264.08,36.62,264.07,36.55,264.07,36.55z"/>
	<path class="st0" d="M260.94,33.52l-0.09,0.07c0,0,0.12-0.11,0.13-0.12C260.98,33.46,260.94,33.52,260.94,33.52z"/>
</g>
</svg>
