<?xml version="1.0" encoding="utf-8"?>
<!-- Generator: Adobe Illustrator 23.0.4, SVG Export Plug-In . SVG Version: 6.00 Build 0)  -->
<svg version="1.1" id="Ebene_1" xmlns="http://www.w3.org/2000/svg" xmlns:xlink="http://www.w3.org/1999/xlink" x="0px" y="0px"
	 viewBox="0 0 283.46 71.84" style="enable-background:new 0 0 283.46 71.84;" xml:space="preserve">
<style type="text/css">
	.st0{fill:#97A922;}
</style>
<g>
	<path class="st0" d="M175.61,16.21c-0.26,0.61-0.82,0.61-1.35,0.69c-0.07,0.01-0.16,0.05-0.19,0.1c-0.09,0.17,0,0.25,0.22,0.25
		c0.99-0.03,1.99-0.02,2.98-0.1c1.06-0.09,2.11-0.27,3.19-0.42c-0.44-0.45-1.07-0.14-1.51-0.45c-0.1-0.07-0.13-0.25-0.17-0.38
		c-0.01-0.04,0.09-0.15,0.15-0.15c0.84-0.02,1.68-0.05,2.51-0.03c0.2,0.01,0.52,0.14,0.58,0.3c0.31,0.88,1.02,0.8,1.71,0.81
		c0.08,0,0.15-0.01,0.23-0.02c0.2,0,0.3-0.09,0.27-0.26c-0.01-0.05-0.11-0.09-0.18-0.12c-0.21-0.07-0.53-0.07-0.51-0.33
		c0.01-0.15,0.31-0.3,0.5-0.41c0.13-0.07,0.3-0.12,0.44-0.1c0.45,0.06,0.9,0.24,1.34,0.2c0.35-0.03,0.66-0.39,1.01-0.48
		c0.36-0.09,0.76-0.06,1.14-0.01c0.76,0.11,1.51,0.09,2.29,0.01c1.06-0.11,2.13-0.15,3.2-0.1c0.7,0.04,1.36,0.07,2.04-0.12
		c0.28-0.08,0.6,0.01,0.91,0.02c0.84,0.03,1.7,0.18,2.52,0.05c1.38-0.22,2.75-0.07,4.12-0.17c1.22-0.09,2.43-0.13,3.62-0.53
		c0.78-0.26,1.66-0.31,2.5-0.27c1.37,0.06,2.76-0.16,4.09,0.38c0.18,0.07,0.47,0,0.65-0.1c0.63-0.37,1.32-0.38,2-0.39
		c2.68-0.02,5.36-0.05,8.04-0.03c1.15,0.01,2.3,0.09,3.44,0.16c1.3,0.07,2.6,0.15,3.89,0.26c0.45,0.04,0.89,0.19,1.34,0.29l0-0.06
		c0.19,0.34,0.43,0.64,0.79,0.81c1.76,0.84,3.65,1.17,5.57,1.1c1.24-0.05,2.43,0.04,3.65,0.22c3.4,0.52,6.81,1.02,10.26,1.17
		c2.52,0.11,5.04,0.35,7.57,0.37c0.83,0.01,1.67,0.19,2.5,0.3c0.06,0.01,0.13,0.08,0.18,0.13c0.09,0.11,0.02,0.24-0.19,0.24
		c-1.53-0.02-3.06-0.06-4.6-0.09c-0.38-0.01-0.78-0.08-1.15,0c-1.52,0.32-3.05,0.14-4.58,0.13c-2.45-0.01-4.9-0.13-7.34,0.17
		c-0.07,0.01-0.14,0.06-0.21,0.09c0.08,0.07,0.15,0.17,0.24,0.2c0.14,0.05,0.3,0.06,0.45,0.07c0.23,0.02,0.46,0,0.69,0.02
		c2.06,0.15,4.13,0.28,6.19,0.48c0.76,0.07,1.5,0.3,2.24,0.47c0.34,0.08,0.33,0.09-0.07,0.53c-0.04,0.05-0.09,0.13-0.07,0.17
		c0.03,0.06,0.11,0.13,0.17,0.14c0.68,0.06,1.37,0.11,2.05,0.17c0.05,0,0.1,0.11,0.12,0.17c0.01,0.03-0.06,0.12-0.1,0.12
		c-1.37,0.09-2.75,0.16-4.12,0.25c-0.38,0.02-0.78,0.02-1.1,0.26c-0.77,0.58-1.66,0.74-2.6,0.76c-0.03,0-0.08,0.13-0.07,0.18
		c0.02,0.06,0.09,0.16,0.14,0.16c1.14,0.12,2.27,0.25,3.42,0.34c1.76,0.14,3.52,0.24,5.27,0.36c0.23,0.02,0.48,0.02,0.67,0.12
		c0.99,0.56,2.07,0.48,3.14,0.52c0.92,0.03,1.84,0.04,2.76,0.12c0.41,0.03,0.71,0.27,0.6,0.77c-0.06,0.27,0.17,0.39,0.33,0.55
		c0.32,0.33,0.29,0.57,0,0.71c-0.77,0.37-1.56,0.64-2.43,0.55c-0.65-0.06-1.16,0.32-1.72,0.56c-0.02,0.01-0.04,0.11-0.01,0.14
		c0.04,0.06,0.1,0.12,0.17,0.14c0.22,0.06,0.44,0.14,0.67,0.16c1.68,0.16,3.35,0.3,5.03,0.44c0.46,0.04,0.92,0.02,1.37,0.11
		c0.45,0.08,0.87,0.26,1.35,0.4c-0.37,0.36-0.82,0.23-1.22,0.32c-0.52,0.12-1.06,0.19-1.58,0.29c-0.45,0.08-0.89,0.17-1.37,0.27
		c0.82,0.39,1.8,0.5,5.28,0.54c-0.78,0.11-1.24,0.12-1.66,0.24c-0.36,0.11-0.67,0.38-1.02,0.51c-0.28,0.1-0.67,0.25-0.88,0.14
		c-0.78-0.44-1.44-0.15-2.17,0.13c-0.56,0.22-1.18,0.25-1.82,0.37c0.29,0.32,0.66,0.19,0.98,0.24c0.3,0.05,0.64,0.05,0.83,0.31
		c0.25,0.35,0.57,0.48,0.97,0.5c0.69,0.03,1.38,0.06,2.06,0.11c0.1,0.01,0.18,0.16,0.27,0.25c-0.06,0.04-0.12,0.11-0.19,0.12
		c-0.22,0.05-0.45,0.09-0.68,0.11c-2.74,0.22-5.49,0.44-8.23,0.65c0.37,0.35,0.85,0.12,1.28,0.18c0.53,0.08,1.06,0.11,1.6,0.14
		c0.61,0.04,1.22,0.05,1.83,0.08c0.04,0,0.11,0.1,0.11,0.15c0,0.06-0.04,0.16-0.09,0.18c-0.34,0.17-0.69,0.31-1.03,0.48
		c-0.05,0.03-0.12,0.13-0.1,0.17c0.05,0.12,0.12,0.31,0.21,0.34c1.12,0.25,2.24,0.48,3.35,0.7c-0.16,0.28-0.52,0.38-0.86,0.45
		c-0.45,0.1-0.91,0.14-1.36,0.18c-0.61,0.06-1.22,0.07-1.83,0.14c-1.29,0.15-2.57,0.32-3.93,0.5c0.17,0.09,0.26,0.18,0.35,0.19
		c0.69,0.07,1.37,0.19,2.06,0.18c1.68-0.01,3.37-0.08,5.05-0.15c0.22-0.01,0.44-0.13,0.66-0.2l0,0c0.02,0.66-0.51,0.65-0.93,0.77
		c-0.05,0.02-0.12,0.08-0.13,0.13c-0.01,0.05,0.04,0.16,0.07,0.17c0.75,0.17,1.51,0.22,2.28,0.14c0.99-0.1,1.98-0.22,2.97-0.27
		c1.83-0.08,3.66-0.12,5.5-0.16c0.23-0.01,0.46,0.04,0.68,0.07c0.58,0.07,0.88,0.38,0.99,1.07c0.02,0.11-0.08,0.34-0.17,0.36
		c-0.36,0.1-0.74,0.16-1.12,0.21c-1.21,0.17-2.42,0.32-3.63,0.5c-0.12,0.02-0.24,0.13-0.34,0.21c-0.11,0.09,0.18,0.29,0.53,0.34
		c0.3,0.04,0.6,0.07,1.01,0.11c-1.05,0.55-2.11,0.83-3.06,1.37c-0.72,0.41-1.58,0.54-2.43,0.62c-2.13,0.19-4.25,0.51-6.35,0.95
		c-1.95,0.41-3.91,0.63-5.92,0.55c-0.83-0.03-1.69-0.06-2.49,0.25c-0.12,0.04-0.25,0.21-0.25,0.33c-0.01,0.12,0.11,0.3,0.22,0.35
		c1,0.44,2,0.73,3.07,0.14c0.51-0.29,1.04-0.15,1.49,0.22c0.05,0.04,0.09,0.14,0.09,0.21c0,0.05-0.06,0.13-0.1,0.15
		c-1.26,0.32-2.55,0.48-3.84,0.39c-0.63-0.04-1.19-0.03-1.77,0.24c-0.37,0.17-0.75,0-1.03-0.32c-0.01-0.01-0.09-0.12-0.09-0.12
		l0.12,0.17c-0.14,0-0.29-0.03-0.43,0c-0.41,0.1-0.61,0.41-0.53,0.79c0.05,0.26,0.34,0.47,0.66,0.42c0.28-0.04,0.55-0.15,0.83-0.23
		l-0.03-0.04c0.01,0.08,0.04,0.15,0.04,0.23c-0.04,0.57-0.18,0.8-0.55,0.86c-0.83,0.13-1.66,0.28-2.5,0.36
		c-2.44,0.22-4.89,0.41-7.33,0.61c-0.38,0.03-0.78,0.16-1.14,0.08c-0.95-0.19-1.19,0.8-1.87,1.04c-0.1,0.04,0,0.25,0.19,0.31
		c0.07,0.02,0.15,0.03,0.22,0.06c0.28,0.13,0.26-0.22,0.21,0.08c-0.01,0.05-0.02,0.14-0.04,0.15c-1.21,0.16-2.42,0.3-3.63,0.46
		c-0.05,0.01-0.12,0.12-0.12,0.18c0,0.06,0.08,0.17,0.11,0.17c0.83-0.16,1.65-0.32,2.49-0.07c0.12,0.04,0.29,0.17,0.3,0.27
		c0.01,0.11-0.13,0.24-0.23,0.34c-0.05,0.05-0.14,0.06-0.21,0.07c-0.15,0.03-0.3,0.06-0.46,0.06c-3.38,0.06-6.73,0.52-10.1,0.65
		c-2.91,0.11-5.81,0.43-8.72,0.47c-0.69,0.01-1.37,0.1-2.06,0.18c-2.44,0.26-4.87,0.55-7.33,0.5c-0.46-0.01-0.93,0-1.38,0.07
		c-3.79,0.59-7.62,0.78-11.45,1.01c-0.58,0.03-0.65,0.13-0.76,0.9c-0.01,0.07,0.03,0.15,0.04,0.22l0.01,0.02
		c-0.14-0.03-0.29-0.12-0.42-0.1c-0.52,0.09-1.04,0.3-1.56,0.31c-1,0.02-1.95,0.33-2.93,0.48c-0.06,0.01-0.14,0.06-0.18,0.11
		c-0.09,0.13-0.02,0.21,0.2,0.23c1.45,0.09,2.9-0.01,4.34-0.15c1.6-0.16,3.2-0.17,4.79-0.02c0.04,0,0.12,0.11,0.1,0.14
		c-0.05,0.13-0.12,0.34-0.2,0.35c-0.45,0.05-0.91,0.11-1.35,0.06c-1.39-0.16-2.74,0.06-4.08,0.34c-0.21,0.04-0.39,0.22-0.59,0.33
		c0,0-0.14,0-0.14,0l0.09-0.06c0.45,0.06,0.9,0.12,1.4,0.19c-2.2,0.8-2.4,0.83-4.35,0.72c-1.07-0.06-2.14-0.12-3.21-0.16
		c-0.35-0.01-0.52-0.21-0.72-0.47c-0.12-0.16-0.39-0.26-0.6-0.28c-1.07-0.09-2.14-0.09-3.16,0.36c-1.5,0.67-3.08,0.85-4.7,0.88
		c-1.07,0.02-2.14,0.06-3.22,0.1c-0.61,0.02-1.23,0-1.83,0.1c-1.82,0.31-3.66,0.26-5.5,0.25c-3.45-0.02-6.89,0.1-10.34,0.24
		c-2.68,0.1-5.36,0.16-8.04,0.22c-0.61,0.01-1.22-0.06-1.84-0.07c-0.46-0.01-0.92,0.01-1.37,0.06c-0.56,0.05-0.65,0.19-0.66,0.9
		c0,0.15-0.04,0.3-0.07,0.45l0.03-0.03c-0.17,0.15-0.32,0.38-0.51,0.42c-0.67,0.13-1.36,0.18-2.04,0.27
		c-0.05,0.01-0.13,0.09-0.14,0.15c-0.02,0.19,0.08,0.29,0.27,0.3c0.61,0.04,1.22,0.11,1.83,0.11c1.84,0.01,3.68-0.05,5.52-0.02
		c1.22,0.02,2.45,0.16,3.67,0.21c1.38,0.06,2.76,0.1,4.14,0.12c0.77,0.01,1.52-0.09,2.17-0.61c0.2-0.16,0.59-0.17,0.88-0.12
		c0.68,0.11,1.35,0.28,2.02,0.45c0.8,0.2,1.3-0.3,1.82-0.74c0.04-0.03,0.02-0.15,0.01-0.22c-0.13-0.63,0.39-0.82,0.78-0.9
		c0.59-0.12,1.22-0.1,1.83-0.08c0.69,0.02,1.38,0.05,2.06-0.1c1.88-0.43,3.81-0.37,5.72-0.47c0.38-0.02,0.76,0.06,1.14,0.11
		c0.22,0.03,0.49,0.35,0.39,0.47c-0.08,0.11-0.19,0.26-0.3,0.29c-0.75,0.14-1.52,0.21-2.27,0.38c-0.36,0.08-0.69,0.31-1.02,0.48
		c-0.05,0.03-0.11,0.14-0.09,0.19c0.05,0.13,0.12,0.32,0.22,0.34c1.28,0.27,2.59,0.26,3.89,0.23c2.6-0.06,5.22-0.06,7.8-0.51
		c0.62-0.11,1.23-0.05,1.82,0.16c0.9,0.32,1.81,0.3,2.72,0.14c0.99-0.18,1.98-0.18,2.98-0.21c2.91-0.1,5.82-0.25,8.73-0.36
		c1.69-0.06,3.37-0.14,5.06-0.13c2.46,0.01,4.9-0.09,7.35-0.25c2.07-0.13,4.14-0.16,6.21-0.23c0.77-0.03,1.54-0.02,2.29-0.11
		c2.52-0.33,5.04-0.38,7.57-0.36c1.23,0.01,2.45-0.02,3.65-0.35c0.51-0.13,1.06-0.09,1.6-0.09c0.61,0,1.23,0.06,1.84,0.05
		c0.54,0,1.11,0.06,1.6-0.1c1.41-0.47,2.88-0.4,4.32-0.56c0.3-0.03,0.62-0.11,0.92-0.07c2.47,0.3,4.89-0.17,7.34-0.33
		c0.38-0.02,0.76,0.02,1.13,0.04c0.15,0.01,0.16,0.08,0.04,0.14c-0.06,0.04-0.12,0.1-0.18,0.11c-0.98,0.17-1.94,0.4-2.94,0.5
		c-1.37,0.14-2.72,0.4-4.09,0.58c-3.35,0.42-6.71,0.64-10.08,0.89c-0.38,0.03-0.77,0.04-1.14,0.11c-2.8,0.52-5.64,0.58-8.47,0.79
		c-1.37,0.1-2.75,0.19-4.13,0.29c-2.22,0.16-4.44,0.21-6.66,0.24c-2.53,0.04-5.06,0.09-7.59,0.25c-2.22,0.14-4.45,0.09-6.67,0.21
		c-3.29,0.17-6.6,0.18-9.88,0.41c-3.14,0.22-6.28,0.13-9.41,0.26c-1.3,0.05-2.6,0.15-3.9,0.22c-0.92,0.05-1.83,0.18-2.75,0.07
		c-0.45-0.05-0.91,0.07-1.37,0.1c-1.15,0.08-2.29,0.21-3.44,0.22c-7.21,0.03-14.42,0-21.63,0.06c-4.6,0.04-9.2-0.07-13.8-0.1
		c-1.84-0.01-3.68,0-5.52-0.03c-3.6-0.06-7.2-0.15-10.8-0.2c-1.38-0.02-2.76,0.06-4.14,0.09c-0.38,0.01-0.77,0.02-1.13-0.07
		c-0.83-0.21-1.67-0.19-2.52-0.2c-2.61-0.03-5.22-0.04-7.82-0.08c-2.91-0.05-5.83-0.1-8.74-0.18c-3.37-0.1-6.75-0.22-10.12-0.35
		c-5.06-0.19-10.11-0.38-15.17-0.67c-3.83-0.22-7.66-0.31-11.49-0.48c-2.91-0.13-5.82-0.31-8.73-0.47c-0.54-0.03-1.07-0.09-1.6-0.16
		c-2.05-0.26-4.11-0.46-6.19-0.53c-2.22-0.07-4.44-0.11-6.66-0.36c-0.83-0.09-1.69-0.05-2.53-0.01c-1.77,0.09-3.52-0.18-5.26-0.41
		c-0.18-0.02-0.19-0.2-0.08-0.34c0.32-0.41,0.32-0.42,0-0.48c-0.75-0.16-1.49-0.33-2.26-0.36c-0.78-0.03-1.49-0.31-2.18-0.68
		c-0.63-0.34-1.18-0.74-1.44-1.42c-0.2-0.52-0.54-0.92-0.99-1.23c-0.46-0.31-0.74-0.75-1-1.23c-0.17-0.33-0.39-0.72-0.7-0.89
		c-1-0.56-1.56-1.44-2.03-2.42c-0.13-0.27-0.31-0.52-0.52-0.74c-0.08-0.08-0.31-0.11-0.41-0.06c-0.28,0.15-0.54,0.33-0.76-0.06
		c-0.18-0.32-0.47-0.65-0.05-1.01c0,0,0.13,0.01,0.13,0.01l-0.19-0.04c-0.01-0.26-0.11-0.47-0.4-0.45c-0.62,0.04-1.01-0.22-1.22-0.8
		c-0.16-0.42-0.34-0.85-0.58-1.23c-0.26-0.4-0.39-0.83-0.45-1.28c-0.07-0.49-0.32-0.85-0.75-1.08c-0.13-0.07-0.27-0.14-0.4-0.23
		c-1.03-0.76-1.76-2.19-0.96-3.65c0.57-1.03,0.5-1.88-0.23-2.72c-0.52-0.6-0.74-1.27-0.75-2.09c-0.02-1.67-0.18-3.34-0.23-5.02
		c-0.02-0.52,0.16-1.05,0.16-1.57c0-0.47,0.02-0.9,0.25-1.33c0.1-0.19,0.16-0.44,0.16-0.66c0-1.26,0.66-2.32,1-3.48
		c0.07-0.26,0.34-0.29,0.54-0.37c0.16-0.06,0.25-0.16,0.19-0.35c-0.07-0.21-0.15-0.43-0.28-0.62c-0.41-0.59-0.32-1.16,0.02-1.72
		c0.27-0.45,0.41-0.96,0.9-1.29c0.51-0.35,0.47-0.42-0.26-0.83l0.04,0.08c0.38-0.07,0.75-0.15,1.13-0.2
		c0.32-0.04,0.54-0.16,0.69-0.48c0.51-1.07,1.24-1.91,2.44-2.26c0.44-0.13,0.83-0.41,1.26-0.53c0.46-0.13,0.84-0.35,1.18-0.67
		c1.09-1.03,2.45-1.56,3.88-1.89c1.05-0.24,2.11-0.38,3.19-0.41c1.61-0.04,3.22-0.15,4.83-0.22c0.31-0.01,0.62-0.03,0.92,0
		c2.59,0.3,5.2,0.31,7.81,0.39c1.84,0.06,3.68,0.2,5.52,0.18c2.35,0.43,4.75,0.19,7.11,0.42c3.67,0.35,7.35,0.27,11.02,0.66
		c0.7,0.07,1.37,0.01,2-0.35c0.15-0.08,0.44,0.01,0.63,0.1c0.87,0.43,1.77,0.38,2.68,0.2c0.53-0.45,1.13-0.36,1.75-0.29
		c0.37,0.04,0.79,0.06,1.14-0.05c1.43-0.44,2.89-0.23,4.34-0.25c0.99-0.02,1.98,0.02,2.87,0.63c0.35,0.24,0.87,0.3,1.32,0.33
		c2.14,0.16,4.28,0.29,6.43,0.42c3.22,0.19,6.44-0.05,9.65,0.08c0.46,0.02,0.92-0.04,1.38-0.09c1.07-0.11,2.13-0.22,3.21-0.14
		c0.53,0.04,1.09,0,1.58-0.17c0.53-0.18,1.01-0.27,1.54-0.06c0.73,0.28,1.49,0.33,2.27,0.22c0.54-0.08,1.06-0.09,1.6,0.04
		c1.96,0.47,3.95,0.41,5.94,0.22c0.61-0.06,1.21-0.01,1.82,0.03c1.76,0.12,3.52,0.22,5.28,0.04c0.91-0.09,1.84-0.07,2.76-0.04
		c1.07,0.03,2.14,0.07,3.22-0.05c0.45-0.05,0.91,0.05,1.37,0.08c0.61,0.03,1.24,0.17,1.83,0.07c1.98-0.31,3.98,0.21,5.94-0.19
		c1.37,0.26,2.76,0.11,4.13,0.03c3.14-0.17,6.28-0.09,9.42-0.04c1.61,0.03,3.23,0.09,4.82-0.17c0.63-0.1,1.23-0.01,1.82,0.15
		c1.61,0.43,3.2,0.32,4.77-0.11c0.91-0.25,1.8-0.35,2.71-0.08c0.75,0.22,1.5-0.15,2.28,0.07c0.73,0.21,1.5,0.29,2.28,0.13
		c0.26-0.05,0.38,0.19,0.48,0.4c0.11,0.23,0.31,0.34,0.55,0.33c0.3-0.02,0.69,0.02,0.88-0.15c0.83-0.72,1.8-0.82,2.8-0.73
		c1.3,0.12,2.6-0.07,3.9-0.01c0.15,0.01,0.3-0.07,0.45-0.11L175.61,16.21z M138.4,64.13c-0.69-0.16-1.04-0.23-1.39-0.32
		c-0.27-0.07-0.49-0.35-0.39-0.49c0.08-0.11,0.18-0.24,0.31-0.29c0.29-0.1,0.59-0.14,0.89-0.22c0.04-0.01,0.06-0.13,0.06-0.19
		c-0.01-0.05-0.07-0.14-0.11-0.14c-0.68-0.04-1.37-0.1-2.05-0.1c-0.77,0.01-1.57-0.02-1.93,0.9c-0.05,0.12-0.22,0.21-0.36,0.27
		c-0.57,0.23-1.16,0.41-1.79,0.28c-0.82-0.16-1.64-0.33-2.46-0.5c-0.15-0.03-0.21-0.19-0.14-0.36c0.11-0.25,0.03-0.45-0.21-0.5
		c-0.29-0.07-0.61-0.1-0.91-0.09c-2.3,0.1-4.59,0-6.89-0.07c-1.53-0.05-3.06-0.16-4.59,0.06c-0.23,0.03-0.46,0.01-0.69,0.01
		c-3.52,0.04-7.04,0.08-10.56,0.13c-1.68,0.02-3.37,0.06-5.05,0.12c-0.29,0.01-0.58,0.14-0.85,0.27c-0.1,0.05-0.17,0.26-0.17,0.39
		c0.01,0.12,0.13,0.34,0.22,0.34c0.69,0.05,1.37,0.07,2.06,0.08c0.14,0,0.35-0.03,0.42-0.13c0.56-0.7,1.23-0.41,1.89-0.26
		c0.67,0.15,1.33,0.43,2.01,0.45c3.14,0.09,6.28,0.2,9.41-0.04c0.45-0.04,0.92-0.13,1.33-0.32c1.01-0.47,2.07-0.52,3.15-0.49
		c0.67,0.02,1.4-0.11,1.6,0.85c0.03,0.14,0.37,0.27,0.58,0.3c1.14,0.16,2.29,0.2,3.44,0.1c0.46-0.04,0.67-0.27,0.69-0.72
		c0.01-0.12,0.11-0.33,0.19-0.34c0.45-0.05,0.9-0.07,1.35-0.06c0.07,0,0.15,0.21,0.18,0.33c0.02,0.05-0.07,0.13-0.1,0.2
		c-0.26,0.52-0.2,0.69,0.27,0.71c0.84,0.03,1.69,0.1,2.52,0.03c1.23-0.1,2.44-0.08,3.67-0.01C135.35,64.38,136.7,64.35,138.4,64.13z
		 M72.44,62.18c-0.32,0.02-0.7,0.02-1.06,0.08c-0.09,0.01-0.16,0.21-0.22,0.33c-0.01,0.02,0.07,0.13,0.13,0.14
		c0.81,0.23,1.62,0.21,2.43,0c0.06-0.01,0.14-0.12,0.13-0.14c-0.07-0.12-0.14-0.3-0.24-0.32C73.24,62.22,72.87,62.21,72.44,62.18z
		 M171.13,17.3c0.03,0,0.25-0.02,0.47-0.05c0.07-0.01,0.13-0.06,0.19-0.1c-0.09-0.07-0.17-0.19-0.27-0.2
		c-0.29-0.03-0.58-0.04-0.87-0.02c-0.11,0.01-0.2,0.13-0.3,0.2c0.13,0.05,0.25,0.12,0.39,0.16C170.79,17.31,170.87,17.3,171.13,17.3
		z M249.12,48.18c-0.15,0.02-0.3,0.03-0.45,0.07c-0.06,0.02-0.11,0.09-0.17,0.13c0.1,0.09,0.18,0.21,0.29,0.25
		c0.14,0.04,0.31,0.04,0.45,0c0.14-0.03,0.28-0.1,0.39-0.19C249.75,48.34,249.46,48.18,249.12,48.18z M143.68,62.37
		c0.16-0.02,0.24-0.01,0.31-0.03c0.07-0.02,0.13-0.07,0.19-0.1c-0.05-0.05-0.08-0.11-0.14-0.13c-0.07-0.03-0.15-0.04-0.22-0.03
		c-0.22,0.04-0.43,0.09-0.64,0.13C143.38,62.26,143.57,62.33,143.68,62.37z M89.24,63.02c-0.09,0.03-0.3,0.08-0.5,0.14
		c0.22,0.04,0.43,0.08,0.65,0.1c0.07,0.01,0.17-0.02,0.2-0.06C89.66,63.1,89.57,63.03,89.24,63.02z M187.19,16.06
		c0.08-0.1,0.16-0.2,0.23-0.31c0.01-0.01-0.11-0.13-0.15-0.12c-0.12,0.03-0.23,0.1-0.34,0.16C187.01,15.87,187.1,15.97,187.19,16.06
		z M252.12,46.36c0.06-0.03,0.15-0.04,0.18-0.09c0.08-0.14,0.01-0.25-0.18-0.25c-0.19,0-0.26,0.1-0.18,0.24
		C251.98,46.31,252.06,46.33,252.12,46.36z M138.32,17.51c0,0.05,0,0.1,0,0.15c0.06,0,0.12,0,0.18-0.01c0-0.05,0.01-0.13-0.01-0.14
		C138.44,17.5,138.38,17.51,138.32,17.51z"/>
	<path class="st0" d="M220.24,58.29c-0.52-0.07-1.05-0.22-1.57-0.2c-0.67,0.02-1.22-0.01-1.39-0.81c-0.02-0.1-0.21-0.23-0.34-0.24
		c-0.83-0.1-1.67-0.11-2.47,0.16c-0.14,0.05-0.25,0.16-0.38,0.25l0.06-0.06c-0.13,0.05-0.25,0.09-0.38,0.14
		c-0.12,0.05-0.25,0.09-0.37,0.14c0.12,0.05,0.24,0.1,0.37,0.14c0.13,0.04,0.26,0.07,0.39,0.11c0,0-0.05-0.07-0.05-0.07
		c-0.1,0.11-0.18,0.28-0.29,0.31c-0.35,0.09-0.78,0.27-1.07,0.15c-1.3-0.51-2.46-0.19-3.58,0.48l0.07-0.05
		c-1.22,0.03-2.44,0.32-3.67,0.17c-0.22-0.03-0.46-0.07-0.66-0.17c-0.09-0.05-0.16-0.25-0.15-0.36c0.03-0.22,0.13-0.44,0.2-0.66
		c0.11-0.33,0.38-0.45,0.69-0.52c0.07-0.02,0.15-0.04,0.23-0.02c1.56,0.25,3.06-0.07,4.52-0.53c1.71-0.54,3.43-0.8,5.21-0.55
		c0.77,0.11,1.54,0.05,2.29-0.11c0.63-0.14,1.19-0.14,1.72,0.32c0.14,0.13,0.44,0.13,0.65,0.11c1.52-0.15,3.05-0.32,4.57-0.51
		c0.3-0.04,0.59-0.14,0.89-0.22c2.45-0.66,4.95-1.04,7.49-1.08c0.84-0.01,1.69-0.08,2.52-0.18c1.67-0.19,3.34-0.36,5.03-0.27
		c1.5-0.32,3.04-0.27,4.56-0.41c0.3-0.03,0.63-0.12,0.91-0.05c1.01,0.24,1.97,0.05,2.94-0.24c0.44-0.13,0.91-0.28,1.35-0.24
		c1.02,0.09,1.98-0.08,2.95-0.33c0.3-0.08,0.62-0.17,0.91-0.13c1.77,0.25,3.5-0.48,5.26-0.2c0.11,0.02,0.26,0.16,0.29,0.28
		c0.02,0.07-0.14,0.26-0.24,0.28c-2.34,0.39-4.67,0.79-7.03,1.05c-1.89,0.21-3.8,0.38-5.63,1.06c-1.13,0.42-2.36,0.6-3.61,0.42
		c-0.44-0.06-0.95-0.1-1.08,0.55c-0.02,0.11-0.2,0.22-0.33,0.28c-0.65,0.27-1.32,0.4-2.02,0.37c-0.34-0.02-0.6-0.19-0.68-0.51
		c-0.14-0.57-0.49-0.72-1.02-0.6c-0.22,0.05-0.45,0.15-0.67,0.14c-1.18-0.06-2.26,0.25-3.34,0.69c-0.56,0.23-1.19,0.35-1.79,0.37
		c-2,0.08-3.95,0.51-5.91,0.81c-1.29,0.2-2.59,0.25-3.9,0.24c-0.84-0.01-1.69-0.03-2.48,0.36L220.24,58.29z"/>
	<path class="st0" d="M225.51,60.97c-1.68,0.14-3.34,0.29-5.03,0.15c-1.13-0.09-2.29-0.12-3.34,0.52c-0.3,0.18-0.76,0.23-1.11,0.17
		c-1.9-0.32-3.81,0.09-5.72-0.11c-0.66-0.07-1.37,0.12-2.03,0.27c-1.36,0.31-2.72,0.38-4.09,0.09c-0.75-0.16-1.51-0.19-2.28-0.13
		c-1.45,0.1-2.9,0.15-4.35,0.19c-1.22,0.03-2.44,0.05-3.65,0.29c-0.59,0.12-1.22,0.16-1.82,0.1c-1.07-0.09-2.14,0.01-3.2,0.02
		l0.05,0.05c0.06-0.13,0.09-0.35,0.18-0.38c1.24-0.41,2.53-0.61,3.83-0.66c1.53-0.06,3.06-0.09,4.59-0.17
		c0.76-0.04,1.51-0.23,2.27-0.27c1.45-0.07,2.91-0.06,4.36-0.1c0.61-0.02,1.23-0.02,1.82-0.14c1.3-0.25,2.58-0.25,3.89-0.09
		c0.45,0.06,0.94,0.16,1.36,0.06c1.21-0.3,2.43-0.26,3.66-0.26c0.76,0,1.54-0.06,2.29-0.2c1.06-0.2,2.09-0.37,3.18-0.15
		c0.43,0.09,0.91-0.07,1.36-0.14c0.98-0.15,1.97-0.32,2.95-0.48c0.68-0.11,1.35-0.05,2.05,0.06c0.98,0.15,1.98,0.11,2.98,0.1
		c1.69-0.02,3.37-0.08,5.06-0.15c0.84-0.03,1.68-0.11,2.52-0.16c0.2-0.01,0.31,0.07,0.26,0.19c-0.02,0.06-0.1,0.11-0.16,0.15
		c-0.61,0.38-1.31,0.46-1.99,0.5c-0.6,0.03-0.96,0.34-1.34,0.74c-0.28,0.29-0.68,0.39-1.04,0.11c-0.38-0.31-0.8-0.42-1.28-0.42
		c-1.15,0.01-2.3,0.01-3.45,0.01c-0.22,0.25-1.16-0.53-0.8,0.56c-1.24,0.35-2.46,0.79-3.78,0.68c-0.68-0.06-1.36-0.11-2.33-0.18
		c0.46-0.12,0.65-0.19,0.85-0.21c0.84-0.05,1.68-0.09,2.53-0.13c0.34-0.02,0.54-0.25,0.74-0.49c0.01,0,0.13,0.1,0.13,0.1
		L225.51,60.97z"/>
	<path class="st0" d="M257.97,51.14c-0.28,0.26-0.54,0.52-0.96,0.55c-3.42,0.29-6.81,0.93-10.24,1.1c-1.29,0.07-2.59,0.07-3.89,0.09
		c-0.11,0-0.29-0.15-0.3-0.24c-0.01-0.1,0.11-0.26,0.22-0.32c0.46-0.27,0.92-0.55,1.4-0.75c0.42-0.18,0.87-0.29,1.31-0.36
		c0.19-0.03,0.49,0.04,0.61,0.17c0.21,0.25,0.4,0.45,0.74,0.44c0.84-0.02,1.68-0.05,2.52-0.09c0.15-0.01,0.36-0.03,0.42-0.12
		c0.52-0.71,1.21-0.5,1.87-0.36c1.74,0.38,3.5,0.25,5.25,0.25C257.27,51.51,257.62,51.28,257.97,51.14
		C257.98,51.15,257.97,51.14,257.97,51.14z"/>
	<path class="st0" d="M220.16,58.34c2.75-0.32,5.49-0.08,8.38,0.09c-0.25,0.13-0.36,0.23-0.47,0.24c-3.28,0.2-6.56,0.58-9.85,0.52
		c-1.15-0.02-2.29-0.03-3.44-0.05c-0.07,0-0.13-0.06-0.2-0.1c0.1-0.07,0.2-0.19,0.3-0.19c1.38-0.04,2.75-0.05,4.13-0.09
		c0.47-0.01,0.91-0.11,1.24-0.5C220.24,58.29,220.16,58.34,220.16,58.34z"/>
	<path class="st0" d="M159.63,62.63c0.44,0.04,1.3-0.18,2.06,0.28c0.04,0.03,0.04,0.14,0.04,0.21c0,0.06-0.01,0.16-0.05,0.18
		c-0.13,0.07-0.28,0.15-0.41,0.15c-1.29-0.04-2.57-0.07-3.84,0.15c-0.52,0.09-1.06,0.1-1.56-0.13c-0.12-0.05-0.19-0.2-0.29-0.31
		c0.1-0.08,0.19-0.22,0.3-0.24c0.75-0.11,1.49-0.21,2.24-0.29C158.5,62.6,158.88,62.63,159.63,62.63z"/>
	<path class="st0" d="M209.15,58.77c0.45,0.04,0.9,0.07,1.35,0.11c0.06,0.01,0.13,0.1,0.14,0.17c0.01,0.06-0.04,0.16-0.09,0.19
		c-0.2,0.11-0.4,0.26-0.61,0.27c-0.91,0.05-1.83,0.07-2.74,0.09c-0.07,0-0.14-0.07-0.2-0.1c0.09-0.09,0.18-0.25,0.29-0.27
		c0.38-0.06,0.77-0.02,1.14-0.11c0.28-0.07,0.54-0.26,0.81-0.41C209.22,58.72,209.15,58.77,209.15,58.77z"/>
	<path class="st0" d="M266.7,38.31c1.36-0.03,2.72-0.05,4.08-0.08c0.07,0,0.14,0.06,0.25,0.11
		C269.56,38.48,268.13,38.52,266.7,38.31C266.7,38.31,266.7,38.31,266.7,38.31z"/>
	<path class="st0" d="M146.15,63.19c0.61-0.29,1.24-0.51,1.91-0.18c0.09,0.04,0.12,0.22,0.15,0.34c0.01,0.05-0.07,0.14-0.13,0.16
		c-0.14,0.05-0.29,0.12-0.42,0.1c-0.28-0.05-0.56-0.16-0.83-0.25c-0.21-0.07-0.41-0.14-0.63-0.21
		C146.18,63.17,146.15,63.19,146.15,63.19z"/>
	<path class="st0" d="M175.64,16.22c0.42-0.12,0.85-0.24,1.27-0.35c0.06-0.01,0.16,0.02,0.19,0.07c0.08,0.14,0.01,0.26-0.16,0.32
		c-0.44,0.16-0.88,0.08-1.32-0.05C175.61,16.21,175.64,16.22,175.64,16.22z"/>
	<path class="st0" d="M231.57,61.2c0.06-0.01,0.18,0.01,0.19,0.05c0.04,0.11-0.06,0.17-0.25,0.14c-0.14-0.02-0.28-0.03-0.42-0.05
		C231.19,61.09,231.41,61.23,231.57,61.2z"/>
	<path class="st0" d="M219.04,61.84c-0.12-0.03-0.25-0.06-0.37-0.09c0.07-0.01,0.14-0.02,0.21-0.02c0.07,0,0.14-0.01,0.21,0
		c0.06,0.01,0.11,0.06,0.17,0.09C219.18,61.83,219.11,61.83,219.04,61.84z"/>
	<path class="st0" d="M257.98,51.15c0.43,0,0.85-0.01,1.28,0c0.03,0,0.08,0.1,0.07,0.15c-0.01,0.05-0.07,0.11-0.12,0.12
		C258.75,51.53,258.37,51.3,257.98,51.15C257.97,51.14,257.98,51.15,257.98,51.15z"/>
	<path class="st0" d="M151.3,63.33c-0.06-0.03-0.12-0.06-0.18-0.09c0.03-0.05,0.05-0.14,0.09-0.14c0.14-0.02,0.28-0.01,0.41,0
		c0.03,0,0.04,0.08,0.07,0.12C151.56,63.26,151.43,63.3,151.3,63.33z"/>
	<path class="st0" d="M214.09,57.43c0.22,0,0.44-0.03,0.65,0.02c0.11,0.02,0.19,0.18,0.29,0.27c-0.1,0.09-0.2,0.26-0.3,0.26
		c-0.21,0-0.42-0.09-0.63-0.15c0,0,0.05,0.07,0.05,0.07c0-0.18,0-0.35,0-0.53L214.09,57.43z"/>
	<path class="st0" d="M213.52,62.43c-0.12-0.06-0.25-0.11-0.37-0.17c0.08-0.08,0.16-0.19,0.26-0.23c0.13-0.04,0.29-0.06,0.42-0.02
		c0.11,0.03,0.19,0.15,0.28,0.22c-0.05,0.05-0.1,0.12-0.16,0.13C213.81,62.4,213.66,62.41,213.52,62.43z"/>
	<path class="st0" d="M252.58,48.44c0.21-0.03,0.41-0.07,0.62-0.09c0.06-0.01,0.17,0.03,0.18,0.06c0.04,0.15-0.06,0.25-0.24,0.21
		c-0.2-0.04-0.39-0.14-0.59-0.22C252.55,48.41,252.58,48.44,252.58,48.44z"/>
	<path class="st0" d="M196.26,57.67c0.2-0.06,0.41-0.13,0.61-0.16c0.11-0.02,0.23,0.04,0.34,0.06c-0.03,0.04-0.06,0.1-0.1,0.11
		c-0.07,0.01-0.14-0.01-0.22-0.01c-0.21,0-0.42,0.01-0.63,0.02C196.27,57.68,196.26,57.67,196.26,57.67z"/>
	<path class="st0" d="M188.86,62.53c-0.11,0.09-0.21,0.21-0.33,0.24c-0.1,0.03-0.23-0.05-0.35-0.09c0.1-0.06,0.2-0.16,0.31-0.18
		c0.13-0.02,0.27,0.04,0.41,0.07C188.9,62.58,188.86,62.53,188.86,62.53z"/>
	<path class="st0" d="M233.54,58.16c0-0.04-0.01-0.08-0.01-0.12c0.06,0,0.16-0.04,0.18-0.01C233.8,58.15,233.73,58.2,233.54,58.16z"
		/>
	<path class="st0" d="M199.01,63.16c-0.05,0.03-0.11,0.08-0.16,0.07c-0.05,0-0.09-0.06-0.14-0.1c0.05-0.03,0.11-0.08,0.16-0.07
		C198.91,63.06,198.96,63.12,199.01,63.16z"/>
	<path class="st0" d="M232.62,14.76l-0.05-0.14c0,0,0.04,0.07,0.05,0.08C232.62,14.7,232.62,14.76,232.62,14.76z"/>
	<path class="st0" d="M10.8,20.69c0.3,0.07-0.03,0.27,0.14,0.02c0.07-0.1-0.05-0.15-0.1,0.06C10.85,20.77,10.8,20.69,10.8,20.69z"/>
</g>
</svg>
