<svg xmlns="http://www.w3.org/2000/svg" viewBox="0 0 24 24"><defs><style>.a{fill:none;stroke:currentColor;stroke-linecap:round;stroke-linejoin:round;}</style></defs><title>messaging-whatsapp</title><path class="a" d="M12,.5A11.467,11.467,0,0,0,.5,11.909,11.289,11.289,0,0,0,2.691,18.6L1.255,22.838l4.419-1.405A11.511,11.511,0,0,0,23.5,11.91,11.468,11.468,0,0,0,12,.5m6.907,14.535c-.084-.138-.307-.223-.642-.388s-1.985-.972-2.291-1.082-.532-.167-.755.166-.866,1.081-1.062,1.3-.391.25-.726.084a9.188,9.188,0,0,1-2.7-1.651,9.976,9.976,0,0,1-1.864-2.3c-.2-.332-.021-.512.147-.678a3.612,3.612,0,0,0,.838-1.138.606.606,0,0,0-.028-.583C9.743,8.6,9.072,6.962,8.793,6.3c-.316-.756-1.725-.782-2.292-.168-1.789,1.941-1.376,4.14.2,6.215.168.222,2.32,3.691,5.728,5.023s3.408.887,4.023.831c1.767-.159,2.963-2.323,2.459-3.163"/></svg>