<svg xmlns="http://www.w3.org/2000/svg" viewBox="0 0 24 24"><defs><style>.a{fill:none;stroke:currentColor;stroke-linecap:round;stroke-linejoin:round;}</style></defs><title>social-pinterest</title><path class="a" d="M12.637.5C6.36.5,3.2,5,3.2,8.752c0,2.273.861,4.3,2.705,5.047a.454.454,0,0,0,.661-.33c.062-.231.207-.816.271-1.061a.64.64,0,0,0-.19-.736,3.8,3.8,0,0,1-.872-2.59,6.257,6.257,0,0,1,6.5-6.328c3.548,0,5.5,2.168,5.5,5.063,0,3.808-1.687,7.024-4.19,7.024A2.045,2.045,0,0,1,11.5,12.3c.4-1.675,1.167-3.479,1.167-4.687a1.77,1.77,0,0,0-1.782-1.984c-1.413,0-2.548,1.461-2.548,3.42a5.072,5.072,0,0,0,.422,2.09l-1.7,7.2a14.8,14.8,0,0,0-.04,5.02.176.176,0,0,0,.314.078,14.145,14.145,0,0,0,2.385-4.325c.162-.589.929-3.632.929-3.632a3.785,3.785,0,0,0,3.227,1.646C18.119,17.121,21,13.25,21,8.069,21,4.151,17.682.5,12.637.5Z"/></svg>